<mxfile host="65bd71144e">
    <diagram id="7__wWHlrVTgJ4VGBfp47" name="Page-1">
        <mxGraphModel dx="1556" dy="1070" grid="1" gridSize="10" guides="1" tooltips="1" connect="1" arrows="1" fold="1" page="1" pageScale="1" pageWidth="1100" pageHeight="850" math="0" shadow="0">
            <root>
                <mxCell id="0"/>
                <mxCell id="1" parent="0"/>
                <mxCell id="2" value="" style="shape=stencil(lZbdUttADIWfxrdnpNX+XlN4D2YIjYc0YUKg5e3R1mOIlkSd3vnv88pHR8c7yc3L9v55MwV6OR0PT5vf88NpO8mPKYR5v90c55MeTXI7yc3j4bj5eTy87h+W8+f7/mQ/+nV462/4s3CNUEKnAr0vV2JCan+v3C3Abt6fAxmlGCAJWnWAhsoGyIKaXSCJAUoEeyUltGyAqis4QG2IFmiMFh1AVbIltYLE14FCyFYlJgLRdSITJNolGtiRKRGq7ZzqQE4jooBtI2oFO4BUkAVK84EMsrrmBhIHKGMjUkV1VIphXCGqW5zO6W1pFggITklaQK4G0CKzs0KuaMkCGSE53lARrZlU6OB8dG+TXUFbGfyBoGFG6V8zykPjCLFcB87c/OkNWoPh8hI6MBbQofJa3UdysGtbX3FZJh36YUg1GJySeqzYkr6i53KrBeXbjFYnBjQa6wBofHozmhCHoVZZHTN1QP4HkDima09Dx0whrm7+BBKyE0yc1rQ+i43ofHRBtW4tDHHaEMYwzrym7cXn1ar2AxKvKXLteWuLSODg1ZNsYgRfUc0TWz831xQcR4GYkZweBxmBBHEmRz0x/Bm0AY6garpBofHfpgdfO47HebdbNizn98cdil5adjdy+wE=);lineShape=1;" parent="1" vertex="1">
                    <mxGeometry x="60.35571690497579" y="-22.679823642718503" width="0.9144082691774945" height="0.9172133678562204" as="geometry"/>
                </mxCell>
                <mxCell id="3" value="product ko problem tab tab ayega when there is a negative number or when there is a 0" style="text;html=1;align=center;verticalAlign=middle;resizable=0;points=[];autosize=1;strokeColor=none;fillColor=none;" parent="1" vertex="1">
                    <mxGeometry y="-850" width="490" height="30" as="geometry"/>
                </mxCell>
                <mxCell id="6" value="[ -2&amp;nbsp; 1&amp;nbsp; 3&amp;nbsp; 0&amp;nbsp; 7&amp;nbsp; 9 ]" style="text;html=1;align=center;verticalAlign=middle;resizable=0;points=[];autosize=1;strokeColor=none;fillColor=none;" parent="1" vertex="1">
                    <mxGeometry x="5.810000000000002" y="-820" width="110" height="30" as="geometry"/>
                </mxCell>
                <mxCell id="10" value="" style="shape=stencil(lVfZbhsxDPyafSUkURef0/Q/AsSpjbpx4LjX35eqIXtFOWPkbb0eLjW8hlr44X379LZZgns/HQ/fN793z6ftwl+WEHav281xd9KnhR8Xfng5HDffjoefr8/n329PDdmefhx+tS/8OdtJpZKbVXB/z28c1fD/xdczfr97XeGrkKsD3pM4gM+UecBHch7gE3EZ8JlCBXgmSQNeKEWAV/cynl+/kKGBd6OBUEUMPOXRQyjkQEiLhmikzImCfGyQK0kcYxopFGDgbNISwyglR2XMWg6d1U2D6MmPpIsnBmFlT2nMWxEKwCDoAUYOWioC8uCT5SBaqiBKPlAZOUimyMDA9yBeDLT4AAc18NUaFMTBUUjWoIIjVarZ4gXgC/mJgYA8p96Ml2ZwWlug/5limRygEPVpsiYM+n8q1BZRkGRnu1nxGQRI2U0JiCBAjrK3eE6Ib5nOE8B5uP+7wnvw/dSn7RoP8pV7tNd4NO3seG94lN9pFDXCKED+hgGjNtauDFNXgvnrL5NqXROYQ548FFAUYjWtNQFIQqEydyWgnGzT3OvKeKOqBXRZIJ5yAGcvuYkw0kwdcxPhDLveTV2D9OyzeN+laKUEDM6j8msKwlMFBdGEYAyQihkKUGMwelC59KAktOZMjaogo0WKxUpBk3zQNrFSHA10qYjAQyo2y21tAaRztMOoLUZgVmSxCq7zDMlZCeTGRN9Z7jSIdeRwZ31UAxMlrTzkIHR5We2/oFILE4+lzXi0FOKxLnx/cXu+VysgDuasihVYVVzwfXE2PhfFvY33dt938D4hbPdMPBklkWeLR+fPts9cn3238aUPzlV8QH71fjbxRfvBVbqueLh/uGk2ur6yfeRArIOEtE/skuzgyvvZC+l9vD5cb78vu/3+fHle/29vy/rqfNPmx38=);lineShape=1;" parent="1" vertex="1">
                    <mxGeometry x="-9.154192604786815" y="-794.4868044637767" width="0.6065631081243428" height="7.78256406094835" as="geometry"/>
                </mxCell>
                <mxCell id="11" value="" style="shape=stencil(lVjbUlsxDPyavGos3/VM2/9ghlAypYQJ9Pb3lZv65Fg+WeAtBK1jSbu6eBduXh5un/c7715eT8dv+1+Hu9eHXfi08/7w9LA/HV710y583oWb++Np//V0/PF0d/77+bZZtk/fjz/bCb/POE4krqG8+/P/G6Ga/n3z5Qx4PDytAZVyHQGZEl8H+EjJj4BAMQKAUCkjgPsRm4CQKcQBIOSBCzGQjDcqxPm6ffLkR/sE7bOjOt4nUBBgr9cd7ZkqsC+F3HgfR8Vdt6+Bshh7h+wrSbD29bq9BHLZ3J8LsM8U2cQH3V8qlfE+hQQQSJTBhtOBEgCwWwLSEc1l5IJQSCOgUEKASjzKJiQqKKi5i6QDYoQqkEg8+pCUdkCYwlY2WXUGdFOL5bUyF0WpEW9Uckkw00XPG8NaGWauRIojNarGDYRVbxxGLYiDYc3BkknpnkFYUyVnqlGiisoL24oqyiXggxKhGh9qV/h2gVS9jAJt/AVhDSrgaAEZREmLvA2rVnEkOY1SmADAB/ZUqwVUkAe2zFipfBPgSIr9AQE+K2+moKIsuN6U1kkIyN5oQbNcAS2mGqb2qO04Wy+UdgIC6qYuWyjC803XUXvUFpRzY1fTEiiIEZRksgc68xPjtI+C8z1Fb+0DuL/vpW1lX+B96pRfD/iwZV+QJqf7CPGH/BVYhuZ4Cqxzc77kjfxaPgjM78w3gR125rNQhOdbvUiv9O/WY4Lnz3pH3dXZqVH5hmr0XK8KeXgfWw9Lz/j7Cm7TI9okPmqvApguxKgDaPx48gApINqprgFwn7S9PvfZ+VonLpPTGSShDX1sAQ5kWacJM4zrYIhkk5blZzXgoL6UPWXjNJMHjTWXXheWIa32QG9Pdb4TeQFEKJ2y5HUZNPE0cRkrF0DsA/o2INkttnmFhuVq5xVdC5E8NYhppLfunWgc1zTVkUttsUV7Uer9erWDBBBWpZq5km45cKVYBLnao1DP0V8wPnDEu2PqLl52fTTvK/nj6EImRkHVXd/upqhJtTSbEGHiBXt/tQcRVWabwTpQRFoTu3JFysh+XgJ7m7v2FlLH+BT4VhGXn7/kS8D5WiB59FfLPprag7NjjjIooLEo9QStHrA8esBytnwxHrxa3zGPAwy7Ahd7JWUFHJWLZbUC0EKnAA4WEJEPuc9O7weY94p2JeR03rgSkianSWoMuaQAs1hfZtBrADMiKcCjsE5doZEFJS5NFVXHMuxDmV6m3ojSBx903wboh8v78f3h8fH8/Lz+v31v1q/Ob9Xh818=);lineShape=1;" parent="1" vertex="1">
                    <mxGeometry x="-8.547236027035751" y="-795.1229057939659" width="2.7609013885042772" height="2.5956664814122052" as="geometry"/>
                </mxCell>
                <mxCell id="12" value="" style="shape=stencil(lVnZTlsxEP2avI5sj9dn2v4HElCiUkBAt7/v3Ka+yZxwT4TUhzScsceznFmy06vX++vn210Kr28vT99uf+1v3u53+mmX0v7x/vZl/2afdvp5p1d3Ty+3X1+efjzeHP7/fL0gl0/fn34uJ/w+yCUxieVf+HP4IkjSf198OcAf9o8n8CJ9OHiSWrbhXbKHZ6nk9BglRodvkiLBq3SPj0FaJwJVSvMCWUYjAkMK3DCkp20BM4iChYoUYiIzyVAnoEkCUSlVGf4GHaLEquaF6h+dzaxjW0CDBK9SKZKJH0yg+RuqipJHa5TQvaODDHaDCRQv0CUQPywqecf1LCXzR3uVhqVCJWYdEr1KI0vnfojecaNJ555Wr1IMpmWg0ff/jesVfRrufYE4g/PkEY0JmJ8qmikSz5lAK+iIxN5gJACx0USJ5xYOCz76xuSF9wVUmndETdysRYZ/Q8lcJUs5/4ZLKZckesflQP2gVQKwgEUfoT47D6jPArgSlXKRBAKF14Y1X1aBKJmoZKyi/tGxUyarQaqvVtHIlbyhlsnuq4BKJCnXIlLfUpOIH1pFxw3JrCLaBd5ITQYJvV6keXylNGbZmL2JzMgkF4wfwAdKCcPwzeOTDOLjYSypeD5xseGhZdBJB1t4KD06DbCFh1Q2MmAtyZFxjz0MK8/LBQnwmTh4eYACvnF8RvzgBg3eQGVG4JaD6xmepJjhU0c8C7iGDsi0oTJ8Q/sXpn+bfz7iE0uYhhVQaUIavmLAFRYPa34f8awSLPZMgL9g/+rPT7M/3IwH1IfVPsNDE2IJyROsYgKzUrnkC+pTyfnvJKTOiNq84CwguIFgqLChhQX0wJ7LApoF6MA2sFxixI/h4/TPyRBF8L3iiNMvVbDuE2DMdmqrQsK8YiWVVfmWZme/CvAaUxtS3DLVkSdUewI0HtZikqArVRqoNKhKJU5SW7OSp5n1hwHqaqWtTU5nhfLCCNVn57MKFC6Q5wy3BnakmbAMaUDVRn68TVaoNXl6ZnMiglY/zSO2puvuBWzQZOXP3AQbDps+MlNJkX9tvolsmNAZOavA2sNsvQFaHJvRAgk+IwiIVitCdOSqc3A9uYF17kYp0LRY30mXFh1jyazEWGaZoMAPfOA3ARj4l5UCe0OffdnJ0qKwsdEqvy8kNsCwVs3MmmD9tR6x5WmYb/TitqkACaTZn29N4zA2mpJstWPECO2IHdGJ44x6YQqMlS4IrBoU7wejeybQ5/3HesUUqnh8pQNCPvMZzYSA3eM6yG/AFdaJlCADDk+RBtzZ3i7Sp541UvGC7rCC44EQcI0TaD0L2GbaFyRVgtQMcDYmBhw6eBWIuPrga7e1LJ7AWcTjxjfQDv+DK/qLcPtw/DXgbv/wcPgx4fTv+OuBfXX45UE//wU=);lineShape=1;" parent="1" vertex="1">
                    <mxGeometry x="-4.42755548664104" y="-795.4275414046476" width="2.9778171886235185" height="3.4765509353088144" as="geometry"/>
                </mxCell>
                <mxCell id="13" value="" style="shape=stencil(lVrZchs3EPwavk7hHuDZx3+4ynLEiiy5ZNlJ/j6DMCAXDW5v6Y2i0AQwM91z7J7ih5+PX348nIL7+fb68ufDX+evb4+n+PEUwvn58eH1/GafTvHTKX749vL68Mfry6/nr5e/f3zpK/un7y+/+y/8fcF5qa6Dgvvn8kUMkvS/bz5f1j+dn7frneSMgOgJoEotM8BLSfuAkETjDHBS8z7ADuDmO4QmSo4Um+T5SKGKJ5dOipcORSK5Q07SdAYkCWSHYjZpM8BLawSgaCXPL61RAgBUEjGr2g6zlXyW6PYB1Yv3MyBKDASwHslLJlaqSeJs1iq50g3cfCJzG1mvTeLshSSJrY9LqEpgPnAjCG7rHVlfiqSA64lBi3F3OQ8L0yoRyDzIen99lBbBPkrsk5q4Oq3P0kjIpSRutr9SmhmR/7/eLR7Y+WMWN9+3yxkxqEmVmzfwgUaQHdhBSFvMkiOZxeMsXr5IYDs4VDtTWOZko3kEtXM0So3mafZaCOKJ2+yK4OaudkQpzIh15uUBMU0XKghwlULMagA/R5K5MhBPWyBUoOY12PcABQBl/MQeIM2A5LhZHYZGisNuewAPO6gUfoc4+yH7oWi7VpqPlI3R3A9gpeKG6O+FBkhMSZIZwP49e7pUUebpMsqPq8gEqhprBaNFlDjOUnec+VDN94QPRhfIU5a5CgMUrGCqfcMApsSQOQ+k0gJhtlJztCCJCVWjmSuZtuooDq6AROsLowsUJC2PemAvnbQ5NBrX1myxCTvoyBj3AUssGSATs5Y4irQNgMmMlQx3AMQPuhSGBlACqBkpagBW9fQrKprVkR2aVdd1ARCzGkAXgCex1NoSS9zTBtAFwGTGAC0joB4AGpqVyb0B6uK4RGLJAGnZgam3AaB0OAg+8wPUn/aNYwDF/HAMCO/ig1kdHadDqfYAcQ1voho9chYreeaHgm1MDw1+pLTEUuaAugACY5wulz4gkGLDekzRvGir44zz6x04p4tDQGJWMsYtAFoJuKWW7nr/vi2Ulvf9Eku4Fq4CqJVKy0pzBO5QaVP5bkC9lnhXQKNtmaUg1EqTW5LZLcnB9KMbmo1LIlZYG1/uZWrvljOxXnSpmPqtGSAOldjYlbE61jvVRmIVU1p24P10b1/BEWn0RffLxLroRqCstoYeMnVto0rb63chpVSl7as1qxBMNVHt6+3wLMfV09CwfhcbAh2euQ+I2FFr5DNQj3OK0rhYSoa5VaKdX8XAsC6LSaVid5y5eJcxZtv2iWw6iXOug0a0LI1rHIXEznoYy/RWmvy+0WRe33t1wjRbP983xqP7riNrak9II+ZBZv+K/aGdMLP8jwVGHwQyzngswzrtOAVgIm60Uzb9WDrWWx++x3sQ7N7pMymKaFQf+A6Kea1PA1mLG9BKfPxsQQatGJ8bJD9mWrdxKeurUhlBeRvfsiGAkbbONAji2Xi4DJdeDUSro+JxrOeojq7jbZ7D1SMNHC1cNGMF6Wixpg17bU8L//78AmhM6yIrpPBRGG1dLDNWkGlJLAtUnJ0prbDr0g9WSnr7fbhvnwcyQFlUItAHBmbROkeEkZ5xuLplQM9lxWIizDbt4z1iJMvUBYbbnuYaq03zfIde87CnKos0mp/ZaCEtfg5Ky2XLjmBWyxD0ker1OdNmfM7uEBaqmVgWlg/a8mgrHj14Vtgh8ccYWDf2CSUbJA/t3K4ngeGxP7D1jP1Lj3NwfoeluK1n6uuwvzaDsimEW1wcpdDzgFjYejZ9dfgsz9azbOPGwG4TQWx+7HAKaeuZmjokTY9Q1hYsz0YDza7vfpPicL19uL228e389HR562P7f3zNw766vCISP/0L);lineShape=1;" parent="1" vertex="1">
                    <mxGeometry x="-0.3308859001695055" y="-795.598512269063" width="2.1174502881097084" height="4.046051849199392" as="geometry"/>
                </mxCell>
                <mxCell id="14" value="" style="shape=stencil(lZbdUttADIWfxrdnpNX+XlN4D2YIjYc0YUKg5e3R1mOIlkSd3vnv88pHR8c7yc3L9v55MwV6OR0PT5vf88NpO8mPKYR5v90c55MeTXI7yc3j4bj5eTy87h+W8+f7/mQ/+nV462/4s3CNUEKnAr0vV2JCan+v3C3Abt6fAxmlGCAJWnWAhsoGyIKaXSCJAUoEeyUltGyAqis4QG2IFmiMFh1AVbIltYLE14FCyFYlJgLRdSITJNolGtiRKRGq7ZzqQE4jooBtI2oFO4BUkAVK84EMsrrmBhIHKGMjUkV1VIphXCGqW5zO6W1pFggITklaQK4G0CKzs0KuaMkCGSE53lARrZlU6OB8dG+TXUFbGfyBoGFG6V8zykPjCLFcB87c/OkNWoPh8hI6MBbQofJa3UdysGtbX3FZJh36YUg1GJySeqzYkr6i53KrBeXbjFYnBjQa6wBofHozmhCHoVZZHTN1QP4HkDima09Dx0whrm7+BBKyE0yc1rQ+i43ofHRBtW4tDHHaEMYwzrym7cXn1ar2AxKvKXLteWuLSODg1ZNsYgRfUc0TWz831xQcR4GYkZweBxmBBHEmRz0x/Bm0AY6garpBofHfpgdfO47HebdbNizn98cdil5adjdy+wE=);lineShape=1;" parent="1" vertex="1">
                    <mxGeometry x="4.597166606644123" y="-795.1978663050355" width="0.1758477440724838" height="0.17638718612614057" as="geometry"/>
                </mxCell>
                <mxCell id="15" value="" style="shape=stencil(lZbdUttADIWfxrdnpNX+XlN4D2YIjYc0YUKg5e3R1mOIlkSd3vnv88pHR8c7yc3L9v55MwV6OR0PT5vf88NpO8mPKYR5v90c55MeTXI7yc3j4bj5eTy87h+W8+f7/mQ/+nV462/4s3CNUEKnAr0vV2JCan+v3C3Abt6fAxmlGCAJWnWAhsoGyIKaXSCJAUoEeyUltGyAqis4QG2IFmiMFh1AVbIltYLE14FCyFYlJgLRdSITJNolGtiRKRGq7ZzqQE4jooBtI2oFO4BUkAVK84EMsrrmBhIHKGMjUkV1VIphXCGqW5zO6W1pFggITklaQK4G0CKzs0KuaMkCGSE53lARrZlU6OB8dG+TXUFbGfyBoGFG6V8zykPjCLFcB87c/OkNWoPh8hI6MBbQofJa3UdysGtbX3FZJh36YUg1GJySeqzYkr6i53KrBeXbjFYnBjQa6wBofHozmhCHoVZZHTN1QP4HkDima09Dx0whrm7+BBKyE0yc1rQ+i43ofHRBtW4tDHHaEMYwzrym7cXn1ar2AxKvKXLteWuLSODg1ZNsYgRfUc0TWz831xQcR4GYkZweBxmBBHEmRz0x/Bm0AY6garpBofHfpgdfO47HebdbNizn98cdil5adjdy+wE=);lineShape=1;" parent="1" vertex="1">
                    <mxGeometry x="4.798565549498107" y="-793.5195446267138" width="0.1758477440724838" height="0.17638718612614057" as="geometry"/>
                </mxCell>
                <mxCell id="16" value="" style="shape=stencil(lVfJctswDP0aXTEgwfWcpv+RmTi1p66dcdzt7wtVVWOC0lN8k2k8EsvDNsjD2/7pdTd4frtezl93Pw/P1/0gnwbvD6f97nK46tcgj4M8vJwvuy+X8/fT8/T79WmUHL++nX+MN/yacI6ZmEeY59/TEVMqfw8+T4Dj4XQDqJVSbeQDlQjlQ27kK1UsL66Rd4FYIMC1Cjk9QYBMNTQAH0kCAETi2ADEk2MAYPKtSqIqAacWoWicmiiAF7I6vQVEoZzWAUlNbG1IDAExUjCAPF+xCAhx1ngGZLXKrQNETUwtoFDx6wBljmuppH4LCKA+aW0oeWbXMqALnIYyAS451VhagJAHkVZANgAlPH7Bd4AI2OoSFbaAjADBkk8B/9i1DHCd0ZrTiN5zWP9n6HvVWSYfldQ9ALinPs+dBchkEm/lU16XV1o4Kx+gPHf6e6A/UylWnoH+npIJcZk9tuJP9lY+A9JphezuT+B+x1TlLoBmZr1HI2W1v8tkl22FHH0KYqCJlrogePRCodglGmKFqiQdTVGvdV1J3eK179y60W1tJm9lZrKpvJH62rv7zEQmL2QC4gVT6ORRdeymnbH8ghZyr7yjavwjc/1eqVzByDPUP1FtK5F2NIdqtbd9X3umRwClZAvQroxqo1b3aNq4zDxfNlkBbcx0svDAp6FQaFmqs0sCTorZRkGnI1SOUqLYGq3zFwqzmmhGkXHCQ4BsE0dnSAYqFbZdeZxSwQvFzWH64BysAGP0xqStADHVBRYXlTdOwquCmmzaPl5FxvuDkY/YQ9XeLygE3VjBMJdLoFqNPOKEpi5b/VHXL3UeLW/k0RribKJtyIvlKNZH96Ji/YPs1cUrWv8gf2qHr3Y1RfEaW4XVH/Hh7t33AwD9eF+1Xw7H47Sp3/5vV3M9mtZ6efwD);lineShape=1;" parent="1" vertex="1">
                    <mxGeometry x="10.3445642108411" y="-796.2983801618856" width="0.4136446414768661" height="5.742091823685117" as="geometry"/>
                </mxCell>
                <mxCell id="17" value="" style="shape=stencil(lVfLctswDPwaXTHgU+A5Tf8jM3FqT9044zh9/H2hqpQNylxNbrK8KxLALkAO4eF9//S2Gzy/X86n77tfh+fLfghfBu8Pr/vd+XDRpyE8DuHh5XTefTufPl6f599vTxNyevpx+jl94ffMY5JxInn+M7+QRCn+e/N1xh8Przf4RIUNfhTKYx9fKAWLD8QA7yKxN4ScKWRAKHX9SkhC3vcJPhMXQ4iFYuoTQiBvY4hMkfsE/btYQnDkQVJ1A2wJ3tc836/CSNFmySUSQMhat2gJTM71CVomsQT9AsiqaMzJxkweJFWEnK2Cq1m+r6PS6oKJQcCKD6HBBxCv4rNr94N0XUiaktEIZKr4kq2IKIP8OF7iW4xAIyjAtIAtmGxtaJRWEQkTUiMhV3XeI3grCac5QgRZidTX9tQj5BUhAKMpIUgbw38d9gjOEgpsj4pnix8p4Qi46V4UBe/H4gMlZAOpzfMqa0EqktYGTHmjZCtbAllPmmht6bCGUvt9QfkpVfRXW3ps+7ZVUwF6uGtL3rBlM2DJ4b4lq0a90eiyjUAlnXBKw8qWGwReuQxNp08TdBj4xpaRHJo2rqpsIWRyQHfjUtaFINAIeupwNgZVBgMl6UhuziFa6QykFFcTKiQaEcG1WYqxbrJ3cMlWqynAs5RqOdosZQ/bkV8OEUu7c7XD9o53semPBY61Sf12BclwiOQ6AJaG7WGH1P3aBnN1YAfPTUNlbFCuB7ObBVAAOoVTi0ctlVcBy8Z+mglSMjyJcGu1kmoKevgm3gBn8qrAxcGRye2ElQJHAtcBsOClNsBePq0HZNyIN1sBqUDRyfqzN65tvD5cr3cvh+Nxvh3e/t9eB/XVfJUMj38B);lineShape=1;" parent="1" vertex="1">
                    <mxGeometry x="22.830100020681584" y="-794.3457959785715" width="3.6171683866367936" height="0.5431827197817669" as="geometry"/>
                </mxCell>
                <mxCell id="18" value="" style="shape=stencil(lVnbchQ5DP2aeXXZlq/PLPwHVYTNFNmECoFd/h65ptzbPuo+A29D0OnWXUfqi7z79vjx68Ml+m9vry9fHv69fnp7vMhflxivz48Pr9c3/XWR9xd59/nl9eHv15fvz59u//76cUiOX/+8/BhP+O+GC+J8H6jof97+0l28/eHDTf7p+ryXT676Rb66kIl8cTUv8tmJJ/LNpVU+uSDn8tG7Fhf56Hol8uKqLPLBdWKvmucryEdir6g+q3/8dNixfHK5gLwUIt9cDCAfyPNTcE1A3jP57AI+3xP/pOpaBvlE9M8e8039SeKVVf/VP9GVRuTFhQT55gOVr22RVwcT/wz5Nd9CdIEpFDEAoU4VzyyOa8YNk1kI+syADdBm0R0DCtaYaNRJ0JK4uAZhpBWJmnRXVpVSc0LCoArkNe1yckLcKlsZboDuGgFoIYNbi5Yeq3yNNAAajYNmflm9VKPzJNKaCJAaNdHkDsZLtUwljwHi8uqlqjaQOATthmv5NO0vkQDU6NWGFlwiRmt/B3lxjXi1zKdt8moykc8uQT236bTj3HZ5refu6YAy9d8jHVA6X1d9eqINSaa7N/lCG3zBeazyjQ1kDdiaEr1OFc8muBiN7ozYbFTKbKbF6ZENkGlOaPeBJFIAc5L2VCkYBdZeincd3iCTaBwC6jZWdwA2CLUQU0AAGySa9wUASnUIQJ9XEgIqsaF3k6uRDn8FSEZAIMndzVxQQCTVo4BmjE4c0K3RjHD6o8ixCh2vqAgQ7lfgSCM0RKfhJvOGxq3GghBaowoIpiA8s6HNivzdNzTTZ3gFKSAZo9mAVgAWtdDWPQDgpUjJ/wB0BDAKoIBs3pC40dWka+SAblS6U3LA3e4XNU5EznAVUE0XYDvMKCBT1IyVDIAxuvMCQoBwt/b5vH3ycZWqqbjKjc6m33de08Bw75XoHwPEcIc0KezpCDJv6ITsjSEHycc3jTFGKwISaTMlTBP33IEtoAEJorIT9gYlGxlUqrOkzugM9tZGbyRKmEpEQOdHlQSB0+xim4Y3b+i0gJTzrW1pNyaPbTAjrtP68YabVNpZ7ZDOlLV6w64i3YnD3Pp3awAb0SbGbWv9J7Qenj/WGFKbaV7hNnmtNCKvVQLyQnOu4JlK1za2epopUvv08FnGwZ5U+WElRMxp3W3ZjSEk7C013z1Frj6q6iN26+w4zeu27R4nRXR57S2lTspxDCjY7opQPhzNYMtttqez+2JY3zAuZAyw9artdFPp6NT+CJFOnm9vCc8eqiS7AaoCsro1Vjp2Up+ka3dCo1dAc0XWZKFnxoAkaZwB+R0T2C2/0ak87GKF3uXVZPCRzDl35lNI1ThHxNldGDKVnz3GgbCDvOd3bZg4nAdrylSUz+wub/zJqb9mGARYKDXShg3tK9Gbhw6cindqpv/oRZgP7Pmh4Z29TgVPrzzrwNSFjzGKhFRQOz4bULZdh0AXFwVEQUBkKsk8h+wA7Ogc7LeguwCYsvdVitZoFgYxn5s8JWraduBQFTxNVAU0pHb0FDYAEQFsgQyWC06ycWoCcEFKpf74k+Vdef3x//fRz9enp9vn1f3/4/dU/dPtW6y8/wU=);lineShape=1;" parent="1" vertex="1">
                    <mxGeometry x="29.19580179176387" y="-796.1591872557221" width="4.244585168532715" height="3.662817728319261" as="geometry"/>
                </mxCell>
                <mxCell id="19" value="" style="shape=stencil(lVfZctswDPwavWJA8H5O0//ITJzaU9fOOE6Pvy80GqomGG3qN1nGisBicXDyD2/7p9fdJPx2vZy/734dnq/7yX+ZRA6n/e5yuOrT5B8n//Byvuy+Xc7vp+fl9+vTbDk//Tj/nL/we8E5yn4GCf9ZXoRIdXnzdbE/Hk439oVK7ux9InHb9i5T6A+QTDlsAyS0760AoVy2AV4olA6gZ8a6DQjOxuCEHADEgaREKW3bJ0fOkEo+bttnJqk9qRQE2BdKwdgz+H5JVAylVMH3ayHu/WFihvaZe0IpAE3UShI7+9hSuGWfTMJci2gLUPsEuEoZROx4jXClqJDHPo2FUICIFBD7oIOqAqhIAdzrOn6ahtjHED0JqOWam8c3gIx4zVaoWhqQpdRKdw06UUAspaaclVblDbGUbLvw6hJiaQBoNUQcQzDq1sQhWoegM3kU88CqYI6GtDE5RNGgC6aE/B+E56mA9jIqu2L/h9JxiSoI4KPq1I6R72kAPrSe/J8tJggxGFNjDwvaMJBLQ5OMmmZE69CFtToLPuE+wDgXtJwdAMyDJ1oA6vQ62fxwAlov5tE5xMBAG/q9YrpkpARcmvMqHUDPjGA26H5hgk4ZJk6nvelh2cP5r/tKNoCCBzRJ6uyLljhgVew+clNRH3vU9pu1orWgoL30nKoW0eRhK7wam3Y37IPxh+EGxrbHlwi3VG7705qACjeqoR9lgQngpuFVQgl2F/W/X/Ci8g/9iabMAiUgIOW/90dXC6hQEtMdcxuKG/b33So+t9eHf1eYl8PxuNyAbv+3Vx59tVyX/ONf);lineShape=1;" parent="1" vertex="1">
                    <mxGeometry x="40.486010041962345" y="-794.3514566855868" width="2.055230578275355" height="0.1457645734144948" as="geometry"/>
                </mxCell>
                <mxCell id="20" value="" style="shape=stencil(lVnZUlsxDP2avGq8SLb8TNv/YAYomVJggG5/X3kyvo3l3EN5C0HnRtvRdg/56vX++vn2kMLr28vTt9tfx5u3+0P+dEjp+Hh/+3J8s0+H/PmQr+6eXm6/vjz9eLw5/f183SX7p+9PP/sTfp9wgWrsoBT+nL7IpKcvvpzEH46PZ+JMwpN4oqT74jFQqpN8pIzkhdKsTqBW9uX748TJSwLySjk5+dj25bOQBCcfgD6cqCzyAci34b4zfYD+IhTZyde8L1/s52d/JooC5PNw35BnChXIC+msT6EG9C+FdLbXMqQgA+x58w9YikTgUQOkPFscRs5eBjA1ByhUkc15KLBRJlMGSWFBaI5jDWa1KKU2R8H8BrxkacEzQCyQCJCIywxo0GhLVPcLZaPGZUDxmVTDeMRlgGk8q1SZKshVtufN3K9KAgC5+mKkkRQYndlXI7X6B8pXjpRmo9XyF3jJ6hE7lRpFELgk3kstjpJwGZBIZ5VaogbiYHTJM+MaQy/FRmEmUCtUAKDXlAXQkA1K1RldKaI4GKdlAaDkSz6XTCUFgRNLvuABCdggW25uAKGK6pJVoeYBDFQyuuTqAQmUGct+H2mB1V51OPEsNRpgXFPSBcDgF1rzBOoAEDgDSPYA1FAMUNUDFNnQfAcyL6EeGsPW888jh6326SpwCjOALtmHumJ3U/GADLKvB2IBwECob6MGQC3IAGWxgUG6GiDHxQZktFJoHhBQqOtoy//J0Q5YcgNxtKuUPCCASmaA5LzEsDAZwHV2AwgO3EoIRipZh4oLAKc3LxwVDKiL0Wg66QRaGBdwereluKIZrgPUAypmnC4ECpjTZWlBCRvt630ZXWwPENgDIEU/CrAG4YZvY0hAgEgcPSACo63JrQDEuL5xNA9AyWeN2iefsRwBwnjeBsBzqA0b4lTa2t7uOLMAKlqLVxvwxtG3/rkunXWxvTExpkUntNpXv6r3ygNyI5YLI5YCN9kv+HS1WQAB1G+vNhsrGkSjPwe0d+4TvKwcONSp+p6l5jc0ri/jiW43lMvJlHxh0gy7YhY/bGiA9T7r2Be2xazCQZSj52jNcM/irR1s22iDpY/r2Eg2AI+JaI/UZa4zVhcUqCSbxhsgwdlBiueDrcwBRNoUaDPjcoPzT4njVrUBEpwdyrIrJjwlmhPDbIOVBRRpA7g49HMOuv+wr5UxwtWvZN+oFdLBbObZZhn8uByFZZhhOHkL+6glWLr7RdC5lOI7F0f//HfYvFxw0cWxXyj889FU0kukvzgW4P8ovspnOBDHhZgZXnzFD0m2JaOms7B4rDU74u6cXGDTjL5B4ZEw+ConcNsO/uIm8GgY/DolYwDdEY/ixBk+3ZkqcK5bVmaGd7PgL0h46V9mFYbD/vLSgmGNCv6Gl+E164NvXN4Vtw//Xu7cHR8eTu+Gzv/vXwbZV6cXSfnzXw==);lineShape=1;" parent="1" vertex="1">
                    <mxGeometry x="44.31263737563518" y="-795.9573252395135" width="3.4493605643594263" height="3.454201592953882" as="geometry"/>
                </mxCell>
                <mxCell id="21" value="" style="shape=stencil(lVfZctswDPwavWJ4A3xO0//ITJxaU9fOOE6Pvy9UVWxAlZvJmyzvkjgWh6Z493J8eD5Mwb3crpevhx/z4+04xU9TCPP5eLjON32a4v0U754u18OX6+X1/Lj+fn5YkMvTt8v35YSfK89TSgspuF/rCy6U4583n1f8aT6/xUfKYgmOXBgTAhNXQ8hM1Y0JkalYk1IlD0xKQpINIVZiPyYUR6kjqA+AwBqlaAjBka9jgkQK9oZKMY/xVbagb3g1CMRI8VU6PDxfr7d4T1wg/m8AWw7ICcTXYFVBjoGKXPOvGaRJATJabrARUiUyNomtSb5sShwRUmeS6i7hJFhlaxYyMkmznHpCBWFSgvc9IaC88c5pvROFlXtl+0wVKYk3AxohkCCpKsHeoHEGtab4aEunwOpXfLFpixSxPdWe7zcDRzmIfalBe7Qb9aXskb91F1DyWNfFd/4GXDjCXTxRv14KzapaDcRlU+35KoiCHRDrgEpOcPPKO1EnTPC7dh1QDoTKrpIrqjMhdh8hyG5s6sgJoPS5NejWgVWnoBvpUOsI2UNhLFO1E4YqDxB0MNfd6BcQ1iDbeY3QxDVaLsSGtQZi4LSn0mnP4cHpt97QLmjl8V+8ZjX1eAfy7PriXNoT6BY6trvzMxV4vu/wbdMY4F3XfHVEYbyNj7SJMsJb0Una5vQAH2x8JFCE53frqbh34s/WXxYKoBn5bU1peIaLzofX5Xfx+vBvN3+aT6d1tX/7f7/L66v1OyDe/wY=);lineShape=1;" parent="1" vertex="1">
                    <mxGeometry x="54.78527857216568" y="-795.4146968967883" width="2.5442061295572174" height="0.3363403007339396" as="geometry"/>
                </mxCell>
                <mxCell id="22" value="" style="shape=stencil(lVpJkhw3DHzNXBngTp5l+x+K0MiasKxRjOTt9056zFIx2ZUt3XoBiiSWRAKsh/jmy4e3nx8fgn35+vL82+NfT+++fniIPz2E8PTpw+PL01d8eog/P8Q3759fHn99ef7j07vX75/fDsnx6ffnP8cT/n7Vq81VG1rB/nn9JTof//vhl1f5j0+fzvLeRU/y//9wU74UVzrJ1yzkg7OwyCcXy7V8ri6VRT670IV8cLUt8sVlsf9UXc+LfHWtCfno2mrP7pJdy8fu2mpP751PQqE4vxrUR2fixBF/rzvyWZoUO26rCzyMIFaACcuqEGye6rbCEQOHQnRFbclcX7083Ca2hB231Uo4VaxCITtPce1dF4ngEUhxVUjS095cXc8AV1Zhpe7CaqTYZmzdTk0XVz+nIOWxOmVacl2EdnFp3Q9yQ6VOcaGumWkuichGYJN8dEk+36/7z8VFuX9b95+RmgoqZtAfSBFcESEE+bTKZ9e0/BpApc0nXMkTEvmZqFf2X/dTk8tSnlKm1okcF/FW14ypsKc4b2NYad4V4S8kDAVQixNobisgAVeLNpxJWBQokVeTtiZDbuDQatPWpc9QvQqVA++SOEPY6nEP0kqAd7/CSo+zxN1W2KCxJ9cE0gFGMinkWdSvamZYa2xHZopDZ+9yYYWsUgGZlbcVROwVYzCFgilwSS54PnRSxKU5i2xWBRfI3kRWitLTSF+qOAgNdWjkb6EVTK7QULZXPyAfVCy1o2yfM06EBv6mItXSLIu3Fdq2AsJRoNI4IoGASX4EI4YVl+rBKW8rHGXpBKyykEfX10PD94pQ9ciEqvSZUldnIBYJ3h1FAgGFjGiwLra7H5BSUaBGyxx8oOoqWuFX4qk5TVdehTexSJD7IFK0Rk5RMBKFS6Uy3KcmKQMYQltXABbanfaFSBXKvPBD9mxWKCggw98US6B5XtWHzrwHPU0WjgPvjZkVTBXFMCPnUPCyiQx+buCkoHJ61GlSMAkzUKAaBwWVQFAg9B6dnLASFEpmBdUv4NC2ngH8X7ZhngkZFBTchwNJTwoKW0evv7UkCirDEWrnFdSWEkPlaHoECIAVE+eDWYM6Q+a2BwpFoMZQIBCw2XlcbmmLJZVA4ei7TgpdbSnNGccpH4LaUpzM/JxxynEgnX5TUFvyXIGgoGAGCj7zodVkZSTQZtakFXY/mLKSMQ1FaGR1aNuitevQ2Dgfwruq0NjIyUgghUtx1pvvTdE46815BR1LP6YQM3Nv+EFF6wB3YwU1yUjlRvCpVjRHpj9ocqJYIXcee6LGKUaG3p+mGSi7KpaqceOHU6lBYC1cH0BOFNdAux2JkZnkSyDr1FqCYCl2D+5N9WE0aproUksDQ5tw3OgLiYbCcWqFxqgxpjKKrPdNATkt53rG4VqDpDNYgkhfzRLJcIhAK2gUgJloKg7nqxxFrxpIIc3py1UDUWg4U3Sr2Ljuti4LxGgg1hW6LnJoIOI2CVEKw4ikkGVPU7cBEwyt2Ho1hm+4UlHjspENKKgMKp6noP3OVLNsk5Auh2QACZoXnSL+quVo257UKATwTs0lTq1G0Sgp7Lk2Ef22wsbve5VtE0gctRxd4wa4AHsuyQ7CF74PQBdflcJxz3NKCAX4ndusppGsbOPTKoM1zX7+hBkqVsM2AA4SxfyGGDYb+JvyW9M3BjlSnvaP/FZzTZv1+DsH8MYU4M6A37jc3rlAML6yunNBYUwN71yA2MyQQ77IpmGrg6BZauKzP9/uPZ9IW5WkzXhOBwqmZlyewRosUqF7YD4VNcyB7NBVuL5Ay3x3ANhTvKJyfsXguohPb/Mq4lDQDvCRB/tjTcWNtsvqcT2vXNA4h791QFcdFXUjvssVwnbRi00qJh8a985ej0phdcp7r9uXWDby5YrCXWNmVOQ7FSkzMcpyejbSkN/ZkBefW60MMoyK8ZTU68ubPMN4ymt71o2xmGyBwQOJEml+A3m6udVzhdqZfOgBEsqcZ3mV9814JqznTegFjM8rL208x6fXfaOfU/Vv8mqQP56/pmSQ9m/bLWyQsynI50DyauJXtwm4bntrZyIRp4Gv4ufH3rm6K48P317wev/08ePr+2Hn//mFMPz0+jJZ/Plf);lineShape=1;" parent="1" vertex="1">
                    <mxGeometry x="59.60144520453514" y="-796.9162319181762" width="1.8690050276055044" height="3.3855778585920886" as="geometry"/>
                </mxCell>
                <mxCell id="23" value="" style="shape=stencil(lVtJchw3EHwNrwjsy1mW/6EIURbDsqigKC+/d8I0wEGiO1u8kTNV3VgKWVlZmLvw7vvnD9/u77z9/vz0+Pv9Xw8fnz/fhV/uvH/4+vn+6eEZf92F93fh3afHp/vfnh5/fP348v+3D92y//XH45/9CX+/+IVqgu1e3v7z8ok3Mf/3wa8v9l8evt7aJ+PSYh9MacLem7TaJ2PTub2vpubFvhjvhH02uS321WT1/GjqOl9njSvCwZtWVgdnahQOzriwOgST/bmDa8avU3DJxCAcypjidMAiKYdsPDk0Y9WQsMsUFdYU5RDHLk0Hb7xYVqwJOwRTxcY5xCUNKZkgIgPb5OvqULUDpkihbY1Vc8DXcXXw45NDhzaWZNpHeRiqiesMQpYDKnwWcLr/38dD+2zqah/tiN0Te0v2Xp4dhDHZB9MEuETT1g2IaczoxD6s6x+rKWK+kcef7Dh6x+BlGtk708T6wH6N6TQ/ObNf4yFl46oav6PxAC3FeKLJ6/pkZ7KwT7yeGU8Q48+bfZHJoAwcnNjuLs6LW+O/RJkMcOTtihGlGKdgy494nA5N4xyy17rF1Y2gPcNqwrmKXRcxCmTO6xxqkpvWgXZd1VpkFPUUuG5brSNJHzsUk9Y4rW1k6eO4tiauDs3JfBPCiLPp4AfPOHbII1lMhyAdgGx+zcoNsSRiD1AV11VqSQZfzJtDlpOObWT5G4csljV55moNOy2GlBInKDgkEXwJXwd2UNwlIRD89gaxD0AUoiIXk87ZlH1ZVVLDslIs6Y0rnglbDw2VZiPzLwSfVbhXmE41zSGBQnlFvmblslYQj9WhNjmHOpnHDQioaAUKMWrkgVTHDoV3Go9QYIwBMPIFk8QqYYpt3bgOxmLSWHVPb7CSErbtxBVApXII/IaS5cYh1CxloCjJPxzKGt5lMuNjh8Q8uGDSapXSOJAzrderN1AWxaEN4jy0SWNviEZSk858gLI3ReS4/oZ10qA+7mJIK5CBWylu/opCN+QtqtBIG5uMo+A4dSB6qGFm3wfw1ShO3O6AnKSqZzhQ2o1FMnQ4JKLoaZDSMwfah56I1RwiF1XRDY52dkTj+oaugYgM1EGAyqqko9VtdZ6XWbQD2Tok32ShAagkruF12gUY07L6JEvDTjrXnUa1YsUqIaGwkOR0BvKcUDr1FRsHcA/rHFzVabdxQe+yfAPA3dGQkuQar+B+o/WoWAK4U8nd1SQ1h8DI56wmJ47VpCpjD3SJKN/M28f2ZQDvRNYBtcf2iYv6pDWGjZggsNR4LNOMMMLkmLFmLiq91CR6CZ/YXnFutx0cWe8BcSmqvQwIlBk1vMV+E0mC1JC6xMTrWcX+AgsZTuV8Q+SK4UJA3nBFk0KUko2frxI/7Auvf1Hrc2AflCa0jcdpTShuarBE9rAL2mPBTveL7ZVa0OOB5OxBcc/sqZR3km2GwkzNSQoCeyrv/BjgmX3i8ygbHIVFV31+Ye853uT6Z96vIOWdsGn3QZaOYapFN+dRxdtGuC6eH8fy/eT4I8dPkCVXP1+F1//Cfmtg6fO74afSIDF+ang5qVfAnkTOi/hPXDE6qVa81T5OOB72VutemWmZlRSo56/0BnvkR6pfrdQd0ibaW1mXIb8nT/aKb6TGGpmV5xd15PZ8VQHlwHxJ02KUznbDN8V/KsdDkHjYi/91/FpTL54F7CTzUdn2q+ieVeL4rFKBL4XVCRDioLU0klmdVomq3Tq+uoFbPcvdKBu8coisHbiZFc6qMSLpKH0UytXMYsNFWKOiJJXIexkXqFkTvSHqMtqy2IDKoei6m9qHvYF6oaXRUfASW1oaI54OcbC1M9GHgg/pX84BX68bF63W0iqns+ilFNAaqxNR98XhUNcDHYtk1M5aXtcLmejA40qJaps4dqF1tU0cu1DT2laHXuh1m7rcFUG1142RDLklK6G1capFclG4AQeuvb0ka3CgGwG9o6vnQECDfHQxB+pJIyEVNaTKc0BGquoNdesC64q9d6BIIdeNh/1UI8molNIV8jX4kGQuVP5IvRDQCDWHwG2BGqQM0tx2DyrKuh1wzL0QMCfh0DVHGlLVKSUP4jsdmiylMGK3tY0V4Ndt0sgZalmxTUTmm751VDL3pLD36spL2eQBRJdC1x791K4sch9yYajECVHYmtMQKKZDk9gKUOFu/OxHnnFoVjXtRRWwXYt4zQBnZQCVGa1JvEfCoUsLcPDqck1lYt+hSt2u2a7LwEF1HpDJiWM1fT0lbLVJb4Qph7QdiCRzFggSqU2dRKn7lo0zO46cuoOEcoHSaNOCVtfraB/skOWPHewGrvoOqNvuyXW6rO5PJk5yNclV6veKqFnuJRqjhqnUv7ey0VxZxUDKqgoEtmu1ceDO8fFhoCzzPB0HEl9Y6HWpCDzPewaUUmWr44ZX1kWc5S3udb4Yz5YNwQ69wKOd4AZ5JcqyCtZ1EPl8SoWg3E0cArtdtdTJ2W6N3Cxp29ZVAvqpto/brpYGSam2a+LRDR32JN5IxQBWRiVrscr8qiOf2BM1B7QqGS+NnD3tdSMwb10NLRPmrQvV5PoUTma+SOIPkk3FeZKsvDKqdxlJ0U3Gt95mkUUnF1M9BMUEnOMVumgn9xvo1OzVEOoiK9PIC0qadnlctpsOUV+7r0xynL5g7bdbjV0Mu7gsympbEiPqms4aR1ny5f5zjHVRk+zG9jzG3V6pxlum10Gqu2G7xenkHofM91Ws5Nawb6xmy+5P4XOv1fguL/Hz1Sl4vfB/Mx71/Mp5eCaSM/vC66PUb9g3fr5KY53xbmq56oa07XqEvODan8/dTNl9rgMFf06ND5W7P17C4pt/fnVpjz9ef+v16eHLl5efit1+z78Nw0cvvysL7/8F);lineShape=1;" parent="1" vertex="1">
                    <mxGeometry x="68.92821717578931" y="-798.1368473500818" width="3.214706704718585" height="4.527216935732222" as="geometry"/>
                </mxCell>
                <mxCell id="24" value="" style="shape=stencil(lVrLchw3DPyavaLAN3l2nP9wleVoK4rkkpXE/vuAWXM0bI56rNtaRi+JdwPcS/jw7f7T17uL128vz09/3v17/fxyfwm/Xby/Pt7fPV9f7NMlfLyED1+enu/+eH76+/Hz7d9fP3XJ/umvp3/6N3y/4ZyqqHaY1x+3P6mk9v8ffr8BHq6PO0Brktwk7yVFIl/FhUk+izoinyXmSb5J9UQ+SfSTvPOS2QFRwqyAy+IYIIgrs8Zms0wAXlydAZGf4CTONvJVlCmt0uIECE4yu5JKmU8ISRxzs0qGE6qkxAFzHEUnRSngZ5xtgCiZXynNZo1FAlcaAU0K1yHNnk5O2skJAIii4V2AJK1ws87RmoqUE8fBCU0iB/y0yZagjmeoSp2vlP0w9JsAKAFRPPdDnYMvm5VOAHBCGWb4VUCTwK0EgOLE8RStc10qXupJ8M35UKJUnkBhzriSaXjXtlypSiE6GMDPCVSVn2DfN4dG9WcAN1+pRn6lMrrNBjhROo/I2QB2SdKwDJCgAW1J+xYArGQNwJN86IBZaWsx5QQAV7LqzZV2AMi0CNSE5b4VbqWInrZGX5iVwrjxBmiUaPRQm3XYcZVDRClSCx7BUq4n2ALwRGvLeSjfnd4Qra0MtYCOYI06B6lzFWg8Iay6J7Crp662DtXAc2ZWEn1Jlxwt1HMxiZ+tZOGlxEpRMeWsbLDyHfL4vl1hisSswWP0WemLJDSMgGG9z4NCHQPSSOENYGYgVvJhWH1X7x0Jb2OdEXQIlFa6MqJ/14JY33UJqbEFfCD5YFS7zo4rdkkG0MHYdn2XjQ8FrZqrZOIGxenEmAMrAYrc3uRZfuqgRjt5prAOOriT98RnKn6hSo1E0cK6TZ6NS0btGsoz0m1jRVrkib7+4P7Mnh6LvMmzdh7G1LK3D7FnkLj4l+VMwJHB5FkGmLyifGKFaLFPom3TI2XrTJiVIeSEOdOBxI3mspcn93dYR7s8iTdd4sfuT4qcYuvo9qH5rsukkOh9dPEXq9JWH5bvZ/ZR3F7kjWO8Id88yjN93cH3Z9bHFvuc5e9aTwrNF131pfn7Pnm3kI8+2ZEA6tufpWOwDmNND7Y1mQ/M1lYjDGo6dlDHgHYwOwbmNI9etsYdiBeMfCCXsMLHAAW3BIXX6aALvcljsXcMiOi4Ts9ZJa0YqoVv/qLHWl23aD8GFCQfNsUwxyW/ENk88vUYULA82ggdCLfOblTDjYw7OndZuQ0wUNjEQE6w2AwwnSZaMSwQgOLYyNIYRctIM212ZIuLuuzlGt8tml/BcXZC5MMmlPk+/5J8MADO8ImGtwGAjPcZng3MAetS3xIwK0XMaZvTItsSROS+lXPlulQNC2/WHGrCbm5nsl17X1zMfuiDHbtSHkbcDXYsWm0UBUJVTpS2ygd1KdM9tQFg3WkZUkipNADk9Mnm7wDAd4sr4GR72XUA2sz3owcAvoE9uBLf8XYANHa+Re4AoIZ8T23RD1zjZBO+LiNPdu0dACfwbf4BgL8XHAD4i8QKOHnzOADwV5VacWQ+ebfpAHiGcWcAP/shcApnAJh6+usW9wOUyv5+xmOpzflgDIo1Rev7UMh8PHvSg0nMaCM7wYgCtF1jsmxVYP0GHg2NK7Muah2t4VMsq8XWMvFxi7945MFcNhvRXYo1fWjSyl+2ymDZr/KB6bsQe+XPVGU0jld5tpVvSwVTuhY1VuQXeRZCFYc3vi83eVhOK3/425bjO3mm7/JTAaWcqi05o6MQvCXfUF+2q+ny6F+2NH73byN+AWAfXn+K8eX68HD7Jcf+//GnG/an288+wsf/AA==);lineShape=1;" parent="1" vertex="1">
                    <mxGeometry x="66.80521855775442" y="-790.9280220682851" width="2.895417131828883" height="7.276055875873184" as="geometry"/>
                </mxCell>
                <mxCell id="25" value="" style="shape=stencil(lVjbUhsxDP2avGpsyxf5mdL/YIZQMqWECent76ttxrCWk+PkbQk6u5IlHR15w3fvzw9v201w78fD/vv29+7x+LzhL5sQdq/P28PuqE8bvt/w3dP+sP122P98fTz9/fawWC5PP/a/ljf8OeG8c+TcAgvu7+knRyn//+HrCfCye10BaqXS2zPFCOwT5d4+U/TA3pHkzl6gP5La55u99+T5MqDo+6QHRHIVAPR9oQcUcnIZkAOF2gH0TBnEkAKJATBl4FKMFPtDDeoSyAIXitxnTV0CMbDG0AfNTOIuA9SBknpAIQZ5CJFK71J07RXnAYG4d0mPIYBTCt7mIaqTIOgw1F7ysFgVkEsPSOQLBKTepSRU8RdSf6xaXQnHkPp+yJk8KI0F0Och1+bklYAS2rldC0gkqDRGgFCcBN0DRGvpphgk4PJ2tkUlUkYxeNtxkonRFwI5AygkKHHBFp9UCigPTKGvJSXbHCBA+o6rvh3DpZ7mPobKkIwVkH0PiDjTCjAxJKqINZRmTAwF93S2A7EK5CX2lIoFJARgWxoKYMTe2RKZAjxi79oqZwVAIyvycEoKALWkTJr84BKopeSGWhIKIOjErV1WgIi+EK0yUUAGeVCAoXsFoPJWl4rJdMVBe8veCmBQfPEjxBUgghjiWN61Udt5gGvUuwaAGHSM+3yLS/whp9ZBA+bTBqpxOFYEcK3l14kDY1e/EIZqReyt8icPHYdYg9PArVre6AsyMJ82ECqNMJTGpEWVNWQAIFVZ28xcu4T6IVg1sxAZEro6H0aqBIlTwJlMg1NSQBhaFCnjmwFM1awPnyvUWYCzgCUEUBnDQjYZWGpvAsAT0dl1ZjJynd01JjNd4zX2WDSoUDL+T1QJub4kZrLHtvJEV7EdthPhxpZQJ8pQC64/n4n0HO2xth3sJ+J5tMfqfLTH8n+wn+wXoz1eYKLdVCcbUrRMPVnBBk072fGiVUaTJXKguGVLRSRKte+XZQ0G56OUbLZg14TS+X70dtCoBAiAUHyyHa8KtyCJ7VtCV7cRsIXFAlSlCxLAubXg6kYFqZyYbBaUxwI4JZ0bZvvymSpom+yHwcGQp7PYVccrtaKLKmUiw4xt0bh0E+b7ysjwxkZ8G73XXf2pvekEfLWo9kWMPfJfedMsXg4StbDdihyUN5Io2atRJEt1rkTrv0P+V8rWHyQkljlq44X20d4oYH+qbr42Xyhe1SXZxovOU3VPtfGifC1XzdZ/VA8332VfAdCHz6vzp93Ly+nmff1/e9WuP52u6fn+Hw==);lineShape=1;" parent="1" vertex="1">
                    <mxGeometry x="71.08521245136785" y="-790.6592204324548" width="0.4281741455687316" height="6.975564931366474" as="geometry"/>
                </mxCell>
                <mxCell id="26" value="" style="shape=stencil(lZfbcttACIafRrcMe16u0/Q9MhOn9tS1M457evuiqnIFsv5M7uQ13yJ+WBYN6eFt//S6GyK/XS/nr7ufh+frfkifhhgPp/3ucrjq05Aeh/Twcr7svlzO30/P0+/Xp9FyfPp2/jHu8GviMuUyQpF/TwtMPf9d+DyZHw+nhXnIFLuxD4Fa2QZ0v9YsIMQNAI3EvlGsJGEbSIV6MoCuNOAhZ+o2hlwoxW2gqEjVALryz+ddoCaSbABdKX0baIlCNECLxADokYqVtWvieBsQVV0MIIUC8KBADR7oQCUFxMYglSoAAjMxW6JRxu/kUi2dEkiEAtm9E64+3a9nD1TkofvMjTqAE6QhproCUNA3FRdAQx7qSlahiIBCJXtZCwbSKnEN1YYCrpgqddA2xleqHmDkQf92paE+sUrVniDRQ11h4nLwwHulsfJQBRdf9zHAoMU3plE35EFW5V2hSvfPaMAuxMnUiZGuMrfGBYDuoPEI2xti1AEf6tQ80BHQfO9b6LBVTX11qmGB11nFZRComj4KNPF9o2fYmRpTsDG0ShFdc0xida3aBkCqS6BkM1c6vNtzoGrrNQts+ClStkDSZgk86ADkGk26RXX/RDSKbj7RyxtkOvA8IN2KqZCAGG4X+U2kOS8b5tmaa5MBlapJdtMSLIrV8U+wJNh3YZ1TgPpM0e4e4IjBVKIzR61IE2lTy3PLv58oKuzMI9g9UvDmqM3F+c5emIM0JT8l8DxnbJiLH+Mz2P2DU/+75vrw/wPj5XA8Tt8ny//9B4kuTR8z6fEP);lineShape=1;" parent="1" vertex="1">
                    <mxGeometry x="71.70279721835914" y="-791.2637528250257" width="1.5056314543858365" height="1.3221921336067024" as="geometry"/>
                </mxCell>
                <mxCell id="27" value="" style="shape=stencil(7VrLchw3DPyavbL4fpwd5z9cZTlSRZFcsvL6+4C1xdGwMdPcveXgm7xGD0mAABoAL+HTj8cv3x8u3v54f3v9/eHvp6/vj5fwy8X7p5fHh7end/nrEj5fwqdvr28Pv729/vny9frv71+6ZP/rj9e/+hf+ueKcSbWDvP33+oNPJlx/+fUq//z0spOPJpdZPhvXzuWzyQ7lYz6Xr6Z6lM/k+84ZVxHQPAEEky0CKltBDqiOkBMBVBPVCq6cA7w1Kd1jBO9NAitEE8ih5b9xS8FYcgbZQIkzwJnMVti0PgCumczOUI0NM6CYQOzgm3GwQjSFbClYY2ctyWWpZEsCgMvXxheO5Z0JeZLPxpMTiHydb1IwxRJ5b/ws70whRhP5mEHesvN6dH5rCvFNkS8Z5CPTj9wxB/I+UvlgQZ7uP4wruZNn+gympXvko/F4XsvsG9GP5bzMXtFUPG9k542mKXsx/Sfj5u87vn+RjyAfmb0Ovl/Y/pNJ830QBTMHTmP5IV/4/ZSoOevfeRpSBOAhQlTjAgdAeoo0nXUVzSaTINP4Cm4+QygrI/hZSTHwsJiGTjZAG2o4NduspRRXaq3zoVPlh854huxNZWqVDAwAoRWOAMpgKRtA0hPbUsFcUDx3zmrCrKUi7srOUAft2ABlxJtjgJhpVmtpPN+0wSIGoLqRUc62VGYHrRLSuOHcHCGr8AB2WyOeoRaT7sqBAihsS1ZtqYy0e8wrimlNAcgKwo1yumuFgNe7n4FRHTuo0x7AKadVW2LUwolPewQwuia02WoAiRpOSK06dKbM3+sj0MoCkkOtg6ifyEPyr43GmIbkpYnzMJW68bkN4ClldioQt8BLl2YSrJDGJs9oPySTligDFiPAxWt5XJQbKVtbBABxlTlMtkJJUvTqDLxOiBlztABYjpb017ICkBVSGMXWDsCCWNrqgv0K5NCpDeK7B5AVssMc3bVEglgOWIss7JAT+o8AHLlLuWBF2AHkLklGxvKrGEsMV1TzogOIlkoadfj+thIH6hlZ+UNjK7RBEm4ESEaGlLsCBHVbFwDtDwuA6l8IgPH6ZkeLZh81yAoSGCE3SFxidhC7opYCbTu1ik0bWZOxMQGgA3kaKlvDhNhXIA4kgBjUGfgKJSGAsTEBoIvKZaE5eiuANwSvZ/oSCsDivQCgYSimDnwFDK6JMhOxHG4pjRxzBoj69rHrqhiiAFjhLQDoegqAOsQWrHcARmY+Yu/ODqwp2QEFAY7ZoSg7BNqJ7TlQ0ZmwUGtBgCUJohtOOTVr3QoAyYbncaYpOhNoy6Rf74wAlqgPHCiMtHeHj1K96jAQefxu2NeT2+d5oImKVyaupjsBQTlE5WzdGQtO3WiwlCyHZJrXAwd5tI24cGOm3tnyRjKwQmi+sUQoSrNEaNbURiPyVl7WaIA9YH7yC8kqB9yy0St+wF7b0PWt/LjRAHvAwNv45VaO35ZVhAKw1mCvU9QZ6HBPR442ulqntZZVAFZreWwZdwDvw2FsarxpHFS9WCnz85oOVD7q0lej0jmRO6rm2KFdPCjDWc3r7HCXfQRnLjoK3F2KYDFATR46hWdWUCHD8saDagtW2grxBw0yNs+MqgPHSWXG4aTIM7akyo0a6XkPumORd/h0/y2OEe1ph09tiTVOD3qIkYbI3qUsCGAdvt4HDQrArJywzd/70ewaFdXki0PRZ91imxWA9aPdKHd2ADqfUUM+AdApXEZiUj2fMW09jN1cgDH1kLFeF1LA7pIAoBYQTkDHLQnzc+HEWw+lcqPVdJ+FzmrNmQ90NrtugDAo4xnAzbc1LZ4DBLR0iqv5ODxFiYtkGLAA6rM+pqWAA87VNFGNKlbzyoCDtdVENKBaVzPXgMzeeVpiBa/8gQ4S+rOGOWhESnp+PrP4+cwCYtf/65lFVG+3VhkK9B/5lDjg/cy0g9FjCnB+rk+PhFwcno58HQ4zhfxQDckFAECl49L+9gyinKP8WkJOnqPc4q2XUJ2q3gAyq/ntlccGyLR/ITuGFPvxBO+MEFYFYEncZXx/I3pjkdqpyOL5o0G3JaMdgHHUOnpA+x2xKh6varc8sYIasMqKlGQji++VA9GQHV/b5AvtOVlMTSJf6fdh6C7yiVyiLTLv5NnbIYup6WMMfyavns5mYl/1xNNn6pcWX5OIl7FWlkXC1R/GEvtabAeLPOtCWkyV3euZxyCf89ubtxP5+553r+Xlj4+35N+enp+vT9H3/49vz+Wn67v18Pk/);lineShape=1;" parent="1" vertex="1">
                    <mxGeometry x="69.47386937197848" y="-780.7707844320557" width="4.080093757551545" height="3.838358281686692" as="geometry"/>
                </mxCell>
                <mxCell id="28" value="" style="shape=stencil(lVhbctswDDyNfzEkwQf4nab3yEycxtM0zjju6/aF6lIWQWnd/MnyQiDeC+747v354W2/C+79fDp+3f88PJ6fd/xpF8Lh9Xl/Opz1acf3O757Op72X07H76+Pl99vDxNyevp2/DF94ddFzlGtk1Bwvy8vCsX498XnC/zl8LqAJwrOwIPfhntPkjt8phq28XqcLAafwfdVfWKDD7KN50Q1dfhEJW/jYyRxBu8LcA9T6u2NlIA7c6BQOjw3hav44pr6K94Bf5ZCrserQoCXQNL731ME/pc5WxpeA1i38dWTZ4P3IF41NvVXvAP+qWX8fgL21kqOjb0Czu/drP8aYFQAqkD6hFOPIYOFpDdYS6ggBWpxn3E+t5LecqmpeM0hj3wamoVzzqkTQNFIJd9r4EKZgUAm1zspJspIw5Cm6UbdVKp9nmZPCXhJC4dNI9LIgMov2hl7DfoGddLCNrVFay0BgUDeCOTW/dYFvG0WVasT2eCIjUAkBuWT1a29lzTfA3DrJOCtACpQFSjRChRgtArE4UiopFXAemm2al1AE8H0DIe7kkqkweqKjBAKPBiBNfwbAwsBNDhzWQkEI6vXBDwabXokIyDtE5tGByuAWt/kVmcF0o3IDRoS0lBtc50EcLrGYgVgHOZsXhoNWt9UQYPRFRT1eo3iI9Wh5FBjytWSpCn58JHSUHKCcqk2VrcsIOQlsTzvP2o0jzWKVfAgIMhNWhCDEflGyY2BQEcqQ25USPc+LiBDd42QPKxEzuEp52zrE0zpdcql3ks6Rz3SwHbK6aT2aI4m276nzoMExLJuZRsBEaBhC1M+E0EcJDYTF4wJeUmJeug7mXKyAEpOwxR6DaFCTqY0sfYadNcoSEOyrE+ZawaBq7l19wU3RhRLubHpxni5VbwJdLx1IOPU0Gbe5jbTn0fPj7elaLcxtE1qkM2yEdp6s45ny1kDnD0jKWY4b7WWIxt/MqJiwQ70BLdDLZJit3l0u6DbfLW3CwnYy5l8zxfmZWvrNiJng0fbsC6npT+PtJLYuk0xbUIgZ0s2XJhPDeuCwEXSWUIokDY76xuBFHhInZl1b8BNJqupYCy5NrSu8AQc7yy7ljZCtuD26yiNFW7PjpiKa7T7mmTYM2xv7BDpcLYECywRZ+krvt744G3jTbg+XC82nw4vL5d70eX/9iJUX10uUfn+Dw==);lineShape=1;" parent="1" vertex="1">
                    <mxGeometry x="81.70560585375006" y="-794.396179486362" width="3.666129424842705" height="5.1088763081769" as="geometry"/>
                </mxCell>
                <mxCell id="29" value="" style="shape=stencil(lVfLctswDPwaXTHgmzyn6X9kJk7tqWtnHKePvy9UjVQBMtfJTZZ3RYLALsAhPLztn153g+e36+X8fffr8HzdD+HL4P3htN9dDld5GsLjEB5ezpfdt8v5/fQ8/X59GpHj04/zz/ELvyceU40jyfOf6UVtFMO/N18n/PFwWuErhabxTC738a5Q84pQPDmwgE/ERRFyphT7hBAoZEVIjbLrE6Inr2NIsiXuE5KjkBQhRgpgS7KB5hQhFHJgS7nYNAQ5Vt8nlEgpKIIPVBvIGxOzIrhKGaxQI0Udg1ve3CZUYp0Hx5TACs2R00EX8iANbVN7TL5AfKkGz+j7jZzFoywL3uTA4f00qjoFnjLGN32gOAGONznOFHDATeMruQTxWSegUQHaF3zQByoV0TDBFqmjDMxCUpw3hIJryHtLgDGXWVarGBjFUCgnc6hQBcVWUaYCsjzitWoiVYzP2k8DMd6PMWw3b7B7orpKmSIwojFlyeDhfqQmLB41HMFHb/ANi6BovL/3fXM+YZb1R1WZ7speBywZx6osOsFtzkj3gDYVjTrB6IvG5xxFHMEnCVJixigWFfV6TTJWynMz6XWzqruZpA15l/TLaFYQYdQ+QTqyrYsA20EW4ZghocFE56XdLcqXyQhITeYWU9pJahUELZNR1lrO2E4lxGLMSzwfuJHUvlFnyXOTuC2fOrewxU7x/FitehrPln97AbuhsU1DvNPfXwn8JkEm7LpZANTFIsYVHk3kbKeice4BKWBbduL4BZQd23m8ZWgXG7traR7QP4iP84o9vK7R5qEBs53qxG2Qt7C9TkgBZbj/ZG5Ey/Tfq4dP3bju4+Xh//Xu5XA8TrfD9f/2OiivpqtkePwL);lineShape=1;" parent="1" vertex="1">
                    <mxGeometry x="82.7799176335443" y="-792.4578090786292" width="3.4831105497439485" height="0.7362009085600189" as="geometry"/>
                </mxCell>
                <mxCell id="30" value="" style="shape=stencil(lVrZchw3DPyafUURvPnsOP/hKsuRKorkkuUcfx+wtkgtmzMt6221AnaIq9EA5xI+/bj/8v3u4t2P15fnP+/+efj6en8Jv128f3i6v3t5eLVPl/D5Ej59e365++Pl+efT1+vf3790yf7pr+e/+y/8e9UrTpzvWt79d/1GJV+/+P0q//jwdCOfvQRd5IO4eC6fsrS6yEdR8vtJJa7ySUI6l49Jynr+LDUQebO3LPJVkp7Lhygprf5x1ADfJK8OUvNoJgrTwKkQxDuioFLzqhClEhu0SQirQpZInKRFFGyo4kmU7QBtPZJ34onRZqIDBS+RPUEltFVhPvNQwcLgVvkilXi1ioO8djSRshSQt8RmhSAprvJ2nkoSdZThrBuVQs4fxa0xtsrIpHCCpDUAsUkpTF5X+RSksLSWtsYrFUmN/v7qz6zi+fnXOs5xePjEPwryRSI5TxqwNuQNKZXEK498n/Ke+t/ybc3PYvlM4muwE0ChiCcGdBRZM6JYTbASy8MhExr9KIrjEDuMWY0DvY8Vovg1qWseWHasUEfNToU2rDrOii0tmtIwBwO21YZmP0HwPXopK1y3RBtCNDBd49DM0SQzrAWGNZVa4QoJI91mdh0rVGyapkCTW0et3z6BoWOUEtAG1metGltELxXyhKII2BaHQrxk9YUKkUba6guoQvODzByXtBuIdZN8rAvWIHF1q6V3JCBs5RKh4golF7UOZjAV0nD0cdt0GGmraU+OZD4BcmGowRhkr6810lUHGThWiBJWStiBjCkk7IUlc6ONP63IV5JEZoN1Z3hCoOzCFAAErD0wkte9BHDvBhM9i0NeA5erNFJAlpsQB6vBwBS29M5GMVi21sEobnp0YBzMoHI12sYNxmwtmT3YoHRcsIoDuE9tELljBcVcSrNjHKNGReSzEagymMmYGobnrE9bqgF1SHGQ3WNsbQPnbrhbZnCfESoTn/IsTNDYkx+N+KwDAZ03hUCOlObYeKPgGX9uWA9pHvJskky6KbDRMAwC/4tPMIXdBiVAFuZMNBV00OpjBfu3R4XCjqQ4JqU5aJ0poJd0bBBOnwBechQ1zGi3KbCaDhvypUlMz+IQVlyyZGGNPWzo3RVY4KyhFDwS63FhTz4+QJtC256QmELekM/RgeNAQSkTODgS3yV1o7fka3wZg271lHvvgXu/psP+BFYPe/J5HmmPrNKMZv3hoIB0+O3XS1RZAe0gYCyQ1cMOM45OKB3IEiqwgeMAKh2dRXcw7iXKjvRRhd4f0qbAO1CJmw1sLDN2tBtNUsO6KPDW7lbGBALODx1b2RxXcBwwBTax21iGJcpBwJh23doupT9t7JFuyAnbpPV5BBQSp6FplPwthWMksWwFVOk2s27kJFukGbvfQMCILvOSzQ9AsCz2rOL60LSRdWZ0mzvkqZD5hFI2G4wFMhuqJBj8+O69NWxZPR3ZkRqSdSPXmc1AEyNuJkVGTtS5bdE3F0Jnj8iwebQy524CFKicMFkgyurXOqv2LNQ449t4ymyI2NkrL7m+RQCFMmjgWQXB/r2vOphCHuvzuZxxdOFdA05NjS826rahNTcwFOhbiW0zqORIlpwwD/StGkFjm/wqbKQqhY198mt8I5UV9/y9RNheveJFwk2JnI5+25lYkVrjrds+lOW3tXZoi71ECPZFh/ddFjk2je5kupcIp1iwGrTsYwtUn7Et9n0NU9ANNsxodqGwdble1KQgNAw2f7MaZHdq6rDkrKbYHq7gprwUuuiLuGR+Z8+3X6HwDfA2ulrDiuxSB9cmxrdYZju8W87xHXnd1mNshNt6VeL44o4uBYm97oBCZ5JyDsHljYSf+BMvNZVeCm77lVD4bgJvl/oUwYAFuW1wHE3x5Yqe4exOA9mIPTF+6FJc6Z2JKnIRbfyaPuDrHoYaFCMycjxNYwQ/Vmh4MW7PZBetftukq6f9pnsVO9R70y0sPni7CRXTrtBdT4y45U704io5HJ7DOOCxfEJi7mlVGogAzPEqy9tKnA87xloAtjhB6Pvt/DF5SFJ+nuLwDR1HX/Uoc8H5Js9Q1+RhneI4b1Qc1RztAiav6H/Whvvvr7Cr9LK3nx9Qgu7BTR6oON85d//jedj08dF32t6Xtw9vL9B9e3h8vL5/d/t/fOHOvrq+rBc+/w8=);lineShape=1;" parent="1" vertex="1">
                    <mxGeometry x="95.00503625515285" y="-794.95785384805" width="2.369255611928775" height="4.9433999817703445" as="geometry"/>
                </mxCell>
                <mxCell id="31" value="" style="shape=stencil(lVrZbhw3EPwavRK8j2fH+Q8DliMhimTIyvX3KULh7LB6twS/rUZdQ7KP6oNzlz79ePjy/f4u+h9vry+/3//9+PXt4S79chfj4/PD/evjG37dpc936dO3l9f7315f/nz++v739y9Tcv764+Wv+YZ/3nEhuBImKvp/jyf+/cmv74Cnx+czoLnWN8BwScjH4uLY5Jvr6bZ8wvJxk6+uNyHfnS+bfHFN7CcX1/Mmn10W7y/JjbrJJ5f8bfka1naXfHSxCvnhwr6f4FK/Ld+Kq7t+vKvjtnwPLrN8EO/vhe3rnRfn7d0Nlk/ltvwILnY6bxHvH1BfJv0HcV68/3/3uvhDikLeL/Nf/LOK/eO8bC8cWBgYCuUDJxeFh/boMq1QZUi24brfAV36RGvLJQ8fDS6IM7TsGjl1clVYrUWmlXjE3XWAXyxyAMATwm61u0RbGq6IFWrlLYFqgrB0za5S5EdX1Qow3G6HlKWvVoTWfoaE6BOAAp3QlppLgk1LcZkO3aVaQXdxp9Ps15PrAMTzfugcpVpLdiMzQEVc6axWAIZSa1wZ4AAkyQG1uTwYUIRamwlRAJrIIjPidktnuIaiVdB2Z0AWWwLNhMAApSUQGRuuuCFWAFMO0lJbueU6IHFM57HWvA4o7HzwLplM6gqXA6B5aTQ+Q6mr3rgO6Cad9JWArwPGSmdH/fLBGYYb+6FBPF4Agj8y8oEAt4mcjiWINsCeQ++p7ntqOkEAQDzT0kp7t/Q6KO0WyWQAUB2AmMqCjWFq8m/kSVkJVGZjBKFXZ8iu786E1N1FokZA5N0OPbsiaAPFTCNAlSHXh2u7uyLM1aF7W55zlPOoDxWgMBvPTaqCMnGxMdWgmMxzUA/NZK1zywBTqpIMrhZoS1CDODS8f+xqhTtmYWnEV919CRHixaGraZMuRHKzz/AMUM4H3iJyvTDPrURNdjgxz61awHezhAAggSQDaCKoZ14ORk0CkKD2yoAonCkl7mem5cQZIkxtfKMJU88GpjEgiwhCy02F6OiyJkMLXzMDgtCSGQJMebWACbguqxnvCjl3k67njas26RaeZwCQV029SaCQD1KeaisQTBcWOzrCk7wqGvw63UleUaSpuSfhifeH1Q6e5dXQxvAj5EXQoNsz8kUQcOR6ZOpT+E9a/e/JXiozX5NXQxXsx/hPlfsvRl7xXOSZAeLFi/cHkz0+it/Qjbz2NxO/asJwjHRO51VdpF9scM6v4rzX4jHq+DX+M6Q8lyBoHCRfVRNfWfg/+NDEr6r5w6o2zvJiPz8tH9bxzgfQU91uVsgqApJxiSo7r9ivrNCED6V8heSU06WjvD97hao+0iqYzrSiZsc2ETc96whXEplybNRcHPlNelJpplxpsr6p4Urtq3IfutFkk59aoZkOocps3LwpiMo61a3xC99B6CFvK8Y1sgY0w5BJagm95SAtBemtaBWZw7xssdEqUhGC1q6qOXI1gLo2easXpJ58DpVUpza4eUSzp+qEOULaibLr5nGYSqTr9nQktjS6Q+V8F0c4AFpLcDUyXMvSWwEoNOpAfaK0VHiugP5TtSCIL8r/6D+7GtdUHp7PCZLakgVkSTPzDDRyCvJebqqVJnNDaymbYWHVKySuwsC2RQHM9KVEWQZcIvgA+I8uk9LeO+ahI87YATlpKJrJK1xOAFU6d9Pb5SoHETNcMgPkZVLkauyDwTMSSjIA5d41GrVqALJoKwxQN2hzzGy2lATNwK6spSxdIzeu+VCuRDUaaex8Ocgcl/vi6gVABdVVrYEyet9S6vKapJi+MLVVKd8qf6gRS/o2H4YLu6XnlZtwb5BKIUCUzHehrQMQ5PVtTSsrL0DUaq2Fu42oZ7aIByoSY5XeWk1xErPc0gzR3Q5R39HNC+LdvWfPpe6sUaXudpgflqgh72AyDkVek3RzGxuivnfPpoSTxQy4mJy1yitukD3dL2TZnvTOs/woNYRijb48CR99GcLzXTm3bOZ+JEpCquYSKWqaj/ylSpJDoZK5rspS/9l8AKCv/kBulBR07wZeIHlUnsJBsXyg5lD36J1TSPDy0yj4OzUxeKLGkPg3jeMnQE2m47rUOAHUYCWYSeRcQU3CAhc8AKgrs/n5mllB3RNelHjmCbWC57icalBa8lwshKAN55fWTwCpJXNlBoDyPQCo1QNAHjpw7scT1Yj9/IeFHwPw4/Id47fHp6f3zyDP/+fvHvHo/ZvJ9Pk/);lineShape=1;" parent="1" vertex="1">
                    <mxGeometry x="99.34010375712296" y="-795.1772435949434" width="2.7196054932469735" height="4.480740609727233" as="geometry"/>
                </mxCell>
                <mxCell id="32" value="" style="shape=stencil(lZbdUttADIWfxrdnpNX+XlN4D2YIjYc0YUKg5e3R1mOIlkSd3vnv88pHR8c7yc3L9v55MwV6OR0PT5vf88NpO8mPKYR5v90c55MeTXI7yc3j4bj5eTy87h+W8+f7/mQ/+nV462/4s3CNUEKnAr0vV2JCan+v3C3Abt6fAxmlGCAJWnWAhsoGyIKaXSCJAUoEeyUltGyAqis4QG2IFmiMFh1AVbIltYLE14FCyFYlJgLRdSITJNolGtiRKRGq7ZzqQE4jooBtI2oFO4BUkAVK84EMsrrmBhIHKGMjUkV1VIphXCGqW5zO6W1pFggITklaQK4G0CKzs0KuaMkCGSE53lARrZlU6OB8dG+TXUFbGfyBoGFG6V8zykPjCLFcB87c/OkNWoPh8hI6MBbQofJa3UdysGtbX3FZJh36YUg1GJySeqzYkr6i53KrBeXbjFYnBjQa6wBofHozmhCHoVZZHTN1QP4HkDima09Dx0whrm7+BBKyE0yc1rQ+i43ofHRBtW4tDHHaEMYwzrym7cXn1ar2AxKvKXLteWuLSODg1ZNsYgRfUc0TWz831xQcR4GYkZweBxmBBHEmRz0x/Bm0AY6garpBofHfpgdfO47HebdbNizn98cdil5adjdy+wE=);lineShape=1;" parent="1" vertex="1">
                    <mxGeometry x="13.2212517439973" y="-813.9966186931649" width="0.4156401223532939" height="0.4169151672073166" as="geometry"/>
                </mxCell>
                <mxCell id="33" value="" style="shape=stencil(lZbdUttADIWfxrdnpNX+XlN4D2YIjYc0YUKg5e3R1mOIlkSd3vnv88pHR8c7yc3L9v55MwV6OR0PT5vf88NpO8mPKYR5v90c55MeTXI7yc3j4bj5eTy87h+W8+f7/mQ/+nV462/4s3CNUEKnAr0vV2JCan+v3C3Abt6fAxmlGCAJWnWAhsoGyIKaXSCJAUoEeyUltGyAqis4QG2IFmiMFh1AVbIltYLE14FCyFYlJgLRdSITJNolGtiRKRGq7ZzqQE4jooBtI2oFO4BUkAVK84EMsrrmBhIHKGMjUkV1VIphXCGqW5zO6W1pFggITklaQK4G0CKzs0KuaMkCGSE53lARrZlU6OB8dG+TXUFbGfyBoGFG6V8zykPjCLFcB87c/OkNWoPh8hI6MBbQofJa3UdysGtbX3FZJh36YUg1GJySeqzYkr6i53KrBeXbjFYnBjQa6wBofHozmhCHoVZZHTN1QP4HkDima09Dx0whrm7+BBKyE0yc1rQ+i43ofHRBtW4tDHHaEMYwzrym7cXn1ar2AxKvKXLteWuLSODg1ZNsYgRfUc0TWz831xQcR4GYkZweBxmBBHEmRz0x/Bm0AY6garpBofHfpgdfO47HebdbNizn98cdil5adjdy+wE=);lineShape=1;" parent="1" vertex="1">
                    <mxGeometry x="12.903904241091823" y="-811.2990968213932" width="0.4156401223532939" height="0.4169151672073166" as="geometry"/>
                </mxCell>
                <mxCell id="34" value="" style="shape=stencil(lZbdUttADIWfxrdnpNX+XlN4D2YIjYc0YUKg5e3R1mOIlkSd3vnv88pHR8c7yc3L9v55MwV6OR0PT5vf88NpO8mPKYR5v90c55MeTXI7yc3j4bj5eTy87h+W8+f7/mQ/+nV462/4s3CNUEKnAr0vV2JCan+v3C3Abt6fAxmlGCAJWnWAhsoGyIKaXSCJAUoEeyUltGyAqis4QG2IFmiMFh1AVbIltYLE14FCyFYlJgLRdSITJNolGtiRKRGq7ZzqQE4jooBtI2oFO4BUkAVK84EMsrrmBhIHKGMjUkV1VIphXCGqW5zO6W1pFggITklaQK4G0CKzs0KuaMkCGSE53lARrZlU6OB8dG+TXUFbGfyBoGFG6V8zykPjCLFcB87c/OkNWoPh8hI6MBbQofJa3UdysGtbX3FZJh36YUg1GJySeqzYkr6i53KrBeXbjFYnBjQa6wBofHozmhCHoVZZHTN1QP4HkDima09Dx0whrm7+BBKyE0yc1rQ+i43ofHRBtW4tDHHaEMYwzrym7cXn1ar2AxKvKXLteWuLSODg1ZNsYgRfUc0TWz831xQcR4GYkZweBxmBBHEmRz0x/Bm0AY6garpBofHfpgdfO47HebdbNizn98cdil5adjdy+wE=);lineShape=1;" parent="1" vertex="1">
                    <mxGeometry x="13.855966926719475" y="-806.6974445341385" width="0.4156401223532939" height="0.4169151672073166" as="geometry"/>
                </mxCell>
                <mxCell id="35" value="" style="shape=stencil(lZbdUttADIWfxrdnpNX+XlN4D2YIjYc0YUKg5e3R1mOIlkSd3vnv88pHR8c7yc3L9v55MwV6OR0PT5vf88NpO8mPKYR5v90c55MeTXI7yc3j4bj5eTy87h+W8+f7/mQ/+nV462/4s3CNUEKnAr0vV2JCan+v3C3Abt6fAxmlGCAJWnWAhsoGyIKaXSCJAUoEeyUltGyAqis4QG2IFmiMFh1AVbIltYLE14FCyFYlJgLRdSITJNolGtiRKRGq7ZzqQE4jooBtI2oFO4BUkAVK84EMsrrmBhIHKGMjUkV1VIphXCGqW5zO6W1pFggITklaQK4G0CKzs0KuaMkCGSE53lARrZlU6OB8dG+TXUFbGfyBoGFG6V8zykPjCLFcB87c/OkNWoPh8hI6MBbQofJa3UdysGtbX3FZJh36YUg1GJySeqzYkr6i53KrBeXbjFYnBjQa6wBofHozmhCHoVZZHTN1QP4HkDima09Dx0whrm7+BBKyE0yc1rQ+i43ofHRBtW4tDHHaEMYwzrym7cXn1ar2AxKvKXLteWuLSODg1ZNsYgRfUc0TWz831xQcR4GYkZweBxmBBHEmRz0x/Bm0AY6garpBofHfpgdfO47HebdbNizn98cdil5adjdy+wE=);lineShape=1;" parent="1" vertex="1">
                    <mxGeometry x="13.855966926719475" y="-803.5238887974392" width="0.4156401223532939" height="0.4169151672073166" as="geometry"/>
                </mxCell>
                <mxCell id="36" value="" style="shape=stencil(lVbLcsIwDPyaXDW25ZfOlP4HM4SSKSVMoK+/r9JMaGSIUm7B8cba1a5whavzfnOqK2fOl659rT+b7WVf4VPlXHPc111z4acK1xWudm1Xv3Tt+3E7/D5t+p3901v70X/ha8ARAVGPcuZ7WEkBovtdeR4Ah+Y4BWQwSQAygtcADnwWADLgzTyAv5dRAsK4cheQEIyVAAIb5gHRgo0CYI0Bo9TkCUJxRAZUAEjj6yvAg1NIoIUgZcoZnJ0HuAS2aISBnBRAhCB1TQ4oKwCC5AQgBkDlBIzgpUohQ/aKrAFIqhQ8mDgPCAlcAbAjq/utZie4G4BSEotYctBLynTDQSdN3Ae6kVXpA7s5SWv0jSMVYGWne2toJ/iy0wvmy2mMyz/tnWLJYSFArIn1D2U0IDipa6+D5j6eTDJBC4MGeTJJmXiUodIIl0dRpsNSC3UElO5bGMcPAyzrKjsXMySFQ4RYuFXnzPEKMg7sPWW/KZ3keb8yvF0ZaOT9Sj5TaTyu0Gv1M+HizwFVp/ZNlozZ6woBb8d6rxWp0Qn8OdliPQfJAvliv1UIZyYcino0Q0xyePUcRJEzfvi7cOyaw2G4r0zflxcUXhouN7j+AQ==);lineShape=1;" parent="1" vertex="1">
                    <mxGeometry x="14.295285329802255" y="-801.0193554096924" width="0.35567871588554684" height="0.536819205730323" as="geometry"/>
                </mxCell>
                <mxCell id="37" value="" style="shape=stencil(lVbLcsIwDPyaXDW25ZfOlP4HM4SSKSUM0NffV2kmNHKIUm7B8cZa7a5whavLfnOqK2cu13P7Wn822+u+wqfKuea4r8/NlZ8qXFe42rXn+uXcvh+3/e/TptvZPb21H90XvnocERB1KGe++5UUILrflececGiOY0AGkwQgI3gN4MBnASAD3swD+HsZJSAMK3cBCcFYCSCwYR4QLdgoANYYMEpNniAUR2RABYA0vL4BPDiFBFoIsk05g7PzAJfAFkIYyEkBRAiyr8kBZQVAkJwAxAConIARvOxSyKpyPgDJLgUPJs4DQgJXAOzA6r7U7AQ3AXjFfWbCQS8p04QDk1ZOINaBJm1VdGA3J2mNTjhSAVYq3VlDO8GXSi+YL6chLv+0d4olh4UAcU+sfyijAcHJvnZ9UITwPJlkghYGDfJkkm3iUYaKEC4PTRkPSy3UEVC6b2EcPwyw3FepXMyQFA4RYuFWnTPHK8g4sPeU/aZ0kuf9yvB2ZaCR9yv5TKXxuEKv1c+Eiz8HVJ3aiSwZs9cVAt4O9d4qUqMT+HNSYj0HyQL5Yr9VCGcmHIp6NEOMcnjzHESRM374u3DsmsOhv6+M35cXFF7qLze4/gE=);lineShape=1;" parent="1" vertex="1">
                    <mxGeometry x="14.453973961273277" y="-798.1631501862589" width="0.3556766531917013" height="0.536814478176168" as="geometry"/>
                </mxCell>
                <mxCell id="38" value="" style="shape=stencil(lVbJcsIwDP2aXDW25PVM2/9ghlAypYQBuv195WZCkWmU5hYcv1h6i3BDq/NufWwbNOfLqX9pP7rNZdfQQ4PYHXbtqbvwU0OPDa22/al9PvVvh83w+7guO8vTa/9evvA54HKGnAsKzdewEj0E/Fl5GgD77nALSGCiACQCpwEQXBKAbMCZaQB/L5EE+HHlT0AkMFYCMlg/DQgWbBAAawwYpSaXwVdHJCAFQHl8fQU4QKUJsuAlTSkB2mkARrCVEAZSVAABvOQ1IuSkADJEFIDggZQTKICTLPkEySm0esiSJe/AhGmAj4AVgHlTTgjsBFwCYBIdLikp5bse9KYz65DvaFV0YDdHaY0iXFYBVipdrKGd4GqlZ8yX4hiXf9o7hrqHmQAxJ9YtyqgnQMlr4UFzH08mmaCZQUM8mSRNPMpIEQKZRdlEGZZaqAOQTNDMOF4MsMyrVC6wXTUhIFRu1XvmeHkZB/aest/UTnK8XxneWAeaeL+Sz1gbjyt0Wv3ccPXnQKpTi8iyY/a60oCzY73XitToeP6clFjPQbSQXbXfKg0nbthX9USNIHMnWYQgcsYPvxeObbffD/eV2/f1BYWXhssNPX4D);lineShape=1;" parent="1" vertex="1">
                    <mxGeometry x="14.29528306035877" y="-795.3069611528766" width="0.35568077856405883" height="0.5368239332682614" as="geometry"/>
                </mxCell>
                <mxCell id="39" value="" style="shape=stencil(lVbRbtswDPwavx4k0qKk5677jwJNF2NZUqTptv59aRhpSiWm4zdF5kU88nhSxw9v26fXTUfh7XQ8/N78G55P245/dETDfrs5DidddfzY8cPL4bj5dTy875+n369PY+S4+nP4O/7D/wlXC0RGFIWPaScKyrTzcwLshv03QAwBIRhEIaQyj6gZXCygIKZ5QKko9oTKiP08IBcES0LPDDQPEAZnC6jgOg/oM6jaMl3qcBPBEb1FaKmzc0TMELaAhJId1ogN6YjkxEdEy7kImOfjQ0u5BIhXIwiZ+JxATpsjI9s25+AKiQTJZiRfNbidUUS1KUkCO4CkwgxrAJnR85qUxprHNaRVBM30LJRVlZztCQt9U10Wy2FBGJVQ+ivlORzUILiRqkrbAUhBahzAH55EZ4p3z6dAbJkWLEDnpzbz6ZtMDIiNA6iNOXWlNqPRJx3bu2nEjgGsNe4Itm1euBoIOdl4cpsmqA1fVM+/+JztOT5BnA7TlerIFR1f5R9Qnfi+P3fnEu8pLn3Z+X3x6iQkK/LJeoGkFXx1yhvv8uup6g3NheD2S8eDrvRQvAPWvkXuAOji8vR5GXa76eX0/Xv7VNKt6ZnFj58=);lineShape=1;" parent="1" vertex="1">
                    <mxGeometry x="14.550806523267738" y="-792.19205459237" width="0.2555677143761033" height="0.732349444234436" as="geometry"/>
                </mxCell>
                <mxCell id="40" value="" style="shape=stencil(lVbRbtswDPwavx4k0qKk5677jwJNF2NZUqTptv59aRhpSiWm4zdF5kU88nhSxw9v26fXTUfh7XQ8/N78G55P245/dETDfrs5DidddfzY8cPL4bj5dTy875+n369PY+S4+nP4O/7D/wlXC0RGFIWPaScKyrTzcwLshv03QAwBIRhEIaQyj6gZXCygIKZ5QKko9oTKiP08IBcES0LPDDQPEAZnC6jgOg/oM6jaMl3qcBPBEb1FaKmzc0TMELaAhJId1ogN6YjkxEdEy7kImOfjQ0u5BIhXIwiZ+JxATpsjI9s25+AKiQTJZiRfNbidUUS1KUkCO4CkwgxrAJnR85qUxprHNaRVBM30LJRVlZztCQt9U10Wy2FBGJVQ+ivlORzUILiRqkrbAUhBahzAH55EZ4p3z6dAbJkWLEDnpzbz6ZtMDIiNA6iNOXWlNqPRJx3bu2nEjgGsNe4Itm1euBoIOdl4cpsmqA1fVM+/+JztOT5BnA7TlerIFR1f5R9Qnfi+P3fnEu8pLn3Z+X3x6iQkK/LJeoGkFXx1yhvv8uup6g3NheD2S8eDrvRQvAPWvkXuAOji8vR5GXa76eX0/Xv7VNKt6ZnFj58=);lineShape=1;" parent="1" vertex="1">
                    <mxGeometry x="14.868154017133975" y="-789.6532140026254" width="0.25556773245475334" height="0.7323498283876914" as="geometry"/>
                </mxCell>
                <mxCell id="41" value="" style="shape=stencil(lVbRbtswDPwavx4k0qKk5677jwJNF2NZUqTptv59aRhpSiWm4zdF5kU88nhSxw9v26fXTUfh7XQ8/N78G55P245/dETDfrs5DidddfzY8cPL4bj5dTy875+n369PY+S4+nP4O/7D/wlXC0RGFIWPaScKyrTzcwLshv03QAwBIRhEIaQyj6gZXCygIKZ5QKko9oTKiP08IBcES0LPDDQPEAZnC6jgOg/oM6jaMl3qcBPBEb1FaKmzc0TMELaAhJId1ogN6YjkxEdEy7kImOfjQ0u5BIhXIwiZ+JxATpsjI9s25+AKiQTJZiRfNbidUUS1KUkCO4CkwgxrAJnR85qUxprHNaRVBM30LJRVlZztCQt9U10Wy2FBGJVQ+ivlORzUILiRqkrbAUhBahzAH55EZ4p3z6dAbJkWLEDnpzbz6ZtMDIiNA6iNOXWlNqPRJx3bu2nEjgGsNe4Itm1euBoIOdl4cpsmqA1fVM+/+JztOT5BnA7TlerIFR1f5R9Qnfi+P3fnEu8pLn3Z+X3x6iQkK/LJeoGkFXx1yhvv8uup6g3NheD2S8eDrvRQvAPWvkXuAOji8vR5GXa76eX0/Xv7VNKt6ZnFj58=);lineShape=1;" parent="1" vertex="1">
                    <mxGeometry x="14.868154026173215" y="-786.4796583016933" width="0.2555677143761033" height="0.732349444234436" as="geometry"/>
                </mxCell>
                <mxCell id="42" value="" style="shape=stencil(lZbdUttADIWfxrdnpNX+XlN4D2YIjYc0YUKg5e3R1mOIlkSd3vnv88pHR8c7yc3L9v55MwV6OR0PT5vf88NpO8mPKYR5v90c55MeTXI7yc3j4bj5eTy87h+W8+f7/mQ/+nV462/4s3CNUEKnAr0vV2JCan+v3C3Abt6fAxmlGCAJWnWAhsoGyIKaXSCJAUoEeyUltGyAqis4QG2IFmiMFh1AVbIltYLE14FCyFYlJgLRdSITJNolGtiRKRGq7ZzqQE4jooBtI2oFO4BUkAVK84EMsrrmBhIHKGMjUkV1VIphXCGqW5zO6W1pFggITklaQK4G0CKzs0KuaMkCGSE53lARrZlU6OB8dG+TXUFbGfyBoGFG6V8zykPjCLFcB87c/OkNWoPh8hI6MBbQofJa3UdysGtbX3FZJh36YUg1GJySeqzYkr6i53KrBeXbjFYnBjQa6wBofHozmhCHoVZZHTN1QP4HkDima09Dx0whrm7+BBKyE0yc1rQ+i43ofHRBtW4tDHHaEMYwzrym7cXn1ar2AxKvKXLteWuLSODg1ZNsYgRfUc0TWz831xQcR4GYkZweBxmBBHEmRz0x/Bm0AY6garpBofHfpgdfO47HebdbNizn98cdil5adjdy+wE=);lineShape=1;" parent="1" vertex="1">
                    <mxGeometry x="14.49068210944165" y="-783.8478492829763" width="0.4156401223532939" height="0.4169151672073166" as="geometry"/>
                </mxCell>
                <mxCell id="43" value="" style="shape=stencil(lZbLbuMwDEW/xltCEiVSWred/yjQdGI0TYo08/r7ocdj11TSC3Rnyz7i65LSwHfv+8e33ZDC++V8etn9Gp8u+4Hvh5TG4353Hi/2NPDDwHfPp/Pu+/n04/g0v789Tn9OT6+nn9MOv2euVap5olL4M69opcD/Vr7NwGE8boAYAoXgiMrE8jlhJrR5wFYCAApxcUBjygqAsLi8AkoRAJPH3qXWKIOoVShyD7T2OSCtz9KU6QiARCoeEAoAKFanLkuRagWApVV9HYRqgUBf6UgZAULNW7C8pQyCjhR8HTSSghjELCQHSKWSQOF4CXEFBNbBQoxyBQBpmJiDXrmE1GouaR90RQ2k1EqfVgZ1MG3+F8KmcAVZMPX7oE0aDQFC2vVDpAYK9/F5K28A1EIarxoIuKRr1hdgM6puE5G4M2F5AIDkZW5t5wzqUduvs2CTB/Xo2vObWVnAnPkykOMi/02pBeg7VRKvvpoogSxFJfZZ0gLVV5fRuzaQZRX0dKLiHSpmEUyZqwMr4xEQqHl/eJ3+t2tAyUvbVhrwP6a+BFGWI/J2wNyPmEYJ9D+X5bhcIyAF/2fbzo/hQIL6wLZL3f++0ezh48bxPB4O84Vl+72/odjSfLvhh78=);lineShape=1;" parent="1" vertex="1">
                    <mxGeometry x="14.526322305486019" y="-782.2240132174284" width="0.519422100098517" height="0.7016067066848141" as="geometry"/>
                </mxCell>
                <mxCell id="44" value="" style="shape=stencil(lVbRbtswDPwavx4k0qKk5677jwJNF2NZUqTptv59aRhpSiWm4zdF5kU88nhSxw9v26fXTUfh7XQ8/N78G55P245/dETDfrs5DidddfzY8cPL4bj5dTy875+n369PY+S4+nP4O/7D/wlXC0RGFIWPaScKyrTzcwLshv03QAwBIRhEIaQyj6gZXCygIKZ5QKko9oTKiP08IBcES0LPDDQPEAZnC6jgOg/oM6jaMl3qcBPBEb1FaKmzc0TMELaAhJId1ogN6YjkxEdEy7kImOfjQ0u5BIhXIwiZ+JxATpsjI9s25+AKiQTJZiRfNbidUUS1KUkCO4CkwgxrAJnR85qUxprHNaRVBM30LJRVlZztCQt9U10Wy2FBGJVQ+ivlORzUILiRqkrbAUhBahzAH55EZ4p3z6dAbJkWLEDnpzbz6ZtMDIiNA6iNOXWlNqPRJx3bu2nEjgGsNe4Itm1euBoIOdl4cpsmqA1fVM+/+JztOT5BnA7TlerIFR1f5R9Qnfi+P3fnEu8pLn3Z+X3x6iQkK/LJeoGkFXx1yhvv8uup6g3NheD2S8eDrvRQvAPWvkXuAOji8vR5GXa76eX0/Xv7VNKt6ZnFj58=);lineShape=1;" parent="1" vertex="1">
                    <mxGeometry x="14.550806807934805" y="-778.0697400408778" width="0.25556714504234174" height="0.732351962045049" as="geometry"/>
                </mxCell>
                <mxCell id="45" value="" style="shape=stencil(lVbLcsIwDPyaXDW25ZfOlP4HM4SSKSVMoK+/r9JMaGSIUm7B8cba1a5whavzfnOqK2fOl659rT+b7WVf4VPlXHPc111z4acK1xWudm1Xv3Tt+3E7/D5t+p3901v70X/ha8ARAVGPcuZ7WEkBovtdeR4Ah+Y4BWQwSQAygtcADnwWADLgzTyAv5dRAsK4cheQEIyVAAIb5gHRgo0CYI0Bo9TkCUJxRAZUAEjj6yvAg1NIoIUgZcoZnJ0HuAS2aISBnBRAhCB1TQ4oKwCC5AQgBkDlBIzgpUohQ/aKrAFIqhQ8mDgPCAlcAbAjq/utZie4G4BSEotYctBLynTDQSdN3Ae6kVXpA7s5SWv0jSMVYGWne2toJ/iy0wvmy2mMyz/tnWLJYSFArIn1D2U0IDipa6+D5j6eTDJBC4MGeTJJmXiUodIIl0dRpsNSC3UElO5bGMcPAyzrKjsXMySFQ4RYuFXnzPEKMg7sPWW/KZ3keb8yvF0ZaOT9Sj5TaTyu0Gv1M+HizwFVp/ZNlozZ6woBb8d6rxWp0Qn8OdliPQfJAvliv1UIZyYcino0Q0xyePUcRJEzfvi7cOyaw2G4r0zflxcUXhouN7j+AQ==);lineShape=1;" parent="1" vertex="1">
                    <mxGeometry x="14.612642921163342" y="-774.6788569189254" width="0.35567871588554684" height="0.536819205730323" as="geometry"/>
                </mxCell>
                <mxCell id="46" value="" style="shape=stencil(lZbdUttADIWfxrdnpNX+XlN4D2YIjYc0YUKg5e3R1mOIlkSd3vnv88pHR8c7yc3L9v55MwV6OR0PT5vf88NpO8mPKYR5v90c55MeTXI7yc3j4bj5eTy87h+W8+f7/mQ/+nV462/4s3CNUEKnAr0vV2JCan+v3C3Abt6fAxmlGCAJWnWAhsoGyIKaXSCJAUoEeyUltGyAqis4QG2IFmiMFh1AVbIltYLE14FCyFYlJgLRdSITJNolGtiRKRGq7ZzqQE4jooBtI2oFO4BUkAVK84EMsrrmBhIHKGMjUkV1VIphXCGqW5zO6W1pFggITklaQK4G0CKzs0KuaMkCGSE53lARrZlU6OB8dG+TXUFbGfyBoGFG6V8zykPjCLFcB87c/OkNWoPh8hI6MBbQofJa3UdysGtbX3FZJh36YUg1GJySeqzYkr6i53KrBeXbjFYnBjQa6wBofHozmhCHoVZZHTN1QP4HkDima09Dx0whrm7+BBKyE0yc1rQ+i43ofHRBtW4tDHHaEMYwzrym7cXn1ar2AxKvKXLteWuLSODg1ZNsYgRfUc0TWz831xQcR4GYkZweBxmBBHEmRz0x/Bm0AY6garpBofHfpgdfO47HebdbNizn98cdil5adjdy+wE=);lineShape=1;" parent="1" vertex="1">
                    <mxGeometry x="14.64935333878043" y="-771.6296702895621" width="0.4156401223532939" height="0.4169151672073166" as="geometry"/>
                </mxCell>
                <mxCell id="47" value="" style="shape=stencil(lVjbUhsxDP2avGrku/1M6X8wQyiZUmCA3v6+clNvIzk+mbxtNjpr3XXkXbh5f7x73e88v3+8vXzd/zzcfzzuwqed94fnx/3b4UOeduF2F24eXt72X95evj/fH3+/3nXJ/vTt5Uf/wq8jjim5DvL8+/iiZHL175vPR/mnw/OJfKCSlHwu5HktXylmLe+phLW88+SjBjCVCACZsj4hyZltDfCOEmtAoQRM9nJCsYD+c+kjZ50kAAecFPKkUqIMAJEpNw0II5DnAXFEaQM4cgUAMjV9QqwwcLFR1EbLmQW4VRT45/UNwOSBDWJi1CqFSA2khjgx6OT2m5LnARImfYJPFJENjbwBeKrAhiypYVRiCiCXcqSoA+cKVaBSr0ftVqkQBChsS9Rt6XgeEKgGCwggl0qxXuoAELjK1kuXAIFamQAg0jWPzDkFZABolNM1RjdPbOIg2Qoi3aYSlV5YgQ0tj3LZAAwrrk3ZyiNXVvKxGnlGJjfbit3wwUq+el3Q5EGLEfmmE088gPUxPUxegMSe5V2APW9WSIoTZdFssbg0oqSYXCoNJmGbTczEqRl0pDkpBBAxwHmrEiO31qk4GyVkdKU6VbMH5d8BJg4etrAO0NUsw+2CCfqABBmA+IhN2CjiRPL6+zLgsXz0Rh6GoA06cfJ9HONSrP4XKsfQC8giu3w1/s+g1Tne7DuJcMSV1qaphohqL00DaJBHdh+ZOnAj0VeApGdOrzSs0pUAMVHbEDxuLzJzdB0IpWLkVk9Ozxzhru6quRkKZTTKp8ncAeiEafZ3AAjczC4EgNr8zF8EUC8wpMkGxFQ7BzM2VMiFheUZaisANPs7jzT0XErqAlPVKkVMbYULBwNIVEAchG0HXdOyQ6A1Sfi8YarJj0+sNoasSzTlMYBXO4nZq8QNAW89pkRzGq3tPKAQGw6zsY7l5qYBxY9kWe2GJr1LHK1tuX1qL0nCo9SY99tSKaGVe9qgyzaxlzu6saHBBaDfApiBwnA+9HsGrZL0ETRCq3VSTZD/S1fSFjSG84etAX2CAYuZkqE8jDmA7JnNHoAMYOsgIUGIzfOYA5s8HrjbLrHJB5imIq8D0BzkGBNjqHX0zJW8DpgEGHE2thSv+lF4K//oTiEZ6kHRsB3NUjOoFbFtvyUP0rpKoKtu/i7Ly8P/a8aHw9PT8Zby9H97LSmvjlea4fYP);lineShape=1;" parent="1" vertex="1">
                    <mxGeometry x="8.406676306316058" y="-785.9322697866897" width="12.911346834638655" height="0.6374435478259531" as="geometry"/>
                </mxCell>
                <mxCell id="48" value="" style="shape=stencil(lVhJbhtBDHyNrgS72evZSf5hwHIsxLEM2dl+HypCj0T2TBm5STPFXorFbXZy9/Z0/7rfRX57Px2/7X8dHt6fdvJpF+Ph5Wl/Orzrr5183snd4/G0/3o6/nh5uPx/vT8jz7++H3+eV/h9sRPq5WwU+c/lARPzvwdfLvDnw8sNPAiF7PCxbOP1dRODD2OBdXyjWg0+UgF4qdSDwafxYBWfKoVo8JVS2sbnQiHZ8zMJ2KAkfyClLNZtg6qv2RoUYrBDU0rdDg1y2ipJs5zyYGHVoAuxFYV6gQUYVMr2SOqGDO4QeJHZYqGe7GCL7oUhkQIyKJSt51QrDGjqTMlKNUV4iRaoWV5TG0/WXa0s2jvkPMJjXUxM3UZbEcogPFMfWlvkHSiCIykntVsDvQOQa8xUrKtbGZ5ZjyAKllX1ZAbiSyTV4xFHQmnCIyGpT6fzdMBQoJKm8wAXsI9/xSfAj6aT7vEM+NHQtbHZG1Sp5md33wrvy1TY4xPgU/UVPZ4h/+z4LNC/0RcoxVeoh87T+ihkqKbp/GD9TClM/ID1NcKn9VGAZepOz+2j9dnjO9BPJpn0LEAPaUX/FVRModo8vqOK7/m5qQ0bgutTAKOsG9YSEBAo+7qh+AADJgbvgALxYXIwKt9almwNUAGhlohH+rvBR5gg/g9/JtRGfNNij2rM1DPWQgWEQEr+ygXnxGsZXQzC6KrWC6s2B64Sy9hzvXTrDvbSqYx2Yb05EBKbt9Li+HWD5nUqGTc4YdTRpYXSSEZHWnS5GOTRSm7dodgjaXQ3xNLcBwaqYDxQvxbr6aDVEnha/SrOQLUEWMo6P1g/aD+O8m+aJqKgWkIJL/k2UBMwwMdppCgjo63nr+YDVEsQyndxUH4diVCDIL7gJziv6OoejrKj9sj2MPJBt+W4EZgpNFf71dE0yuOo1+ESt3J+RqEIC4frbMIohVuNn5v7YKfOfv7hUTg3iHRtCsMuNHpmGOZPGZPUzVcD2BN0f3ZU4T/8JqE/rt8zHg/Pz5fPIbfv/fcPfXT5diKf/wI=);lineShape=1;" parent="1" vertex="1">
                    <mxGeometry x="19.677314016364335" y="-787.0201653165136" width="2.4397786777614314" height="4.330020886090453" as="geometry"/>
                </mxCell>
                <mxCell id="53" value="" style="shape=stencil(lVnbchQ5DP2aeVXZli/yM5f/SBWBTBESKgTY/fuVd3DTkrsPxVtPj2TL0pF05L7wm28Pd1/vLyl8e315/nz/8/rh9eHCby8pXZ8e7l+ur/p04XcXfvPx+eX+08vz96cPt99f74bkePry/GOs8M9Nr1fqdWil8O/tDVOV/1+8v8k/Xp928lIoWvlMuZ3LN13Oyhdq/Vy+VgrByKuBQL5UkmLkhXI8l8+NYjbyMVAAB2ahwFYhUQAWcSC2J4h5vjlUUI//8uCmUKmAHaIQuzMICQiCGtCsQoo0fp4qRI+KtMXxUKFTdhsIFbBBpxAt6vJ8cyLP1kVcqYGoaVCThQV3KgxP7HbICQIpMkWxCoUCCkKhbnGhWGwAF7FTtU4tYYL3GEiKM5driSoAkrpV7BlKgVBlTV63g54BxDnHme2bQp8Je6wglKxJNU6/HReATOIKBlMHO+h6vsJoZACW6lJiqhqJap4WCOulFqgC8DUFswWflk0UBwkeGrpEBYcWRavdQZfISCFTsoEbb5BJmsDWJGkkABqS/A49zqQ99pJQt5W4Z6yQqdhIa7erIHC1+1rftZsgaLDvJl3LDEhRTRd36BjCxOOxRvApp1t0cIis7SQsNoFKpknt/SqzLhyXDZlY2ymghNDlbLXvBXqpUREvjwK9tcsdMBqwp8wCsZOPYP0ya9wmrz4G3VDXd/IJ2lOnN3byyJ4247nLHNSdhRp7eQbygxJVr5BQu9X1xCtkRDASleIVYENXj7P3EeP+3Benor6gJMknP8OaGjemvIMRI46RFpPyRMqZW8VWbU0ERiZpXwheoQC3dk+T/iDfZunZGwSRLUtmwuZMMS0uhZncnP0MOVXxZEHlUfWtS49Kk3uf+CcusBbUNf2sMPIGrK+UcMl8mJjBE/mR+hhBvjZiBR13wlocEYdsxIsCYng5z1FiDwpwaG2ZK1FooFbUMKnNTgGlQW1zvT2OQEUdfM6eQTpkR634zFSChYjzIDs20qLEGRxaWarryoNgodzfBuUd6WQ8yzu3qpHIS0rN3RlahExEp3838SiFQ21EoeEa1QglOIOyKbE1W6cFtIMOpm6mqnh0HvcFNg41QnjrKO66QpFp5HFOb3PmplDhnYc2Khe4okQXeKlNlrybVANAd/ZlMmNinjzyNCyoDC8jXtYMB/LBz/JapNB1RPDrM8NsDrOEbvJhUrIT+6OFxKB8YP3k2+Dvq4CTNuguO3THDOzp3p4oMF4r+YoVOjR2Tywizhp1iL9li7AYcVmGCniZMm5zbOuvsDqW7E9Q4PpVZ1fbpPDFq5brZDtIogogoe3CTfwR1t6+XE8FfCNX/VyK59jePDUN8BpVR0pXqcPkYsfy3d8/BMx8ux+6wsTsmbx4f2IitRQJTAXHWO8DjGpWX64HE76i7R4QPD12FgDnIIYH7s1f9fHs5mcA+qsvD3+W14ffnzk+Xh8fb19J9v/7zyL66vZJhd/9Bw==);lineShape=1;" parent="1" vertex="1">
                    <mxGeometry x="126.16776805964241" y="-761.850234385234" width="2.5355731307381326" height="4.875380945397465" as="geometry"/>
                </mxCell>
                <mxCell id="54" value="" style="shape=stencil(lVjZctswDPwav2JAErye0/Q/MhOn8TSNM056/X2heqgIkLxO3mQZKxLXYsldunl9vHvZ7yK/vp2O3/e/D/dvj7v0ZRfj4flxfzq86dMu3e7SzcPxtP92Ov58vj//frmbLKenH8df0xf+nHGFpE+gyH/PLxIx/3/x9Wz+dHg25ikZ8xAoBGQfmrXvJPj70djHTNKgfbbbj5QTtA/GXviKv8XZV4py2b6SWPssxOWyfaPKxr7weLNpH5hisYBCFWwoRIp2RzWSRAAQKnZLFbsc1OdqAC1QAz5Epma31DK1DgDis9A6ZbBCCtStDz1SA2lImgcb1h6I82WAxJUPjQIoPCnUbaW2RBXkIYdRmIs8oExrpYldoTIJAlTfzCUSVwDQqNtuzoky6n4lB8sukuGWdANJbD836iBKCuiOv7ThQC2VPgphZpg+OGq7o4Wy+BXQlqpyjI2SckxEKzRiu4IWC4pS7VQsIGsYQPFpQ0ab6fdUbgO0vG1PlzxoYRsg1Cxxa/HBLZXx9wzIkJd69dStrIGosrcRxBlQBnluA7rvh1ZhT/dVLSkJRMStzL6plckEdJAuUW1cO1MGPaoAXjEZypyGiW25KlcmtEKhtgI05EP2E6XP5bUNkLGBBSADNu6JEnunG6jvPquERVhRUysg2Dxo4irgmQ1Ao4wBjme0+gSVa/JaSesbsfEUVpu4ae4CnpkSFz0goygVP3cnAHK6DbJe+MC45bh6ACw+TdOqqZHT2z3KeAlHA1pMAXndfea0XNGEmKjMlauWF2qIumqIiMlyDvsC0BFAVorpygqfBegMKk4x6Rs0UtjPUZ2sAayggsqVa02DDLcBeTUWVRsDJlPx4M4/kyRC4iH6oaWyDlGfjtnqTigNFl9ZdZDMousSINgVUoYysbTRLjOgU0cysXhdKfM5cBuQR14XUSqAK0sag3zOQxrVtQ3QKWurVTMD5Xodk39xCgpITEevmHRAIAGkJ0/Hxh1LXQlUbQNNdAsaKM0KbD6tMz4eq3Z2el25DSVCj3Ku+pSq0IQI3cs+9TqiE7IW52pSN+B1CBtjETndKLnS0BmDMj2UxWyPPRDvwNRQKKZDEC44poJ2m2fNsnlAL/CY+Ys7EAH+sue8K3csPEbZB+9wePTVB++I2E/bK3dQq+9fueNa6QV8hcZe8kQ4+9lrYSzn2bNKgJsJIxLDnKGEjJ53GXJc9MIIF0Lyx1psLuu9Q8L1cceuqvZtnwhk8XIfp6n4veMi+PQt7RVzfXi/EH44PD2d75OX//sLZH11vnxOt/8A);lineShape=1;" parent="1" vertex="1">
                    <mxGeometry x="129.4264017387991" y="-760.2972755625782" width="2.9137803589511915" height="3.127033328419755" as="geometry"/>
                </mxCell>
                <mxCell id="55" value="" style="shape=stencil(lVnLchw3DPyavaL4AkmcHec/XGU5UkWRXLKcxH9vMBvSQ2CnVbrJ48YOiUejgbnkD9/uP329u6Tw7fXl+c+7fx4+v95f8m+XlB6e7u9eHl71r0v+eMkfvjy/3P3x8vz96fP1318/DeT466/nv8cv/Hu1EyaRYZXCj+sTpsL/Pfj9in98eDriE5Wy4TP1BvCBQjb4CH6/N8ppwyfiAvCFcjD4/194Gx8p1A0fqYVzfGvUk8FXcP5WqGeD7wLwkYTN+QvwZxWK0fiTwfmrxnePF08H3MYne55GKQF8oLSfR6j3czx3Csaf+kZwIK6U9gPF9eS2QaHadgOhCkLAmXLfQ6A5CnKINUQmRysxuoPmgElS9RLIajVopsrUSxEeyaaFBh7FIc2yXQYCC0e9ZIiiJErIgG0cilILukOzXiqdGAROc493g+E3lNzZHkkPGdAbGoU9+TR/GZW/O5IWVACXbnmGaRkwdKsSUjEGfVLgbcYL1PfUUM7JIDW6MrqhgEIFvaFOnyyDRhHEoXeSvYCalijwknYRw2LK4w0ETttUNQaZGnpDsX2qMzGIgzbOuEdaW1cCNa0Gde886gZ4B6a2Z6u6IWKDtF9aIjEgb8mz9y2DNGN/2yDOZF4G6jeUS9Wm9zgkyiVtr3scpM4Oc7se1u8tA00+1LGazSU1EGDA4gw6zFZloWICJ7BlFdd01aCB5Mva4/ZLx6BCC/hVO5QhV31FB6/QpukNEFdGTaZu/dqQdKNsLl0hzWTnVdV+IAxhHvdQDQFIq+XAQ7kJOE+Yv3bAo/uqUhKLR+0tuEoIUBo6ZTvw4Pxx8tsBj/pCuuEf1M+dShp4cN80U/6Ar6Auk20iw//AP77IVlc5wRslr/kTUYkRN4tHDSFNMj/gM8A7Tah4HN9U34N3OmGcB7BWcPGNkOXCHPyO/gTxDa7XBDgpuElz5AOsL9s4VsWd4Nnh0egVpmI/5j+4r3rb8Qmqx2hl2sDD+vL8U4A/nYQa94X11T0fwvp9H55dQ1I5j/zjGwBD8R7XfHLoSB15KExNeVAGqEfqMG1zukPOyqvFHQwEJGlx+5khVtCoGVzb7nBDo3IomrpfI8ltwVVdolZ4aZ2JmmEuhkw9podmDdDUNbZG5g5l7iXO1lLV3CFD8uoyM+cgreF4oORp4qBP0GYtOmmtDAvioAcwBDzmMEBgslZXhxEHMcYQWG6I6kjty2ToZVBw4Lq7w9p8nA0gca+HJjCXupOxY+IGNT02isagQB3YuhVqLWKDYutBR37EfC3aQbAy3qQ0q71qgr2/FisuuMM9Zw1zLXhYvbyxDarGIM1lzNnez+jB0ufu9mwF1tyCqoJs1bnObIOUbTOohyJWAmSBrKEG0WzLK+QlvaIJ3BuLwmFglp0yn5wdycgSHSXRFwJ2c85Q3mj/6gYRnT3R2oKzpZmoXkI9rtg+HRNeCVen/WGLY3FLubnsOduym1l21dPZFt9GDUrDKnNyWhd+awtptFiAUl4pzGgAvH1QkjbKKkxaPmPtLAaP+KuLZRc8emkrFJPUcPk9dnfR4FETEfHxLej3xVERvK/izSxboKI6bId+GaBZarxgDzBDUTguEA0+4wtn99kRaZduA4apWvGmIBkWvLilIMMF3JC84T34aguMYQcXVwDawBH+vZ9x38TrH7++GX95eHy8fnI+/r/9xqyPrt+n88ef);lineShape=1;" parent="1" vertex="1">
                    <mxGeometry x="134.2028222073668" y="-764.0205733341918" width="2.4786977040020495" height="7.093830436934067" as="geometry"/>
                </mxCell>
                <mxCell id="56" value="" style="shape=stencil(lVbLctswDPwaXTEkwRfOafofmYlTe+raGcd9/X2haqgYaLWe3GRp1yCwC4ATP7ztn153Uwpv18v56+7n4fm6n/jTlNLhtN9dDld9mvhx4oeX82X35XL+fnpefr8+zcj56dv5x/wPvxZepBZnUgq/lxdN39S/bz4v+OPhdItPFKshZIGEVImzIXCmlLcJXKmKIehfxL5NyJ1SMITYqMZtQg1UiyUEym2b0DJJszmQgJylUbEBAoUA8J04OXwBGYtQsKolygXiixWtUGaIF1tRgQrEsOa3VpSJcYTuJGiUgSuUkK0Eat2AatSpOxsxdSRap+giFCpINT1x8ISOkq7edylTRxGqL6sKXVAEPbE1UhRKKOlCyelQhhc3CWwJkSISTq1mvdfu4cWmwNSQt6vvtYgTaJSsLwJFMCzUFqE5PBpfim/iztOQxkJs8flu57iJTR3MrrmX3XkiCe40cQpXXCGh+o/pBI+j6GzNFBChU7YRtNMibs1aPQFW6aOEpm3SLUHGwPn/0oljhK6+rmMqb601N8AywwjcfJVKog6UVuewTVoPmUBZY/bCtQqF09a1Vpo3FzC32kA8Hnk1jZ3xvsjxpo1j3t4ESMDbcXxd8WoUkECgZiXQcYa6OYyvKx5v8uAL1GXcx7bwNt9ehtG38HbY9QSndfDDtPUxnjbwbgNqH6GlrE1j69N4rJMN/Aevs3fx+vB+d345HI/L1fv2u79r66vlns6PfwA=);lineShape=1;" parent="1" vertex="1">
                    <mxGeometry x="134.69816176181598" y="-760.6326005445974" width="1.542270941796596" height="0.2855901130883219" as="geometry"/>
                </mxCell>
                <mxCell id="57" value="" style="shape=stencil(lVnbbhs5DP0avxKSKJHScy//UaDpxtg0KdK0u/37UjA0GVGeY/gtGZMjipfDQ86JP/x8/PLj4ZTCz7fXl38f/jt/fXs88cdTSufnx4fX85v9deJPJ/7w7eX14Z/Xl1/PXy////jSJftf319+9zf8f9FrhTh1rRT+XJ4kKpcHny/yT+fnnXwVCmWSj9TCsbw2Ks3JqwD5SDHc8X4pFNjb347lS6M8y2cK4P1FKM/+KZQikGfKeZIXUmRPoDTLV2r5WD4rBefPSBkYlJnUOTRTKkAhLBFTYnACKzUXgkAZxJgL1dmkZEaCS7NZ7JJUqCGTEtU6KzSqIAxsWTYr2CsEKySZFcrIrEMFnRUURrqbNF/aIsMKFJjiXJrZ3AAibRa7O+RCEZ1QKcxesnREaJHjMGCrnjDw47qCwctcDuVGPQfSOfmK3QoVdKE2X7rgOIjV13wHCVTBpcVKdA6cMAlwqybi+Q4i0K1qXp8LSNrIruuonQbIDQXD2QoubTAf52zVTBEpNJ+tKsQABFoaXt8UKmVwh96pHFKG8eS6gg6LN4UE79AqpTm9ax5oe6RQ4qyw5e+RgotDVYhL/Q5zHMzRgtxqKDSjd4sQjJuhxhy4/gRgawvj500hQ5PMJ3m+dDMvIYXo0bu7oYJ6EA8C3dEAjDvLUK+gQEGy7w/NKg7hUvW8wRQEpIbhnEM+U6jAS4bVRbxCQ223+S4aQ4Dkx3qgluUIcIm04dZOAXV2Ywqy3BrRGSMvrqP0yAEF6w/OIvMbiLRlt3j5BOVdRVs1IGoSfM81edTgwnjbTh6xsTjwZCcfUYx9S7fyb6DW8uAge3nQ0QsJe3sQRMqI5k4+oV7oW6HJozaykFWTV4Qt43a7fED+NHsWeZTQMk7fySOyUK7kM4QJysv7UbwM/NsiD/J/Ic7dHhCvcEVeYL1w8PKM6zF6+QDtiWs+gPiG0ev2+Qbk40CbfT2CeKUR/X29oFHH06ib9eiaQMMDsCz1nseYcZD/aZFnWF/3yff53gVAIcHpFZm9Aqp4XiHRQACNRc3vIDr9QEN8WShUxVuIuHQZHXz7aG3h24ZigpMWvqIQR23KqewV0B1sylEXB4ETs7E6D9VlnHmdN1ptLliB4lB5AXeGdNyorL90Gv3naCxyM4jR8YCmnOBPsFdkNFLEAbe7kUJBgXaL3QmYjneF2Us2FiVQQGaSWznZ4JWRScEPwBZKROpq9Qo2PFY0ABvpm2vasgu1qXUGsQFYULbq2BdtCmmsVq8rsN/82RCPcEnqCNOmoLC1WU07bmFjTERDi/rmLxE2W8Mlx9b63IP3O36dWuCeLUeS+Q6FYU2zLifc2EayT++skFFx8JQ249VfqsvOmSFUWsvym7wA3WpdOt+1XEziTWKjVegE9Xt5xou5lTinBjf/9nOac6lz4xtxmLPVyFBBqZF8LnX2h5a8xcchChyOutfnEyLDFazF1dG3GCDXsMzx6A3ppxVcmuNmdB7VWxtbuy31xn7oOgLw2MxsPqWCxhf18hGuOvv2dXZQgN1Nlm8LAfYqXb524JWINaZUvDzqIwv7DPD7kXGi5u1BbcdIV1XvH/T+SuLtR5yqr7l8vNA48r7veZeH921LxUAs3a2s3hXQvNy3aPd8UDR59gkN16HVN9mEyVFdP1hmkEDrBjiNpfNRAjlakSAo3vsB+La8/fH+tfnb+enp8rF6/7v/Om2PLl+2+dNf);lineShape=1;" parent="1" vertex="1">
                    <mxGeometry x="138.63147758659647" y="-763.8369275942349" width="1.5439600473359778" height="6.160086554090082" as="geometry"/>
                </mxCell>
                <mxCell id="58" value="" style="shape=stencil(rVbLbhsxDPyavRKSqAd5TtP/CBCnNurageO+/r5UF7s1uRWdAr2tZY40JIcjTfjwtn963U0pvF0v58+774fn637CD1NKh9N+dzlc5WvCxwkfXs6X3afL+evpef79+tQj+9eX87e+w48ZF6G0Dkrh57xQEQL9Xvk4xx8Pp9t4hEoW0MoYkAjYACK0NAYgQ9WUSgWOY0CJkKMGBCgOpc64KkCOgA6lRhB1Dih1y2MAE6DOIUBCN56SiY/NiWdIRcVHoODGV12iDOzxZyDNXw50+MQQIARNKLsllROMLCJDcYTXKekUJIfMLqCgBpDfNIaYbZfRqypB00ljguzlQLZtcgJ7fW5AmlJayzACFFOl6iuvLSmugLhoZQRIWqqxQvY6LQDWgLhsMQJkDah+35odngR0pwtaGAGqx4esIa1iH+rIVMi11C5UIyPXUfsk6PjmGmofNc0/JijO5PxtmlchDinpaZYesCc7MSQznO2eXyRjweGeBZOZtbRs8X8AciugBtQMyRkduXdYA1peDGF0sxUNIARyOid3Z9OjwwGaYzBiJ0FrlSugk8P2/pfOoNPpzQPjRl0DQGR7QK7j+GAtsvuBUyORjcm4ALr7J3MVJghOwpKd5k+0rIzi9azR+jx5X3xjt2MbPiI6dvmYfJvYlyPSTT2rb0ebftWydPx9epAx8uz6n1+0d+Pl48/z+eVwPM6v79v/7XNbluanOj7+Ag==);lineShape=1;" parent="1" vertex="1">
                    <mxGeometry x="138.46864427254036" y="-761.4117525955596" width="2.6511528900435555" height="0.22714406645172858" as="geometry"/>
                </mxCell>
                <mxCell id="59" value="" style="shape=stencil(lZbdUttADIWfxrdnpNX+XlN4D2YIjYc0YUKg5e3R1mOIlkSd3vnv88pHR8c7yc3L9v55MwV6OR0PT5vf88NpO8mPKYR5v90c55MeTXI7yc3j4bj5eTy87h+W8+f7/mQ/+nV462/4s3CNUEKnAr0vV2JCan+v3C3Abt6fAxmlGCAJWnWAhsoGyIKaXSCJAUoEeyUltGyAqis4QG2IFmiMFh1AVbIltYLE14FCyFYlJgLRdSITJNolGtiRKRGq7ZzqQE4jooBtI2oFO4BUkAVK84EMsrrmBhIHKGMjUkV1VIphXCGqW5zO6W1pFggITklaQK4G0CKzs0KuaMkCGSE53lARrZlU6OB8dG+TXUFbGfyBoGFG6V8zykPjCLFcB87c/OkNWoPh8hI6MBbQofJa3UdysGtbX3FZJh36YUg1GJySeqzYkr6i53KrBeXbjFYnBjQa6wBofHozmhCHoVZZHTN1QP4HkDima09Dx0whrm7+BBKyE0yc1rQ+i43ofHRBtW4tDHHaEMYwzrym7cXn1ar2AxKvKXLteWuLSODg1ZNsYgRfUc0TWz831xQcR4GYkZweBxmBBHEmRz0x/Bm0AY6garpBofHfpgdfO47HebdbNizn98cdil5adjdy+wE=);lineShape=1;" parent="1" vertex="1">
                    <mxGeometry x="110.29599830451298" y="-811.273611510279" width="0.37813875793057705" height="0.37929876114361816" as="geometry"/>
                </mxCell>
                <mxCell id="60" value="" style="shape=stencil(lZbdUttADIWfxrdnpNX+XlN4D2YIjYc0YUKg5e3R1mOIlkSd3vnv88pHR8c7yc3L9v55MwV6OR0PT5vf88NpO8mPKYR5v90c55MeTXI7yc3j4bj5eTy87h+W8+f7/mQ/+nV462/4s3CNUEKnAr0vV2JCan+v3C3Abt6fAxmlGCAJWnWAhsoGyIKaXSCJAUoEeyUltGyAqis4QG2IFmiMFh1AVbIltYLE14FCyFYlJgLRdSITJNolGtiRKRGq7ZzqQE4jooBtI2oFO4BUkAVK84EMsrrmBhIHKGMjUkV1VIphXCGqW5zO6W1pFggITklaQK4G0CKzs0KuaMkCGSE53lARrZlU6OB8dG+TXUFbGfyBoGFG6V8zykPjCLFcB87c/OkNWoPh8hI6MBbQofJa3UdysGtbX3FZJh36YUg1GJySeqzYkr6i53KrBeXbjFYnBjQa6wBofHozmhCHoVZZHTN1QP4HkDima09Dx0whrm7+BBKyE0yc1rQ+i43ofHRBtW4tDHHaEMYwzrym7cXn1ar2AxKvKXLteWuLSODg1ZNsYgRfUc0TWz831xQcR4GYkZweBxmBBHEmRz0x/Bm0AY6garpBofHfpgdfO47HebdbNizn98cdil5adjdy+wE=);lineShape=1;" parent="1" vertex="1">
                    <mxGeometry x="110.29599830451298" y="-806.5097016899518" width="0.37813875793057705" height="0.37929876114361816" as="geometry"/>
                </mxCell>
                <mxCell id="61" value="" style="shape=stencil(lZbdUttADIWfxrdnpNX+XlN4D2YIjYc0YUKg5e3R1mOIlkSd3vnv88pHR8c7yc3L9v55MwV6OR0PT5vf88NpO8mPKYR5v90c55MeTXI7yc3j4bj5eTy87h+W8+f7/mQ/+nV462/4s3CNUEKnAr0vV2JCan+v3C3Abt6fAxmlGCAJWnWAhsoGyIKaXSCJAUoEeyUltGyAqis4QG2IFmiMFh1AVbIltYLE14FCyFYlJgLRdSITJNolGtiRKRGq7ZzqQE4jooBtI2oFO4BUkAVK84EMsrrmBhIHKGMjUkV1VIphXCGqW5zO6W1pFggITklaQK4G0CKzs0KuaMkCGSE53lARrZlU6OB8dG+TXUFbGfyBoGFG6V8zykPjCLFcB87c/OkNWoPh8hI6MBbQofJa3UdysGtbX3FZJh36YUg1GJySeqzYkr6i53KrBeXbjFYnBjQa6wBofHozmhCHoVZZHTN1QP4HkDima09Dx0whrm7+BBKyE0yc1rQ+i43ofHRBtW4tDHHaEMYwzrym7cXn1ar2AxKvKXLteWuLSODg1ZNsYgRfUc0TWz831xQcR4GYkZweBxmBBHEmRz0x/Bm0AY6garpBofHfpgdfO47HebdbNizn98cdil5adjdy+wE=);lineShape=1;" parent="1" vertex="1">
                    <mxGeometry x="110.44037168914633" y="-802.4675956925364" width="0.37813875793057705" height="0.37929876114361816" as="geometry"/>
                </mxCell>
                <mxCell id="62" value="" style="shape=stencil(lZbdUttADIWfxrdnpNX+XlN4D2YIjYc0YUKg5e3R1mOIlkSd3vnv88pHR8c7yc3L9v55MwV6OR0PT5vf88NpO8mPKYR5v90c55MeTXI7yc3j4bj5eTy87h+W8+f7/mQ/+nV462/4s3CNUEKnAr0vV2JCan+v3C3Abt6fAxmlGCAJWnWAhsoGyIKaXSCJAUoEeyUltGyAqis4QG2IFmiMFh1AVbIltYLE14FCyFYlJgLRdSITJNolGtiRKRGq7ZzqQE4jooBtI2oFO4BUkAVK84EMsrrmBhIHKGMjUkV1VIphXCGqW5zO6W1pFggITklaQK4G0CKzs0KuaMkCGSE53lARrZlU6OB8dG+TXUFbGfyBoGFG6V8zykPjCLFcB87c/OkNWoPh8hI6MBbQofJa3UdysGtbX3FZJh36YUg1GJySeqzYkr6i53KrBeXbjFYnBjQa6wBofHozmhCHoVZZHTN1QP4HkDima09Dx0whrm7+BBKyE0yc1rQ+i43ofHRBtW4tDHHaEMYwzrym7cXn1ar2AxKvKXLteWuLSODg1ZNsYgRfUc0TWz831xQcR4GYkZweBxmBBHEmRz0x/Bm0AY6garpBofHfpgdfO47HebdbNizn98cdil5adjdy+wE=);lineShape=1;" parent="1" vertex="1">
                    <mxGeometry x="110.44037168914633" y="-798.5698516069807" width="0.37813875793057705" height="0.37929876114361816" as="geometry"/>
                </mxCell>
                <mxCell id="63" value="" style="shape=stencil(lVbLcsIwDPyaXDW25ZfOlP4HM4SSKSUM0NffV2kmNHKIUm7B8cZa7a5whavLfnOqK2cu13P7Wn822+u+wqfKuea4r8/NlZ8qXFe42rXn+uXcvh+3/e/TptvZPb21H90XvnocERB1KGe++5UUILrflececGiOY0AGkwQgI3gN4MBnASAD3swD+HsZJSAMK3cBCcFYCSCwYR4QLdgoANYYMEpNniAUR2RABYA0vL4BPDiFBFoIsk05g7PzAJfAFkIYyEkBRAiyr8kBZQVAkJwAxAConIARvOxSyKpyPgDJLgUPJs4DQgJXAOzA6r7U7AQ3AXjFfWbCQS8p04QDk1ZOINaBJm1VdGA3J2mNTjhSAVYq3VlDO8GXSi+YL6chLv+0d4olh4UAcU+sfyijAcHJvnZ9UITwPJlkghYGDfJkkm3iUYaKEC4PTRkPSy3UEVC6b2EcPwyw3FepXMyQFA4RYuFWnTPHK8g4sPeU/aZ0kuf9yvB2ZaCR9yv5TKXxuEKv1c+Eiz8HVJ3aiSwZs9cVAt4O9d4qUqMT+HNSYj0HyQL5Yr9VCGcmHIp6NEOMcnjzHESRM374u3DsmsOhv6+M35cXFF7qLze4/gE=);lineShape=1;" parent="1" vertex="1">
                    <mxGeometry x="110.40697452200288" y="-794.5589564671968" width="0.32358646488257664" height="0.4883822396734507" as="geometry"/>
                </mxCell>
                <mxCell id="64" value="" style="shape=stencil(lZbdUttADIWfxrdnpNX+XlN4D2YIjYc0YUKg5e3R1mOIlkSd3vnv88pHR8c7yc3L9v55MwV6OR0PT5vf88NpO8mPKYR5v90c55MeTXI7yc3j4bj5eTy87h+W8+f7/mQ/+nV462/4s3CNUEKnAr0vV2JCan+v3C3Abt6fAxmlGCAJWnWAhsoGyIKaXSCJAUoEeyUltGyAqis4QG2IFmiMFh1AVbIltYLE14FCyFYlJgLRdSITJNolGtiRKRGq7ZzqQE4jooBtI2oFO4BUkAVK84EMsrrmBhIHKGMjUkV1VIphXCGqW5zO6W1pFggITklaQK4G0CKzs0KuaMkCGSE53lARrZlU6OB8dG+TXUFbGfyBoGFG6V8zykPjCLFcB87c/OkNWoPh8hI6MBbQofJa3UdysGtbX3FZJh36YUg1GJySeqzYkr6i53KrBeXbjFYnBjQa6wBofHozmhCHoVZZHTN1QP4HkDima09Dx0whrm7+BBKyE0yc1rQ+i43ofHRBtW4tDHHaEMYwzrym7cXn1ar2AxKvKXLteWuLSODg1ZNsYgRfUc0TWz831xQcR4GYkZweBxmBBHEmRz0x/Bm0AY6garpBofHfpgdfO47HebdbNizn98cdil5adjdy+wE=);lineShape=1;" parent="1" vertex="1">
                    <mxGeometry x="109.86291486348864" y="-789.0420319663264" width="0.37813875793057705" height="0.37929876114361816" as="geometry"/>
                </mxCell>
                <mxCell id="65" value="" style="shape=stencil(lVbLcsIwDPyaXDW25ZfOlP4HM4SSKSVMoK+/r9JMaGSIUm7B8cba1a5whavzfnOqK2fOl659rT+b7WVf4VPlXHPc111z4acK1xWudm1Xv3Tt+3E7/D5t+p3901v70X/ha8ARAVGPcuZ7WEkBovtdeR4Ah+Y4BWQwSQAygtcADnwWADLgzTyAv5dRAsK4cheQEIyVAAIb5gHRgo0CYI0Bo9TkCUJxRAZUAEjj6yvAg1NIoIUgZcoZnJ0HuAS2aISBnBRAhCB1TQ4oKwCC5AQgBkDlBIzgpUohQ/aKrAFIqhQ8mDgPCAlcAbAjq/utZie4G4BSEotYctBLynTDQSdN3Ae6kVXpA7s5SWv0jSMVYGWne2toJ/iy0wvmy2mMyz/tnWLJYSFArIn1D2U0IDipa6+D5j6eTDJBC4MGeTJJmXiUodIIl0dRpsNSC3UElO5bGMcPAyzrKjsXMySFQ4RYuFXnzPEKMg7sPWW/KZ3keb8yvF0ZaOT9Sj5TaTyu0Gv1M+HizwFVp/ZNlozZ6woBb8d6rxWp0Qn8OdliPQfJAvliv1UIZyYcino0Q0xyePUcRJEzfvi7cOyaw2G4r0zflxcUXhouN7j+AQ==);lineShape=1;" parent="1" vertex="1">
                    <mxGeometry x="109.9738808704169" y="-783.2988085767338" width="0.32358740317393214" height="0.48838439017570745" as="geometry"/>
                </mxCell>
                <mxCell id="66" value="" style="shape=stencil(lVbZcsIwDPyavGpsy5eeafsfzBBKppQwQK+/r9xMaOQUpbw5jtc6dlfjBlfn3frYNs6cL6f+pf3oNpddgw+Nc91h1566C68afGxwte1P7fOpfztshu/jupwsq9f+vdzwOeCIgKignPkadlKA6H52ngbAvjtMARlMEoCM4DWAA58FgAx4cxvA92WUgDDu/AlICMZKAIENtwHRgo0CYI0Bo+TkCUIVIgMqAKTx9xXgwSlFoIUg25QzOHsb4BLYiggDOSmACMFJqh1QVgAESQJiAFQiYAQvuxSyypwPQLJLwYNRmAsJXAXgvikRIivBzQBeUZ+Z1cApRQVAsxq4aCUCMQ80a6vCA6s5SWkU4kgFWOmgIg0tgq+ZXhBfTqNd/invFOsaFgzEPbH+Lo8GBCf7WvqgEOF5MkkHLQwa5MlUTQEDqBDh8tiU6bDUTB0BZYSFcXw3wHJfJXMxQ1JqiBArteo1s72CtANrTzlvaiV5Pq+MAFcbGvm84s9UC48z9Fr+XLBUhUVVqYVkWTFrXSnA2zHfa0aqdQJfJynWfZAskK/OW6XgzAWHKh9NEBMfXjUHUfiMF78Pjm233w/vlen/+oHCW8PjBh+/AQ==);lineShape=1;" parent="1" vertex="1">
                    <mxGeometry x="110.40697761903812" y="-778.3905274074332" width="0.32358364998826866" height="0.48837578814531074" as="geometry"/>
                </mxCell>
                <mxCell id="67" value="" style="shape=stencil(lZbdUttADIWfxrdnpNX+XlN4D2YIjYc0YUKg5e3R1mOIlkSd3vnv88pHR8c7yc3L9v55MwV6OR0PT5vf88NpO8mPKYR5v90c55MeTXI7yc3j4bj5eTy87h+W8+f7/mQ/+nV462/4s3CNUEKnAr0vV2JCan+v3C3Abt6fAxmlGCAJWnWAhsoGyIKaXSCJAUoEeyUltGyAqis4QG2IFmiMFh1AVbIltYLE14FCyFYlJgLRdSITJNolGtiRKRGq7ZzqQE4jooBtI2oFO4BUkAVK84EMsrrmBhIHKGMjUkV1VIphXCGqW5zO6W1pFggITklaQK4G0CKzs0KuaMkCGSE53lARrZlU6OB8dG+TXUFbGfyBoGFG6V8zykPjCLFcB87c/OkNWoPh8hI6MBbQofJa3UdysGtbX3FZJh36YUg1GJySeqzYkr6i53KrBeXbjFYnBjQa6wBofHozmhCHoVZZHTN1QP4HkDima09Dx0whrm7+BBKyE0yc1rQ+i43ofHRBtW4tDHHaEMYwzrym7cXn1ar2AxKvKXLteWuLSODg1ZNsYgRfUc0TWz831xQcR4GYkZweBxmBBHEmRz0x/Bm0AY6garpBofHfpgdfO47HebdbNizn98cdil5adjdy+wE=);lineShape=1;" parent="1" vertex="1">
                    <mxGeometry x="110.29599830451298" y="-775.1833847990919" width="0.37813875793057705" height="0.37929876114361816" as="geometry"/>
                </mxCell>
                <mxCell id="68" value="" style="shape=stencil(lZbdUttADIWfxrdnpNX+XlN4D2YIjYc0YUKg5e3R1mOIlkSd3vnv88pHR8c7yc3L9v55MwV6OR0PT5vf88NpO8mPKYR5v90c55MeTXI7yc3j4bj5eTy87h+W8+f7/mQ/+nV462/4s3CNUEKnAr0vV2JCan+v3C3Abt6fAxmlGCAJWnWAhsoGyIKaXSCJAUoEeyUltGyAqis4QG2IFmiMFh1AVbIltYLE14FCyFYlJgLRdSITJNolGtiRKRGq7ZzqQE4jooBtI2oFO4BUkAVK84EMsrrmBhIHKGMjUkV1VIphXCGqW5zO6W1pFggITklaQK4G0CKzs0KuaMkCGSE53lARrZlU6OB8dG+TXUFbGfyBoGFG6V8zykPjCLFcB87c/OkNWoPh8hI6MBbQofJa3UdysGtbX3FZJh36YUg1GJySeqzYkr6i53KrBeXbjFYnBjQa6wBofHozmhCHoVZZHTN1QP4HkDima09Dx0whrm7+BBKyE0yc1rQ+i43ofHRBtW4tDHHaEMYwzrym7cXn1ar2AxKvKXLteWuLSODg1ZNsYgRfUc0TWz831xQcR4GYkZweBxmBBHEmRz0x/Bm0AY6garpBofHfpgdfO47HebdbNizn98cdil5adjdy+wE=);lineShape=1;" parent="1" vertex="1">
                    <mxGeometry x="110.44037168914633" y="-771.1412742125669" width="0.37813875793057705" height="0.37929876114363525" as="geometry"/>
                </mxCell>
                <mxCell id="69" value="" style="shape=stencil(lZbdUttADIWfxrdnpNX+XlN4D2YIjYc0YUKg5e3R1mOIlkSd3vnv88pHR8c7yc3L9v55MwV6OR0PT5vf88NpO8mPKYR5v90c55MeTXI7yc3j4bj5eTy87h+W8+f7/mQ/+nV462/4s3CNUEKnAr0vV2JCan+v3C3Abt6fAxmlGCAJWnWAhsoGyIKaXSCJAUoEeyUltGyAqis4QG2IFmiMFh1AVbIltYLE14FCyFYlJgLRdSITJNolGtiRKRGq7ZzqQE4jooBtI2oFO4BUkAVK84EMsrrmBhIHKGMjUkV1VIphXCGqW5zO6W1pFggITklaQK4G0CKzs0KuaMkCGSE53lARrZlU6OB8dG+TXUFbGfyBoGFG6V8zykPjCLFcB87c/OkNWoPh8hI6MBbQofJa3UdysGtbX3FZJh36YUg1GJySeqzYkr6i53KrBeXbjFYnBjQa6wBofHozmhCHoVZZHTN1QP4HkDima09Dx0whrm7+BBKyE0yc1rQ+i43ofHRBtW4tDHHaEMYwzrym7cXn1ar2AxKvKXLteWuLSODg1ZNsYgRfUc0TWz831xQcR4GYkZweBxmBBHEmRz0x/Bm0AY6garpBofHfpgdfO47HebdbNizn98cdil5adjdy+wE=);lineShape=1;" parent="1" vertex="1">
                    <mxGeometry x="110.58472671734194" y="-767.099172804261" width="0.37813875793057705" height="0.37929876114363525" as="geometry"/>
                </mxCell>
                <mxCell id="70" value="" style="shape=stencil(lVbLcsIwDPyaXDW25ZfOlP4HM4SSKSVMoK+/r9JMaGSIUm7B8cba1a5whavzfnOqK2fOl659rT+b7WVf4VPlXHPc111z4acK1xWudm1Xv3Tt+3E7/D5t+p3901v70X/ha8ARAVGPcuZ7WEkBovtdeR4Ah+Y4BWQwSQAygtcADnwWADLgzTyAv5dRAsK4cheQEIyVAAIb5gHRgo0CYI0Bo9TkCUJxRAZUAEjj6yvAg1NIoIUgZcoZnJ0HuAS2aISBnBRAhCB1TQ4oKwCC5AQgBkDlBIzgpUohQ/aKrAFIqhQ8mDgPCAlcAbAjq/utZie4G4BSEotYctBLynTDQSdN3Ae6kVXpA7s5SWv0jSMVYGWne2toJ/iy0wvmy2mMyz/tnWLJYSFArIn1D2U0IDipa6+D5j6eTDJBC4MGeTJJmXiUodIIl0dRpsNSC3UElO5bGMcPAyzrKjsXMySFQ4RYuFXnzPEKMg7sPWW/KZ3keb8yvF0ZaOT9Sj5TaTyu0Gv1M+HizwFVp/ZNlozZ6woBb8d6rxWp0Qn8OdliPQfJAvliv1UIZyYcino0Q0xyePUcRJEzfvi7cOyaw2G4r0zflxcUXhouN7j+AQ==);lineShape=1;" parent="1" vertex="1">
                    <mxGeometry x="110.69568354605121" y="-763.8100858544007" width="0.32358740317393214" height="0.4883843901757416" as="geometry"/>
                </mxCell>
                <mxCell id="71" value="" style="shape=stencil(lZbdUttADIWfxrdnpNX+XlN4D2YIjYc0YUKg5e3R1mOIlkSd3vnv88pHR8c7yc3L9v55MwV6OR0PT5vf88NpO8mPKYR5v90c55MeTXI7yc3j4bj5eTy87h+W8+f7/mQ/+nV462/4s3CNUEKnAr0vV2JCan+v3C3Abt6fAxmlGCAJWnWAhsoGyIKaXSCJAUoEeyUltGyAqis4QG2IFmiMFh1AVbIltYLE14FCyFYlJgLRdSITJNolGtiRKRGq7ZzqQE4jooBtI2oFO4BUkAVK84EMsrrmBhIHKGMjUkV1VIphXCGqW5zO6W1pFggITklaQK4G0CKzs0KuaMkCGSE53lARrZlU6OB8dG+TXUFbGfyBoGFG6V8zykPjCLFcB87c/OkNWoPh8hI6MBbQofJa3UdysGtbX3FZJh36YUg1GJySeqzYkr6i53KrBeXbjFYnBjQa6wBofHozmhCHoVZZHTN1QP4HkDima09Dx0whrm7+BBKyE0yc1rQ+i43ofHRBtW4tDHHaEMYwzrym7cXn1ar2AxKvKXLteWuLSODg1ZNsYgRfUc0TWz831xQcR4GYkZweBxmBBHEmRz0x/Bm0AY6garpBofHfpgdfO47HebdbNizn98cdil5adjdy+wE=);lineShape=1;" parent="1" vertex="1">
                    <mxGeometry x="110.72908174553731" y="-759.0149608094302" width="0.37813875793057705" height="0.37929876114363525" as="geometry"/>
                </mxCell>
                <mxCell id="72" value="" style="shape=stencil(lVbbcsIgEP2avJ4BFtjl2bb/4YxaM7XqqL39fUkzUaFxNW8k7GFv5yw0NDuu5/tl48zxdNi9Lb/axWnd0FPjXLtdLw/tKa8aem5ottodlq+H3cd20X/v551lt3rffXYnfPe4JCDfoZz56f9Ygti/Py89YNNurwDWGBhTICQg0m1EYpAUgGTgFIAkSOkh+SHKUQALTCwBjKAAIoG4BCQEcxvgGS6VZbrUYRRBFj7VLjSA5aGKZ0BEVAAMWyVNMEFxAFvmLAJ2t+1NnbJ4GFZqhOgKe841TUo8BC7bzAGsdM3F4bwzwCEpGXg7bJ8BuSsK84LAmikApmH7wZAkguyUpFOo1XOnrJlmXHro+iYKQCBlDh0xNEE7SDkz7jBPHKiiqk7tKIMaHxRPcIgT9ZkjsLULbQRk/aRKn/qQsQa2mgD6GHP/IsoSVAU6bRBPtbeIZdfuXA00jIdLD+AV4uWZWolNLU/nvVSzR1COz/UMJU3PNBwPP9O6zNcM99D4dPGwUtmrHA21znT7mAe8nxAPM3yckG8eRVX8Xh8srr6Wc78U1WeNV4K5w4fJb5EHAHlxefqs2s2mfzld79dPpfyrf2bR8y8=);lineShape=1;" parent="1" vertex="1">
                    <mxGeometry x="110.92457118100924" y="-754.4826580586633" width="0.23965782448264272" height="0.8327849805770977" as="geometry"/>
                </mxCell>
                <mxCell id="73" value="" style="shape=stencil(lVbRbtswDPwavx4k0qKk5677jwJNF2NZUqTptv59aRhpSiWm4zdF5kU88nhSxw9v26fXTUfh7XQ8/N78G55P245/dETDfrs5DidddfzY8cPL4bj5dTy875+n369PY+S4+nP4O/7D/wlXC0RGFIWPaScKyrTzcwLshv03QAwBIRhEIaQyj6gZXCygIKZ5QKko9oTKiP08IBcES0LPDDQPEAZnC6jgOg/oM6jaMl3qcBPBEb1FaKmzc0TMELaAhJId1ogN6YjkxEdEy7kImOfjQ0u5BIhXIwiZ+JxATpsjI9s25+AKiQTJZiRfNbidUUS1KUkCO4CkwgxrAJnR85qUxprHNaRVBM30LJRVlZztCQt9U10Wy2FBGJVQ+ivlORzUILiRqkrbAUhBahzAH55EZ4p3z6dAbJkWLEDnpzbz6ZtMDIiNA6iNOXWlNqPRJx3bu2nEjgGsNe4Itm1euBoIOdl4cpsmqA1fVM+/+JztOT5BnA7TlerIFR1f5R9Qnfi+P3fnEu8pLn3Z+X3x6iQkK/LJeoGkFXx1yhvv8uup6g3NheD2S8eDrvRQvAPWvkXuAOji8vR5GXa76eX0/Xv7VNKt6ZnFj58=);lineShape=1;" parent="1" vertex="1">
                    <mxGeometry x="111.07250981305037" y="-751.4484079990968" width="0.23250897322966071" height="0.6662728026493571" as="geometry"/>
                </mxCell>
                <mxCell id="74" value="" style="shape=stencil(lVbLcsIwDPyaXHdsy88zbf+DGaBkSoEB+vr7imYSsAoKuQXjtVbSau2GZsf1fL9snDmeDru35Ve7OK0bemqca7fr5aE98VdDzw3NVrvD8vWw+9guut/7+Xnn+et993k+4bvDlYLizihnfroVa+Hob+WlA2za7TUgw9QA8vAKwBoDYypEzohFCZFAuQIUB7L3Abkg1xFKQPD3AYmTiDVgWLkJiARKNaAgmvsAn+BKXddLHW4iyMIXGcIpWduESDWAC+eUrGFF0h5B6xysyJlXlPONTDkneKWoHrFWUiYUjQ8hCSEZFKWkLiLUjLjxMSuMrJyGlBCUHoQMa6YAEvXD8iClHHvpP5g0S19Mz0hZWWZJROC+JdUCshAeC0OL4JD9FOVlnnchVV3aMSMIB9CHJ7jegh6ez4hoZQjNAnh+iiiTbjLWwAoH0G3M/WPEdVMYTTXiqfs54Vp5I1cDn1/vH7l7bC+agQ+CIoogb4WAosjaOumn7DcKG6YTa1UP7nFbQENz+v0GMShmRLKcukBDlDezvj8mOfc6HzYqMZR6vuwi4s7U68me4Go+er94mnx9vi6H6U+dcQB/XF5Wq3az6R5m1//Llxgvda84ev4F);lineShape=1;" parent="1" vertex="1">
                    <mxGeometry x="110.63408457446485" y="-746.2596090468903" width="0.24319256835144898" height="1.0734136668100092" as="geometry"/>
                </mxCell>
                <mxCell id="75" value="" style="shape=stencil(lVbJcsIwDP2aXDW25PVM2/9ghlAypYQBuv195WZCkWmU5hYcv1h6i3BDq/NufWwbNOfLqX9pP7rNZdfQQ4PYHXbtqbvwU0OPDa22/al9PvVvh83w+7guO8vTa/9evvA54HKGnAsKzdewEj0E/Fl5GgD77nALSGCiACQCpwEQXBKAbMCZaQB/L5EE+HHlT0AkMFYCMlg/DQgWbBAAawwYpSaXwVdHJCAFQHl8fQU4QKUJsuAlTSkB2mkARrCVEAZSVAABvOQ1IuSkADJEFIDggZQTKICTLPkEySm0esiSJe/AhGmAj4AVgHlTTgjsBFwCYBIdLikp5bse9KYz65DvaFV0YDdHaY0iXFYBVipdrKGd4GqlZ8yX4hiXf9o7hrqHmQAxJ9YtyqgnQMlr4UFzH08mmaCZQUM8mSRNPMpIEQKZRdlEGZZaqAOQTNDMOF4MsMyrVC6wXTUhIFRu1XvmeHkZB/aest/UTnK8XxneWAeaeL+Sz1gbjyt0Wv3ccPXnQKpTi8iyY/a60oCzY73XitToeP6clFjPQbSQXbXfKg0nbthX9USNIHMnWYQgcsYPvxeObbffD/eV2/f1BYWXhssNPX4D);lineShape=1;" parent="1" vertex="1">
                    <mxGeometry x="110.98440989419873" y="-743.0221192484582" width="0.32358927974624896" height="0.4883886911689377" as="geometry"/>
                </mxCell>
                <mxCell id="76" value="" style="shape=stencil(7VpJchw3EHzNXCuwL2dZ/ociRJkTpkkFRdnW75WICbSnEzPZ0s0H3YZNZGOprKwFfYrvvjx++PxwCu7L2+vLnw//nD++PZ7ib6cQzs+PD6/nN/w6xfen+O7Ty+vDH68vX58/Xv7+/GGMHL/+evl7vOHfC86b9wMU3LfLg+itXp78fhn/dH6+Gp/N7ceHbr7dH1+t0/hqLt0f74OltgdEK0EAsoW8B3grUQAab9l3y/U+IDjLZQ+olooARPNpD8AiFaDMM9kA0VwWgGaNluSs9vuAYdU9oFkSZojJSt+NL3JBsVrZ7yBKIyQ3j3zbgGWx/hSt79fvzKvx4F2g8c4JWntePx4IWudk3u3GJ2uCpTkzrbs5wbmM44779SSLYsOYoJPfgBFqx9nafsfwzCxMDABRYpBEsBoAsnHyltSml0OCGesBYG+FDNrpPTCgT1/9wSWVZE4RI08eb4Am1QWAurd0hQRqS5Pv12Jeb5qoUfshNfaS2uLRDHHPpVY0W0FmkqM+Zfw2YDuTzX/89PDbAtCt7FW+w2UFW1OZ/94AWbp0CpMIG6BYE5oHjay0pGpBiXCcYeYKkIThICohLgAVRxDOwwJQsdCbW5ckLD1CZWJAVuE5MDV6M6dmQAoTGFCFpREqQ2dAE6fUFzNgAqEBbYaOq/FKWRGrlvUoquJIF6Mp1as3jKyCOWhMPIU3i/1i/F5U+xYq7ozn/W40vLN+ZkSSbrDknD1ak/bKjccnMb4v64nT724TLnEyAoDK1pCQusw7Vln2yD46A6rK1zwHEdggCBtE6Oli5KjkEWqXlhnEKY3ImRmgSoUSlhnSZOJtQOcwBUBURMKK9xlM12ltc5xf9GBN6GnLXIyMuCbqr744DyKnsgN8vTYGBLGkIVaJAUlsuuN9jgGK3gBQJtmdtAMAlP0DIE+pc8qDY81CUgFgLgXpcWPTjQGqcMaxUoUBLqm4BsO1RZak4ep83zVAxbVyQ8iUEMMh11MqatObRlwBnLJD5tIZhpPkg4uSAzkZnAHIgQHS0oXFuOn0GYC6OJCKnyMjCgxQ/QJwKS4eFzW93QJQKQMALMZuKtVdj3OLHcQpeed4TTB1FHqPKagsGVqpfTQRIMhEbOSBlQFyhrbQVacCPw1AIcVOnaXLtTVDL9KDEOQqzVBlrwRhtC5VhmreIFB3OlYcw0FNvGTcsj20tHsG41UttrnwFUD19EYDbZlBVXtIyajwuWL8vcZkbMsU4ph+VT6/Kp//eeUDRV8ENYsJRrsgMkBJxWhIrImbMAH8klPDA0A3vy5JSUXkfHgAhNWSW+KUl9VbAsvoWDfPvg1o1vd7aFXOkB0zowXJJABohqMm42K4ozamn2najzZKPSefR61Yz+Q7avaiqPi5dvIKOGhYe1a8o5a459RwNN31Hojeo62vLU1JEmRH3dABkAjgZrviXu+WZNVrmQS9qf2BSJeVxxVuJ+sLuhS4yqgyp4prdTj7LbfHF+5M+CAderSG6RIzycgTFyN4fREblr7B6EqpS8w8ZXQzs9fCGpiq49JQpLZYAHVXMKe86i18GRN0pop4RSUGzk25W1vuxMIM8beJtLw/y3iY5gXB1XjlOpHLNjBL3TOGmcNejVdlXuCMc7xfmYwTSKxfnadjR8b4JN7vOMmGeHWhp47Lr6gTqqVGheOpSyHHQW0kA3I82zfIeOD4VgvjVcBZKoSDzzuOPwfBj/++Jfl0fnq6fIpy/X/+9gSPLt+txPffAQ==);lineShape=1;" parent="1" vertex="1">
                    <mxGeometry x="114.38108016542401" y="-762.4654339374837" width="4.290513820450084" height="5.189058995613613" as="geometry"/>
                </mxCell>
                <mxCell id="77" value="" style="shape=stencil(7VrLchw3DPyavbL4JnF2nP9wleVoK4rkkpXE/vuAWZM7bM70JLmlyrfVir18AGigQV7Cuy+PHz4/XLz98vb68uvDn9ePb4+X8NPF++vz48Pr9U0/XcL7S3j36eX14ZfXl9+fP97+/vyhjWyffnv5o/3C1xuuWiPSUN5+u33jiqnp729+vgGers8zwAIgGu+OAaWY4GeAMzESgDd5Bohx4Xh8TibWaXwxvhyPT9mUMo3PxpINJG/s/PuJrj8uG46mVjLemyIwPpH1hGhKhvGR/L5ur+D6LRtvTfVwPoXs12UT5/WLCZmMDyaDB3lThQC8SfOG1UeZyykgpBkgplo+Q5gA3p/twc1LUiOIJwANEgCUfmz7gGTqDAgaecSt9UwkzgBvIgGoncFu6lmZ7EH9IM/HGgqNhJC6mQagmkpCOaiZIgKEGC7qDIKAzILfoeEU4AjfKVvUgJsOZNN5nPoAZOPJDLl2uhoADVBiByXI7848ABpSjII1gOeIVtdw5FhbVgCApb5Uk5HZ0uoslQEqppHGkmRJYpE1vDOZAZwpENM8gMQbPwOUNegMHiNOAYyXJJg6n5KrlDUkYmpQAONiScjdCsiEZiT3bL+dgTCflL09sGOtyBrtlEj+EVkKBjGF2UEwwamlHZnBWfUEi4iTKWSOUfU+zwwxlrwB0HMVY+dj0jTNmEzPNUBAVFpnqOUy0IZWWoSNFeCA+nLPk4fONM8QrUlsSRnzboy0+lRAnL0vVlo7NMDsTFrOJRZyCpiXpBmAlZ8NMLtGEpOY4XTTs6XzqACPAFAQ50G3RwDge80xlW8aaKM4Wp0oABJEicZy2rAAyNw11PlmSxflGe6tfmaBGmh10pY0W7omfkoJN61ZjDKZnsmcIDSLJZ7kZHYNGbXvfhpdTknn9Cyzj5AfAFUzZAaVb6jGcq+u9wEOFeXd9vv1T0bXUEBkBZOy+wJg3JoiZnYlT0t8SUkFBIQCPIkH1XAuIoBRZVgStQIKq9aln8kACJWtPmBCUYAnpxSNKzheyJ49psR7ktzPulhptBxJzLzUoMJ1pcX4Fy42lhqg2ZiOx1ArtOrWUF/jgOloE2E9nCF9Z7fNeMZGYSeQHfUHKPSE65jUq4/t+lnfBpNUSypk/aXPvjnPxPpIy3lypVcW/+eVcO5ZfuufhHpHObf1f+I/EbseLb7I+oMJ8+9vytwDBwJ1rhOw4sv1zLIZzxpVtieWLWORRGAXwqq9FjsaD6w+tMnB+LAEpCfrcShR73XVwXnaguMZYYU++zYgaQD/u/GNIdZcTw7U1yUppZ5qj7IYxgxX8dEtPhFpoRnLwqKRslYKqBCa6ma0Jf0QNwDm1nkR5QpwjIhWR/VUbZZFMovj7ZeIx1q5ZK5Ls7AO+tsHDG77h9W1AkAWndTvVZBPTxSCAvK86RMN0s4EAFzlKKDCTQHXUQqQeYYzpWZRIZxpwaUKOVObFhueZ3rWYjycKWaLeSGeNCKWPTTVz10DSsHWV+DOBx2hMPoAhwBobXva5W2Gg4YnL/gVEJb+Dss+slzDKJ8XNsOPhud3wI+G5/+h4Vl7K2QAAr2XlIR9Ap95v8bjxbCKaMv5HjR2cL2a2AcsV8/tJoYRk8M+QbsjI87UciDcV+UehEftl/WCK7FuSloAQu/c0sjjg40dL8k8ZvbWLmHtl4zeGj0tK3XF2EcOPcfsAwJaWmcQsof7m4INgNF3a3csOYvechessHRX7JLOhZ4DN65RWYPBLjeTke6hYCfvJBzycqdXaW8xYtLVlEhfPmB31PPuaMACseU3qqAx+WQqHSIKMjUJ65gltLBztMgoGAaVhr5gwyPTbO6Wi+pIK0k9DBB7/NlG0/9wPLyftbwWsPQCTPcrOJ71p9TZQQ5bKhc0/CDkeTtFi1hoS1taHEUNb8H9EvOmiCWno7+vPA0vSBxNlzksVQV9V9S0EPBPr2P2vTn0Su7ub0x9qV4E90+0/6W5Fe7VSo///fEZtZcbLdgj0RzAACfZvnY6GwD+NK1WzGMKYOWvAgLsoVKnWIV/q5eZ9io7b6lYGOixZocAVv5qEVUWmmZpo8bFsYVqrxp2dAsV/gGf/CkgsBn84hpCtZc6a65oB9ZcrKP83gACs/R/eNl5BtAP94ekn65PT7d3qNv/48NT/er2aDW8/ws=);lineShape=1;" parent="1" vertex="1">
                    <mxGeometry x="100.52848172707445" y="-762.1531798143748" width="3.3803384980848548" height="6.519885077045967" as="geometry"/>
                </mxCell>
                <mxCell id="78" value="" style="shape=stencil(lVpJchw3EHzNXBHYlzMt/0MRIs0J06SCom3p90poAs1GYjqHus1ShQZqycoq9CncfXv8/PX+5O23t9eXv+//P395ezyFP07en58f71/Pb/h0Cp9O4e7h5fX+r9eXf5+/XL5//dwl+6d/Xv7rK3y/6LVimuta3v64/BKMi79++PMi/3R+3ss70zzJh3AsX6vxvH71Qh5/p0k+mpSO5Us1xU7yySQr5L1pdZLPY4Gr8hl/x0m+Svtka/y8/2aKOG8KJudJ3jkT6rFCLCbMBnXB2CYUsN5sIReHja8qhMQmctlkcebg2EaumigUYMM4G8nDbMJKcCpFhffGCbchymKbFaKMU++MC7NCMTYfK+CIebZSsNIPMKKnzAnS03CTpdRBMArHIXJqmXNHmxWhOcdeDGOF68lj2uxnBGMURs3shOSMFQdIY7VNHskvLJTYQAnJ6ZQ8pU52Y4cH+6eYyMgcsZ9i3HzeXE0QMVTH6YZ8wX5EVDs7YnhTiCO5ryt442ePFYSQCtJo4hykpclEe4eGDR+dScIHyJsyG6lDvtgSoKHOVqp5+P0ILPJ8htpMVk9AjZq3hCoXFUIuYNFQVkQihMh+aFGWkVBGpu8UmvADUL7Mh27IJmGlmBgsoKBQPm3wtlNIwqxraYOCVencOPgaSpvAr+yX4Gsy+PKypQqUV+U8jgTeFKKEVCjEGWN6PohYygvKg9JkARo4A6FMSVoBoUEw4weJO/JDIpixEidT5owD8DlRSBAalA/gWV6RmMY0EnZTOR3x95xA3W7i0CiVds4H2K2JJ4AmhcYKToQ3+EElBatxCVgdWEGFN0hRcssThEIbILQ7ghfylcntjSMXTgbsp6l0u3ZgSTD87DOEbhP7yexjyKsCnUcU7wiGYvPZpMjyCuZBGGZ0SWWwyiMCllheUchqamB5L/KycRHp6wt5Zzng+gGUghtJ+EELQSHZxQWKXziTSQE+1qyZgvRGEOHQ5IUepSIqoEBheiMN2uiePphmlcPuRhoXbl0gL6sg8/4OKzLNGBmt3H8erH3ngSSiaJWvkn4t+4F8kGnclrSp2p6F5RV/rFxfe1pq//6WPOpAmB3cK7RqlwsTWigo1rK2/FBQcx20rnmBuqDHFnXBUoVd6EUtQYsmg2hGOY+dpAj9iFSebvBTpDklftL1Jg4g+SCRyoVb5uIk7c+NSw5ayKoGZpY5AvipYsBQ4PbLycYCCgTx4NiKeeEMlG9V99kwop+fgAYvK1KeGAHQfqmMRifC7VcerPt6LFUmg63KUpsi981N1zX0az6wgqL9MXEhdBakWDWdi6vxCDWhAmemXr413Qc75v0wkypVK+VsWfYuPo4x387VisL0SSG15l5znrq0tVaCq0P0UdNZJVa6wL18zXpq4wZY74YwqhVpyxTcSTAuY461Aw05K1jGTmnMJq/HxVht19IqCuaZyHccFIzB8awDiBBFOi9Tf5QSZc8tr3bVUM3l7MIA9DWKW25FrBy9LP14zAMyD/xFDCx62aiV5RYILF42IjR2AXIoRttZPylohHeRS0JvblVEZMZfr6dZDuxj3hKiUN0o9O6droI0De63InTvUsYS1xWWwgmoUcU/xMGTN4UoJ/ihLVvyckKNotO46MhMTn5Q3w2KZD/YCy3NIOQgFYnOMwVJCsG3CIqCZAqlDCDZwkKuXz1ffTmJXLWM2jLkrbwQbcvg2MrMb2WY+11ecQTUa4IWyIv9Q76wvBP27ASikbyiRW1Jy43EHMkT6d/a/yN5vj0dt04Hw4GlFujS0R9AyCVhpS1J7+UlU6eVkeTVDTkcRm8E6LsQyFPLEiSO/vYbCjfl8eH9dYiH89PT5W2K/f/8+gR+urx6ET79BA==);lineShape=1;" parent="1" vertex="1">
                    <mxGeometry x="83.3956792538686" y="-760.5265371593788" width="4.3578555441017395" height="6.100463293866281" as="geometry"/>
                </mxCell>
                <mxCell id="79" value="" style="shape=stencil(lVnJchQxDP2auapsS97OLP9BFYFMERIqhO3vUTOlji33vITbpKPXbUlPq0/85vvth283pxS+Pz0+fLn5df74dHvit6eUzve3N4/nJ/114ncnfvPp4fHm8+PDj/uPl7+/fdgkt19fH35ub/h9wWWKsoFS+HN5ECiGfw/eX8TvzveDeGSK7OQ5AvlOPXt5uS6fhKqXT0Ce9XXdy4Pzc6GYvL71urxEas3LZyBfzXyvs2dOFPz5A3h/rhT8+wN4f4nUvX9zB/LFn0cNAOxfOvFsTyEBfKiB6mzPSh3Ll1k+RgjYDhRnQCEuAFCNAAZQlZELimo4q5wKBkSKZQIw/oI62RmJM1XgtZztfTtA4w7QWmmX5zAWpgbMmhe/SaHeQCB0qjNRM2ae6hBXADIrex0UEBG3mxlxBCDyCaXiAQyirS7RsNkNHKmxGXEHRCog3lqzdLgDEjXg6a4JxukglMEXerYA3gGFCvpC8yk1dyrAcV3/PR9JXcmASzEEn/U0agM6U6c8K7ElkgSVYJeXducfA9QoM5lqha7u4vndIiyFPRrXdoBQYcANTaVzQOiTAnTQ9/EM6MHK+zEg+Fyp9BJg1pq9WdUMAhyn6bvPZFJDB1SAdjbvgAodp+TkOVeq7xNKfWwBNgAasJI0yrPjlI4J5Ur2BeI5RI67mOq7KgU0EHKcDgAd6JCaTxsbAOiQ2Pquve4G3JrE5uvopgQgk/aePXoAA63DYlaGjluyjLK7Azdoq8leHtWTYOrt8hGeP1J1+mo1AcGTlvcHEkRUCos8Oo9W6OblMwpmK8eDvjCWF5LuFjjOLtbYDfbPQN/qZwXlg6BybqcdkhcaRorl80G+A/m8nF9rLxouLE8N8sg+TGGRL6jO+lmnZ1iXw+IvgcNC8AXtuSZei0d3foapfe/mBj4wKMnKXqdvhC1qXPgToH+TRd8YL9BfZYl3FI9iLfsY76jrX/wbYNUoVNnbB72/+nZZ7Z/A+/9XXitGWwiHWlO1qO9XxGxwtewtFEUALazeBwL7cS3dhRcAIIUkywmj0iAKpJpNxrSF0nrys91WJ9HSolovPQYmSozpIFO/MJQnp0O04nNMpehnirZ3ktc6U1dcdbRCm52WfDXT9jmh2U6seRgaftR+aLcuM6A2PD2uU06GTdqWrxyA4Sai79ufYY4KgK1bBM/UKJjePfi+sQSbrI6Vzn5oUTqitlGN6AEF6qA2cY7LmTJia6PePUDw0OL2NdsXUObuFJoHIC7lZUmlgA5iWgo1p4PAiVn4YDkSECBbuOwrpAzLuSYyNzxKNENf2zm5bQo3a9GvZj63N2P4hZz9Cil1Y9cxoPkQ1aqd0cI2+L1Z7NAPW26ddYjZkue1vZlrY2KEBUW/4LJGgXu2XLwbxHR65Q5c4P5o3bGrPKL20tcKXCyudwQCx4r1DgK7eL3jEEv8x23PcocisHiudzQC2+DlCugFc9rMNGiLbmg8nwX2tOwTncCRMfkWnuGKLPntKcOav+xOEwzFA/GAmk1/mAhpuaga4Qp0MWTAKyXvpgA5tpBg37W8jmIv3Iq9JK4/ni80P53v7i73oeP//QWoPrpcnvK7vw==);lineShape=1;" parent="1" vertex="1">
                    <mxGeometry x="88.47610318585475" y="-759.6859912193668" width="3.7414947307769393" height="5.16113339123784" as="geometry"/>
                </mxCell>
                <mxCell id="80" value="" style="shape=stencil(lVbZbttADPwavRLL5Z7POf4jQJxaqGMHjpO2f1+qglzvEhrbbzqGu+SQHHKQh8/ty8dm8O7zdDz83PwaX0/bQR4H78f9dnMcT/o0yNMgD2+H4+bH8fC1f53fP14m5PT0fvieTvg920WSMBl592f5kN2/D88zfDfuL+AcSLjBJwp1He+Zau7wLOt4keX3ghcqwB+pFEuH57yOj0wlNXj9UNbxSaj6Bu+o+HV8VXzo8A74X+Ny/YL3lND5mVLLPzvy6IJCtQ14SkkABpVybRlNlEDK2J1DPNeQp8zwii5pqVBEBvq7DaJ4EpBmpcm1ZVc9FRR1JN/mTe8sIGpNtG9jmIhDMTBJy6veKaD0ip7XBZ1IQKqLstQGnYUCcKnkvlhjIYdcMgZBi+kul7T/I0icDZqFEhAYS2vADWTypv2DzjeFwVBgbOVl4oRLu8Wztjjuz17xmCKSbNufIS8qfqMEqAwKIsmITC4LDTfKmCa+IJdUJ7uGztglFeJ2kFzwcKN0X7Oww0GZY9A/dvoocwyq1Y63mqAs2fmpBmg+2AGtPBSQOrsBqAESb7Nh1ABlLJCL/fkOnH8W9otS8oBTptwGXAR2qKPaxpvjFXy/IUU4GOz0PDN2Gz6o4t3jjwSoeCZezQgqOcMnJzhqTb50g8mg4Ew9JKrA/TsX2qtwffi/O7+Nu928el/+73dt/TTv6fL0Fw==);lineShape=1;" parent="1" vertex="1">
                    <mxGeometry x="79.01223645725167" y="-806.9167239237827" width="2.4051832373007165" height="0.2921022655927206" as="geometry"/>
                </mxCell>
                <mxCell id="81" value="" style="shape=stencil(rVfZbttADPwavRJc7v2cpv8RIE4t1LUDx+nx96UgrCpuvRMU6Ju84qx4zJD05B/ejk+vh0n47Xa9fD38mJ9vx8l/mkTm8/FwnW/6NPnHyT+8XK6HL9fL+/l5/f36tFguT98u35cbfq64QJ4XkPCv9YCJ14PPq/lpPu/MXaKajH0krmN7qRSKsdcbohsDfKZiHRKhkMeAkEmcBVTyYQyIiYIF+ETix4AUmwMNEDw5AMihDzpqVssYUCPVagGJSgSA3JctFnIgS7VQsHVLjpIAgCYxWoC6hAHFBp09CaiDArqgC5MA7ikg2RiKshGltVANBlCFSoJprTateoKoURMlm6XFSQSI5F0PKEAPNRCH3qWMqCG9QqunhKgh5GzhSm6VuQ9wlLvCuRbVCFC8pYa2HZQlIbFfSBo0imET5AYQ2AQ0rWILpwKKWKKxAyj5UNCp10PMrS2M2Oos+RI3J0d66AGBKpZotjFkRwxicLxNgw2h/RkVorYmsXEjNLaMAGIByhZGlSskNq9L90Qu5dZ7d5JjBIiUrYJ2efhPCO2NXQOv3Dh/fwipYrrEai9DYy72X8h6Ar4QErluRGSYWB2bybYmJWwGQYsOoW5qaQzApWVXsKULOlpB0L5dt9lL6+j3PWoS3tkzUJA0uWyrgw4xIFHXk1tzVoA/TMkmyAts9kzOxqspZmjPfy1XqMTcbtt4nT/w39s27DBJub3dSE0etEhH0V4fKAFzHQF2b3NtNA7I041mbvj7evm3zflDc334s6S/zKfTuuPv3/dLvR6tfwj8428=);lineShape=1;" parent="1" vertex="1">
                    <mxGeometry x="78.02288964788977" y="-791.4314694409609" width="2.6203416176188448" height="0.5007505046917761" as="geometry"/>
                </mxCell>
                <mxCell id="82" value="" style="shape=stencil(lVfLctswDPwaXTEkwec5Tf8jM3FqTV074zht8/eBRkPFgKxNcpNlrEgsdwFw4LuX/cPzbgju5XI+/d79Gx8v+4F/DCGMx/3uPF7kaeD7ge+eTufdr/Pp9fg4/35+mCKnpz+nv9MX/s84plAnUHBv84uUyc9vfs7xh/F4Fe8FkBUgNioMAI1C04BIMWwDQqIQFIAb1bYNYE+BNSCSzwBQKOocQqEKthSZstOAQBUkLZwkvYKv/RM3ASl1ThZAhLRm1zlZAI4ayCFnCl4BCvmyHV88xaJZpQiEUTJlfQqeEsi4JcupI4fiCzlvvs8ovlqhJnJARU10GleEAoIEUA2gEiMnuCXDRUaZIspBrKUBomy0hCTdjDt9t98Wq1X7P2ZKCQCyVfakdURTIq9pSkIDEGpjKlp4UTYJ7NwCJVNhmBit4Lu1FlozVZSDkKi3FBqskjcAnhzKQbZk/C85oC1J0vrgMjUkJWHV1DysJDk2zZEj/4kukolPiKHSGf8oL1BGK2VXWLLFOtnUx9QZ+LI7uX9jswDolKUToSWmEmMArbO8WcOMFaSIIUDp1loAtVepzSqsq6q4E/XOCRC+Ayihl7gFII0BbClLXzIrRNhJsrBuZhhp8GAFGXEMrdJNIUD+1geXudNwu/9Hy1IusOhxpaJXkP6LTprFvlrf0oBR/5f64IyBAjngaDGwaYg1wYlBJhbWWqq1d5fbLNkxbHIUypmSmTAcnhmCFbcYCk2S3naeqaqhjDuBSzxDhlzX8RcJcrZ1VoYjyaqCFZGVh/HaOEVmPBhvNJcrbFKrGVVsg5qU72xf+TIAX4oHVsZHtvzuZefzeHn4uFk9jYfDfDG7/t/exOTVfIvj+3c=);lineShape=1;" parent="1" vertex="1">
                    <mxGeometry x="78.73164855615346" y="-757.6801602150152" width="3.109376095732629" height="0.5451917538264177" as="geometry"/>
                </mxCell>
                <mxCell id="83" value="" style="shape=stencil(lVrZchw3DPyafWWRBA/w2XH+w1WWI1UUyyXLOf4+mCiYXTZnestv0i4wQ+JoNIC9yIfvj5++PVxy/P72+vL7w19Pn98eL/LLJeenr48Pr09v9tdFPl7kw5eX14ffXl9+fP38/v+3T5vk9tcfL39uT/j7XU966HHTyvGf/z8JI/33wa/v8s9PX2/lUxhtkm9h5HP5PEKUSV79AcfyLdQyyacUkhKFEkqaFSS0ThRyaHlWaEHIlXMMYzZRGiHFcwX7us53ziloIQoaMiiUoMSqduJRZ4Xunxwr1DD67OYUIrl0KqHrrGCGZneQUGc/iIZIHGd+1fkNJYdMQiPFUGbHleaGPlSwSJtfUBP1Ww8626jWUEkktaBjToUYIpE3H8yh3czIxGk1yHzfxuOueJC5fJcgxKDFM3eX7x6HJ+cpc+qrxRA5T/OA2eWL3+jM/vN51M5D7DPcO7v8CMryUjAghtDMt0TO84mG2ZhYyEyU5pAYlbrMslAF3zBImklFbDGFSowqZqWGlx6DRIUgApsCc0NZ/DYyVajZT7wrRPfMsUIPESJvOOofR17Cqmah1EgqtBbiDKhaqactFfENQu9guRjn0NBEK2G3qjQr9BEae8NAfNzymShodoDeFQqtU5a/bbZSzzSjtYUOEGl3II5TDW0Ob/NMI9FqkQNWalb+ScYNy7i5ThlqV3JpC2adL23hWNkbJJT5SNVKJ/GDKXQoPCkIfwMwEstBxtq2N8xmLYVf2lJ+BoES3ZVnVhLgC1YeSXiPvRbvCkKrp6V8nc1qBYAxEkt5gHuD58YUWkjzpY0rCiMYghXdmNxgCskL/q5Q/VZnOQ0ZZ0Uskjt0K9IAZBTte/LHXfk8i9VW0QuVhmo1ygLp5jh4VkwAxAbFMKOAQEoGNWip6/NZYbA8KRHkC5OXpbZ5A3Qsn5F0Kq1sJg80u9Nux+SLgv2VyyNiuwPP7gv2MQOz5xenBld5xiHNXyBfHCzP4iEPlOfxljuehz1fsYxX51dn8pDAzZH1TB6gvdM+zeSBfHXKgU0e/KW0hyrLfMASmlT8slT84QF75l+ofXfzESrZ4PaX9TyZ2UcWIkhrxpaPwNJoBdjyESiUF50z+SV+aE8nIc14WLk9lxJmDQs7/0/KG1eCOULyFum4vmTM90jjx+ghxOdOCE/rHYyLaD3qBfEzewIdy+99xhV/2PM14uinuQPPOLtAKxSE9FpG2SsQiEgBYqPswGnETXxG2WGMkPZ27Yz5ZTBp5BxfEKMzHyRce+hdQWmWjYajBOHN2VCvEjd0l9WNYbAJdSx6pTpTUOD4hWZ+itEr6a6hlCtur1j6jsbsugw2a6UjOzMToHVV7uqO9KllOkUc1eF2VzACQgDJYgM81+4cKeGs1TCEUWprVLBxrzyn29JWd0pydJ9w7yCwz0bPUEZgFCeUVvQFVrXSprdnRAHtFDbaQnTMbswPraBZzTONjZmGV+6bQRab51qb3uc7WHQxsC9jIS/Nb3XGdhK8QSlWbl13QgW6n2lYryxpCzGr5GXGOfiGZhkz3yDPsUbCYcK4M6jtS9M1PIDPJrs4s1Q62R24xdoqAJutIWswGGGTgeIzqNtYJRfIWHSV0/IUBACg0jYtHozuhaTCUko6H8VH3PJt405y/ohDaYODzibxvgPc5QtdVWQ8f+VZkHEXZVhA08xnW7t8pIWwYldhSFCJPRuufsq91VWbsdFwgCWx4upK5N7uDcZElkJKDLptbWcLbZtdtqHMXl92BaHMdtvmwBsiLbOpYlIm3nvZ10B3kkUd3xcB3TEz0DDNOI1SmpbbsGHGoUqnOZufZxuJt2PHYV2QaUdKpkwenm8uIOdZt1cWV4S3WBTnhPJsnbasZCOFReloz0hhfVtpY3fKumuTB9xNlM3KwpcTZSwmD7WYs+Xt+djNsnWMyWNfxNeZ6sOVqzxL+p/+9cldefvj+lOXL0/Pz++/lLn9Hn8aYx+9/6xGPv4L);lineShape=1;" parent="1" vertex="1">
                    <mxGeometry x="69.5253468347255" y="-759.5416287819804" width="4.255298571487969" height="5.594111998641557" as="geometry"/>
                </mxCell>
                <mxCell id="84" value="" style="shape=stencil(rVjbUhsxDP2avGrkq+xnSv+DGULJlBImQC9/X7nBYa3dPQszfdtsdNa2LudI3oWr5/ubp/3O8/PL6fh9/+tw+3K/C1923h8e7/enw4s+7cL1LlzdHU/7b6fj6+Pt+ffTTbNsTz+OP9sXfp9xjpmYG8zzn7dX5OK/F1/PgIfD4wRQC9U82CcqCdgLxTR+31H0AJApyghIFB0AJAvweia0pTgDJOIKAMECwsYKnmIdAYkcQwCPXg2VJAOAo1IGQIzEyK0KCCNA+ps1QB1XSI4CAnhyo5dSpIzc6inEESBUMeAtczogay5ht6YxDjlSKhBQ3AgQSijSoXu9A4Rxtgby46El4NQItoAkkeAV0hg4KRRR4EJP5g4oGumNwI2cUSJ55CUN05jeRYhRHLS+xjiUCrNVvycjoMUebKkEkjFblUc8cOu7Ey8AgbmkieDGQ9dKQdYBWQ89rjBh50VErFSDXSIDgLJKMacusKiV6PIYauXnDPzqZzzT6BYwGVMdC6hkGDju8jSxZ/h9m9yJEjixHlisPQN7Z0OgtQBD0DlxWjsgjbTYi7V3gOiVQmVmj/Y/yzoFBFAIqt+SZidGK3iqsxAwKASnDOYsAJWaAoJZIUNS1S3ZFXKXirVDs1gA1CorhspQiCJlFgXpZ1oufSozRvVgP972C42BQdmoAszKEok5L9h7WGam7SxY1bgr0sTeoYBRNDQRSRDR2QasVQHI0bRg74A/xcp+s0cq3lef0gQqMtf/ngASKmNP2VtA/Z+A4LrHJ5qMfKTq5IyIhz5tLBdBtlWgIh4AIJWu8RM5E1Bm2v6ZllMBjNoEZ+ejupEYSm0GcJGUZYBYDdfeKIKRTWrvSCe1WcCWCncnTiKNyEL7RWeqU9MRA+RTPaoCTJuw0QUX31Xyg322AoyGbHTyCjCBa7MCiIMCTMu5MY0ooI6ksTHvaFNrVGRjolKAH73UZja0pWC74HRRijVAHs+wMXe2xtwAImyCFVDH9G6zM9rSpb+ZTOeoplVq/JgaSs+Il1r3MdZD0wt0BrHM52pvmpYBZXZtk/pQtgYwfXlTDNTAsC2ghG8k2NKStkzoIsnZxpw7J6zOkNXYo2prWmO/D68vgh05GfK20vrMHt4JXe6YJvZo7p/lEMMkrWKTlPGllkohG3sPqqZd/Nn9wLuXSkmMPZoS1N4wPPeWdWVu+eTN5QcA+vB+UXp3eHg437NO/7cXq/rqfCkbrv8C);lineShape=1;" parent="1" vertex="1">
                    <mxGeometry x="68.70198807138468" y="-751.9984047193484" width="1.8620822940354804" height="7.755542327689553" as="geometry"/>
                </mxCell>
                <mxCell id="85" value="" style="shape=stencil(lZjZctswDEW/xq8YEtzA5zT9j8zEaTxN44yTdPn7QvXQESD1Kn7zwkMKwMVC7dLN6+Pdy37H4fXtdPy+/3W4f3vcpS875sPz4/50eNNPu3S7SzcPx9P+2+n4/nx//v5yN62cPv04/px2+H3mcqQSJorDn/MvkTj/++Href3T4Xm+PlCLZn2jKHB9zHb/RDX8H0idWrKAUAAnKJAtwIlShwBbE1ioMwRCNUDKxAkAup81WrdIEQJiT8iJpGAvsQXaCMx6HDSs3QAlUEeBK8TNAmlYtQroflwsUKk2ABQqNnBFvQSkUQNVMUDlEZl1oFC1Rtc8HL0KtEDFxqG2scU6UChZG6YtgJYkULCBa6pWEGlhyvaRWqUIxCfJi68JVXRC9oBECggoJNYGPZNBpEVrhAPUrUBLE2C11FVdyK2VuvVSZ+rIhjaceAEKZZRxhbrVUteMw3UpVg/AUrnQUq9D8OsJpDWieSABL9U1III4tOyrxgSABFIthYUNqBhrmIJ4oCGgjfYxcysyOgZNuQXRQQZ1rfc2IbpQAdroWlVsR9EtIpKrSqd6oKA6oymcPCAAqELJhnrmh3U1yUj62REdtRSh1jxQgdXag7Is3IRSqI4cngWioj6qBX+Rcx3NAhqI7IEESlnm0TVnehUgJm2LrlgqkFGSBsrZA8hL2nFkCaAOEYb8ZwADL0kfDWRemUDd0L/DoliiR5rk3zzQgJf6YkxUaaA+ejWgU2Rwj4Q7hALsTsA9aDrBAbjLTYCNw0Yf5UzR2jB1aqAlBVxOT7MAAopv7Vqq0CCqgCuuOs+g4UGNdvLWiamCHhS7rxrtkoPrQPXThk59aDaOOpO5ubKMLdbF5wOtg2tCs7Tv0+WSH+tlbMhmNnoLMsDLouQh9tX1wd+YNi4PcUxGn7yd8FDxJ68/7Mf0jfsV+5K6cYFjP/Zs3BDZl4qNK2j0WbZxx42UrL0bl+gwRqjPXdIXAxJ+BxD8BBbgxVClLm45St/itaz9EIRW/OB/0eq6Jy+B+ViPlK+BcbdaPEVNqXjVeqEYr3iepNLPV9irIxR77yN3pu7rOY5W1thfI4ar3zdtrtcPHy+3Hg5PT+d3Y/P//csw/en8Ii3d/gU=);lineShape=1;" parent="1" vertex="1">
                    <mxGeometry x="72.55724518606189" y="-751.7113721819703" width="0.42026202028358606" height="6.988277635155613" as="geometry"/>
                </mxCell>
                <mxCell id="86" value="" style="shape=stencil(lZfdbiMhDIWfJreWwQbDdbf7HpWabqLNNlWa7s/br6MRk4FpTtS7yYRvMD4HGzby8L57ettuIr+fT8ef2z/75/NuI982Me5fd9vT/uxPG3ncyMPL8bT9cTp+vD5Pv9+eLiMvT7+Ovy9f+DtxIVAIFyryv+lNpDi9+D6NP+xfl+ONJHfj/QsFADGQlR4wKhkAmUT7iIQqmEECaQ8ItyA/BzKV2ANGDACNZD2gQiYAKJR6IDFFvg0kpWg9kKkWAFQqtQOykNhtIKeW9RmoxACwSCF1gCkZ0MEKKfdAhSFVG3WokTKYoVYK0gNCGQjnwLDoqlQjBOoAZIpABweGRfuqUgVAodin1d8YCilTHrJUKQHz+RJzHYGKshRbEpdAAgCT6SokYO+yFq5QBtYohXidVgWAkfYb6CIcSKsDeZhBYV3ykGSYQdonbi161CFSQvthVcj8TUHmE1IZAWi+RJpGwJDS1ty/WIMg85X2vUWW7mygMUtKCoDAvPKG1zYUU1352yggIcoqpnKvksUhJC99wBsesaQRQO7zLEov9SIPt9y0nsLu+DWOq67ATV8GvOOEHijeUhAQSXvlvKUk0CG8a3KfJhPYUrS2nja3RYNSqxL3OyIzVE5Ks/Pc2hVWJlmfNgw2Xj8xpb5uKMNd7WeyobWLwIIfPK3DmcxaG/scCM1qM8BU0Wmj+WC2t8LSx62SzkmFhY9H4yncCqsK48c9IDE3Pa9n6AIEdnH62ANsz6EZ+DocHSXjmHmGXUqaLNfhASRyVbdwEcotb4vhqIuPlxHGVXSsiQxlCjwG7w0X6PTlu9Hd8f5wvYi97A+H6R63/H+8uPmr6dInj/8B);lineShape=1;" parent="1" vertex="1">
                    <mxGeometry x="72.53140213108986" y="-753.036779935468" width="1.9363119681079672" height="2.888255556624203" as="geometry"/>
                </mxCell>
                <mxCell id="87" value="" style="shape=stencil(7VrJclw3DPyauaK4gcvZcf7DVZYjVRTLJSvb36eZKb6Q4LyWdMvBN3nMHpJAo7FwLvHD9/tP3+4uwX1/eX769e7Ph88v95f40yWEh6/3d88PL/jrEj9e4ocvT893vzw//f718/Xf3z71lf2v357+6N/w1xXnpaUOCu7v6wchSfP/fvLzdf3jw9dpfZMc7HqN5+t9kmgAUSoDNPFtBQSp5EQ4QNQV4CVlAmiS3ALAnsWdA2KSEldAkaIEACuZHVRSOwekKHm9g4/iiJVSEW92cBKJldRJqgugiJITaZSwEkPFERspDuSX9Y6uz8f9pvWJr1+/P0ssZH0QbyzqJRCfZT/OOzk5EhfoQZo5FJgLqqT1SDFIC9SmafVB8oPrtwFZSlkBTRwJBQB0vYOqFHaHbI8EuxV2h2x5l4sEDjDhXIJEfge/MqlgBwZQqeuRqpfKjqRWMKpyx4EIqx9qGwF+Gm2r6DXwnQG8+HWHlrlg1MHNA1BpPCQdun4ADu2/DYAR1zt4xzUgVus5bKGVCrE1U5VKVCC6QZ0JwOzaVcXsAGEjR0JyMgm0ZRqjPXWYSyOBkR0AMCkXAHYHAIxUtkjZ5zcVAMATxwHgzZGCJCIbSH+GG81LJnLfAcZKjpcNiMgN4AhdcYdggrpJIFwCIK9mrXV8cuYHnyzAkZzbqWFk4yDLbcCWUQBQ5ulms2IHMPK1oYzzkcgdUCaYEK2HPp+G6C6uTDWyLX2wgyN+SMGWJgAEBqgjQ00ARm/ovVFjAJTQG7VDTRuAmDWrrYo7gDguN2l1A5A7lK1Q75cmfih1ZNnZrORINdiSr1ODRByIoNuRWDnTjpp25hLxA7JB3O7AQhQJyulmViIzPaOZI/GEAkAzl66U3lOWnRCsPMEWRlwhfazFAiBt4poJN3paNgA/CHwGMDEKAOsr21GczwBm1yNeJgCr79utjMLKRABStgBKJh0yNKcgvoMFVNr17UeqR0/xxkuD36y+381aj8T6Rsf1GGVBvVHjFb3fyVd5SbbTGwAqG3sAFWql2zHKiocbMtDeKTRg3yu3NlKGgGAV0y6WAFAybXLcY5QFxHsBe4boR2IpZctBXQUI+/Ys1/gcYc+jXfqIzuyZuvuBAbZaAJ5mEdSrDd0ArLtMI0W9kRq9YkrbpYkfek32Li6h6gub4yorE90YZEw9CqvvwzYWAICNQoOzRRzaJmVt049ObqTRH53c/7+Tc2PAOluJBRDIbALIjdR9G4BSIFkA06XoR4MxkY+ZNeo2YQrD0GdDrLzHNOsVVXK2ANqNojrZqkSmfOpGOzwVTCwe1A/mTPNNNisHwGSgkmkLrmFMrKYZrWdHCnZWnnkXBIBRjcxlBoC26pIqb8GjraXhGfYKBIC5Q+JChixqZuUxjCR2Nmc2pXGIg12no+81pj1vwQFo66U911Yt9mFKaRXa3zjsM1BhYwr0kSuT4qhVTr/fPCfQtz5VW0a3IeWnvDMGgsIQQGp23tVfPLlgmAmzL1QlwTLDbEi5sqH3Vsj0V14mq85W0V3KiZf7kM8QVWmp1JPPmku69rNslQZtDkCl06itxMUn9Aq2ZsB69qTrt8e+xjs+O0LEepbP3cjF03rWZjirLaFSMXK2osd6Nv1wtk8KR0lztt7Z9Wzgc0xGjvWZvi45G2ZY7wiBnH2BB0P595sg6xwnwuJtvRZ4Un7v7yxeX48//vtRx5eHx8frb0Lm/7c/AsFH1x+QxI//AA==);lineShape=1;" parent="1" vertex="1">
                    <mxGeometry x="70.37657234627159" y="-739.6440403518957" width="4.95048729091431" height="4.229683486044218" as="geometry"/>
                </mxCell>
                <mxCell id="88" value="" style="shape=stencil(7Vrbcls3DPwavWJIgjc8p+l/ZCZOralrZxy3Tf6+ONXwRFzqrNLHzuRNlgGSuC0WpE767svjh88PpxS+vL2+/P7w9/nj2+NJfzmldH5+fHg9v/mnk74/6btPL68Pv72+/Pn88fL35w+b5Pbpj5e/thW+XvRikFo3rRS+Xb4JEsK/X/x6kX86P1/Lm+QA8rEdy6cmSUF+++tIXpPkjusz+S6l4fn7sXwuEiLKl2P5EsQW/0QiX8VwfeafmqQYyFeyfm1iaZKPdP2WpM/+TxKIP1uTPNurksh5epQ2nydLIfnTq4T5PFWyEnmTPp/HJNixvLm9ZfZPFCMHsoIJGj1FiEdtibDXRGIKDY/kPs1cweYa8yrqxEmuECFoSZRE2Y3ueVaoUkiYTcVmhex1nIlClDx7KevI9NuBbtJghyqVKXjlgEIXIwqe2jqnqhc3M3qrnTkOJUoh4FIXt5ZEA1fdJ3Pgikol2epwkQ0VGolDjaKrAkmNGkQVFQrZoZhoRwUGGaUPJ155qTEMbiOuVwqRRNoVKtjggeM7QC55anS+Q4uokEik3eg4HykbBXpXaB0VGC55HMBor4dKjPZI14QKWml666JgxOgWsJm7DQztWxbr6FYl9dBsiYNHmvWTvICASiRe6n1kzq5QaPJ5B0qg4OnIoLIMxrK3xMDRuy0KKsrQuw+f7AqVGm2G9VBNItkhhp02Dg1Hz8isXhp7807MGvXe+HeFfq/v1lnByQqN3B7YXSFzN0Vs1E5vGjlSXzq785vA0lVHge30xwkpOZIXhM47eD5W0rO85MpcEJYlMBQwtOE7hTqEjZmiO4ViRe3pD5zYQ0k7SkHYsEapQFmmHi+RRnbIGccMT0eWSz6XxIQKDJg0LnEwyh2caKMNNmaD2zZInON2VbS3d5Bmy4lIdkfsJ5vJZP2A2O1BMBKEMIrxSj6S1F4gybNCqXyCLKqUsi6joRcCGzUcLRrKs/PowMMreTrbLhlUKLiUJb6Fcvo6KNGVPGPozpEC+lMZ2C0l00bKHskryjP/L5zN86ey2RwHPc9n1mad/S/5z7pBxia7FTDPh2V9I/GKSJtdnhHCsKCoDQ8f1YuhPzM5z6165OeJ4J86JukDeej3Ls/ujuIYta7ymUF0GtG8kmf0ICNN2+qRAnRY1mfyrqDgoCydJZAjrqJCJb1eGzIiV0jMBF1ygs+n24wSUYGB0DaNgkKiUfMJGNM6SmAwV3ECdpJGLxbyGGp2hTag4OjSDMZ+J5qN3XVUJMu+RGY7GE6P2+0HibQtw6Dz98p3gLmo3jG6IX/fphYG7ztx3Qcpo0dqFe92Sx1uuB3pjmS5ZBrpn/c1l29+3tf8L+5rdKy3K/CbiHW0y7yAfAKHFueDUic7OM4Bx87x3nsBFJBPVhQqO7JmLcPRR0AGN0LKXww2bJ2PtF3PsyMZxsE7N31U6TjaObcpDFsLNsWY6TzbA2Zr5Du0hZw0Dq0V35HKaGFHuAdXhXwWKUte5MFtjiZ+GNb4O9X6TuhNnhTn+g6Z6U3n+s6Z6Sy4vqPmwbRuc9vlnXYniwcXeJhymT8ILWhHqX9fno/GJemBeJqdr3TQaQiMShlhWxCCPgFX7GZ3+CaKRzrULYeJNM8WU8O4VPgxR4aRpj8WJm+SjDRiEgTa8f7zbw3uyvuH7z9s+HR+err8LuL6//hDCP/q8iMKff8P);lineShape=1;" parent="1" vertex="1">
                    <mxGeometry x="55.40990771149268" y="-759.3954558500586" width="3.2297212602538923" height="5.303862274951476" as="geometry"/>
                </mxCell>
                <mxCell id="89" value="" style="shape=stencil(lVjLctswDPwaXzEkwec5Tf8jM3EaT10747ivvy9YjxQTkDb2TZaxIgguFgA3/PD++vS23QT3fj4dv29/757Prxv+sglhd3jdnnZnedrw44YfXo6n7bfT8efh+fL77alb9qcfx1/9C38uOEeVOyi4v5cXxZMv/998vdjvd4cre6YQR3tHOa3bZ4rm+xzW7Rv5YOz9ur0PlLMGVAcAhVwZAYE82EHw1JIGROBSKNMOrwAZuMRMzmtAYQCoVEyUfFwHxEhhPIZcyIMVYqMwhjU7imAPiSm3AZACJRClJFEaVxAn0R7EgTRGiRMlRD3DVWEj5GqiOFLDZ2oVAAqlcQU5GLRAo1rHLUxhXrQXGigmzem6bB81VR159P1CtSh7FKDqqI3+CO3AGdeoie0pNmA/k/LDvgD75siN+w3Tgsv2cx5e+QPi2YwayYIgCcQ+OmVfAH/EPo/+ixJgf+ponykhMW3UFKHdxMBlcXTzBmdEmgR2dQmVZI4YcEgAZRSKEKe0WwOkcRMisAlHlUfWSVVhvAfHGpBRXOc0nwGVGGiXANJIpCBhxQBWYZWyhqhdKYwuSaFD2rIAkLKGDs64JOqBktPsOU6V98agSuXHvFCnJtxF/hhafEpUzTtYMi2x01R/bswczNKl3IyT/t2a/hXWD6svIkgex1QJWC+xODeVQkrmtLskWMJUUCLcDTBFQVwK91WdMvVjN5Y1ATRw1LZudn1BhdYUZgFU4FKZc/cqSglsurcWI4Ad7LM/muQZIAoG8kEGCT+eg/TFqM/OZg9coApLf6eGnchwGJEOUklY8hQQwGkNSw3KtnTBSfXZIpsgH6TPrkqFZaBBrX+bVHTuURPU4T4rjGFt8wS0Oo0oIctQKe280yQf7pqopFgg5bMzWy93IEp2KhQAalXt3CmAisRYy1KvR4isenDu9iioeti5qheLADP5d20G0i2jgbFHPJJ5UbFC8hWInqMwzkYtTaK2Yu/V9xnWT6PaouPoAEy1FRlHzbm1Z9hEGn9ExBmelzeJH+B5qXiKhKNLBXNe/RICZIDhQ/GwLb/3pulze3n4uNZ62e33l1ux6//1NZi8ulyh8eM/);lineShape=1;" parent="1" vertex="1">
                    <mxGeometry x="103.16259266566044" y="-747.6739920480222" width="10.36700941348725" height="0.6145747074536925" as="geometry"/>
                </mxCell>
                <mxCell id="90" value="" style="shape=stencil(lVjZctswDPwav2J4gCDxnKb/kZk4jadpnHHS6+8L1kPFhKzN5E2WsSKOBbDSLt+8Pt697HcpvL6djt/3vw/3b4+7/GWX0uH5cX86vNnVLt/u8s3D8bT/djr+fL4//36565b96sfxV3/CnzNOlSR3VAp/z3cSSf1/4+vZ/unwfGmfiNtkHwOxbgNapigzoJECQC3j78UjJpZtgNThwABkcyluA0qjFmeAUMnbAFbSOUmcKDYACKRzlrhCQM4U6gQokRJvA1KhMsdQmDJIa8/6XIci1BAgU56DLgpdUqphspdIDLJqGeHZvlAMwKHgyyaNKnAoFmqzR9U8KiCpyZ9QmQSVLZK4E+p4xHViLA4MQAuDW9e5GgeVFwBTACdIoDp3Q6sUQAyiFOc6N5sJCXS0tc9cOBUS4JI9zzWoYpcM0MQDBBTOAJpmQKMExlgPsXpAw4DoTlDYb5alzB5Q0QnVV9oAigBCvHJJUVqLn93dJRSDsV89gBE12HPJ0qqIGnlVacsbBujccZ0aOIa04lJEJ/AYi5f0Bi1qaa3ZA2AMskqrUMTUkOYBCbnUqKwAcEsbmYMHwMItZL5IK5qtvUVdP7Sx8zZPUA9Aw7jH4OqgH2VJVg0kQGlYHXylFU5vq3Sdx30MgQJYcp1Mqx6Fg4m9NjFAQUF8FiAWhEtTGmFt6avkuBEogaC5+fFtmc5gzuS2WnIMB1NqXi61CBvC5JLr0dogv02dyFxqE7IRpJVHSi7ESQEe2fOdXDKpAbi38GyxZ8i8SDr7/64krlfZr6uCJ7clyG1QE6DQoWUoLoAMxVV/dZlrZuoJTe60kg3c4Am5jvmwABgWgW0TzFnNOvJ8PatlqLsFwPBlRrJ3ybiewAl1VWjLWwZz1Yjvh1iFQr2PyZl6DTJJ2YcQxpK/bl/8y1KAA8zsnUq3cQQC7ss1OfuA/BevGPCMt03ptnOAkr5rWXb2EZBOVwI9DC163V69VF1mzZZ9nTkacbyr1R8hpS925DugYYecKExQ/X/6o8eH9nbx/oXl4fD0dP5Ac/m//yJjt85fc/LtPw==);lineShape=1;" parent="1" vertex="1">
                    <mxGeometry x="101.43427908581202" y="-748.8244882454981" width="3.0567765687543638" height="4.863095901216792" as="geometry"/>
                </mxCell>
                <mxCell id="91" value="" style="shape=stencil(7VpJchw3EHzNXBFYCttZlv+hCFEmwzSpoGhb+r2zPUJzkJjOsXzWjZyubKC2RFWhT+ndl/sPn+9O0X95fXn+/e7vh4+v96f0yynGh6f7u5eHV/x1Su9P6d2n55e7316e/3z6eP7/84dNcvvrj+e/tjd8PeO8y2EDRf/t/ENILvR/f/n1LP/48HQhb873Sb67Eo7Fi2txEq8ulWPx4F2qk3weP1yXN2fz+5OrTcg3Vjc688fyeNzKbB4tX53lSd67KqyZovOe5JV9UnGR5UMW3lrs6Z0X7zdzKbC80NcahwP2k47lc+B4QPwp+TzM8WZ/L/TNzfVG8t8XvB6ecUTvWzx0oW8pLs36movCv9Wzv+BAYf+aXLZJvrki4r8Wl2d7huCSSIDaXZgXQAqpfG8I+DQD6oiR64Dk0gyAj7vwWTOXZ5si6b1awVyflQYJBeFlAMhryLsmzAod4pzGSDzFQ7BSmf2cujPluO7ibCXTTARPk1lNW6nGkVk7oDovQqO0ZYWdLa8DEDlzchoOA5Vtfux4Z3cvT49cXJjNCgKJwqx4bHP+ZzCs2BI2UAsDkmKknUD/IwA2oeADIAqlYfVaWWmVQABEY0AWnkYgtAUQ1JbqeN+F426sYJ0Byg/bCkssmVIaOsyhATN0tUIbPHcBMNN+WFaQh2fnwxObVKc/AL0zoIgt4Thsiw5B5bTn0Ni0UjmNAzeyH6oisuWE22JJnUDmypKiVTEf/EoZZ0OrI/YOlEBFA0CMlA9t8PlVQPdMlSUMproOSM4TIMmc7nkk5A5AKa0AeDybtfRh6OuAxqVh3Td5HdC5tt2qD6U0wptW6INtD6p/z+Vw0/UYliAWaFmbqTHftzZ2eR1Q2RE9uKrMhOpkdjV+CWqFwD0GfKkOCOw4zY7AJouw61b/0ApNEhP8ZLNZYWjF93WP5r1K9LpzQLURlyW6sCtKdSqNAVBaI+mJLAFIqhYIfMrBTE1sKeGUo9goMlxRRdbIgCLCFQCisq6pLGVOCDCJYlcASmWAVy1rHh32RXybApRRnO8ARIvSYbfJBUAVovAD0TEA0ko4yCsDguq722LWJBu/tJDlpoMGUAbBrKrVteVoB0BV3xuA8iGPJuQIwNSXdT50rpgQrUn5oS8r7Bly5AcmpiJZA6HBsVRuBV+3ZUs6RTn49iHBUQL1JUWbBpTFcUnndCWz2njF4ZaWnFYNAZRew1tVrvADzw2THCMAQJOinuQxitDIS05HHUvUctwAbK1kZj+oaU6uYxh2AVA1WYlLAumMwylKLfgG0Ac11ffb+SBWQPUdF6VVaKBiM9qS6YFRW6oTPQrBY2Lv1ofvj0oyYj5UiWrsCECelW77IPgIQDTTvBxUbDaZ/VD3Dviog0hziqKRMlXfRw6NGm41NTTDKnvndeQ4qnTRo5gCFK50i6YZFK7UmKHPUlQJq5MfcpcD4LrQPVo/NSWrcRkYFcl8MCLN4bJm780m1FGb7KihYiZAGkPbw6l6ZICabPyvKVn9EcDPKdluN1XC/ZySfQfIKZkffeEFQOmAfKCZrhXJfHm5RgRArbA1rwTIkiq3iyYCmF6hcx9naYwJjojMaDQY9YWCjcnKACTdsdfl8nerxtUssY1yagdkWZFttyjLxY6imdp5S7HLi53aOadjkeENHaj8iVGOKTYr0Q38jVmLjZJwBxRd80WmmWBSacQSTU6CvkUplYvEsB8Ah2fcrHSTJ1bxHN1VNgOovOletMhbTpywibheM0bgea7JuuQKD2veXiZ2Nix81KqTi012Jlv/Rmyhu7HIzZVJ+opL12DywjUaHztZ9tDR8xygSKJAhtDwsMqZVUh8IjT9XYnnTi94OYGqY6awy9+oXljfkCWVJj4zYQFF7onvTSGv+pfoemB5E++PXHEGfWDuM/YLefnhEMcP5NVAz/MgFvZUDZ7nkTvkVfe1jM4gry5XlosPULRqBz3zD+QV4fpRTO/ySd68/+hnYbfl8cfbN2ifHh4fz5+wXT7nb9bw0/l7t/T+Hw==);lineShape=1;" parent="1" vertex="1">
                    <mxGeometry x="39.612213090919795" y="-758.5328363658336" width="4.797142741240657" height="5.855875468817266" as="geometry"/>
                </mxCell>
                <mxCell id="92" value="" style="shape=stencil(rZfbchoxDIafhluNJNuyfZ2m75GZkMKUQobQ09tX260JEqyYzPRuWfytdfpleZUe3jZPr+sV49vpePi6/rl9Pm1W6dOKebvfrI/bkz6t0uMqPbwcjusvx8P3/fP8+/VpWjk9fTv8mL7wa+YYGk8Q4+/5BUKmvy8+z8t32/3FcmLI3aynDBgBDbrdgAmoLwMswGKBDlyWgZTH9waQBKgtA1l9KAbQNxIABaE5QL2SAGhQ0AAlhYAU6MkCHSQtA5VHmgYgCVqwQ1WTbB6kggRhbWn8fQb6CMNNoFeo1QC1QgvC2tWkbIEGDQNAC8E63RBqUEsKVJuHySsOgW59aBXwQ0DHeztUm+muAsqx0zYPXYakFsNq9aBv/hm5lDjXA969WgIweaBFJqmmmzepREABEe80B3pQgG0t9QQU+VAA7Q6tjz2XALI7NAGMyrtAdrXEcXnL6KQX5R36IFBt4lRAOZao60uTRKOwNuDud0iRSR0QvQ93BFTER0niJtDdDiXsS4R4ZVOHHNvUXDEx9Fij2QlCYlG3EfYLQeTI6wboRN1Hu11KtcvcRRz+E6HNFK+aHwfDwFRtThISFmwlqLZxNArPRT1Ik6twGTV/+6iu42A+AxSmTocBtqkTCVWaaZxRZ0BlHUQpJT+fTNNDALA6bftArqPh3pbEVR5SH4G+DZBv4InD5kdQrAsUD3HkK4nOnefmevTDCcnQ7MJ6FyEdW3v4fbJlpINv1CivWgxhWHboT9AGFH6ebPhLOOyhL6AUHs/oz38OjdFasLlSPggl+bFQnQlsZy/guAd98P5yd7k+vF+VXra73XzTuvzfX6301XwtS49/AA==);lineShape=1;" parent="1" vertex="1">
                    <mxGeometry x="21.88567026148621" y="-755.1776484090124" width="4.0340041650259595" height="0.8971680889154119" as="geometry"/>
                </mxCell>
                <mxCell id="93" value="" style="shape=stencil(lVrJUh1HEPwarhW9L2dZ/g9FCBnCGBQIb3/vbON+TGe/ScztMVRNT+2ZNXMTP/24+/L99ia4Hy/PT7/e/nn/9eXuJv50E8L9493t8/0Lft3Ezzfx07en59tfnp9+f/z6+vf3L0Ny/Prt6Y9xh79e9XqxGIZWcH+/XokWyr8Xfn6Vf7h/PMi3ZD6TfHHn8rVaWO+fLHgh7yylRT6by+fyJVpvi3wxJ54nV6urfDUvnicH83GRb5bCuXyq07wp7525JBSChfWBvJ8mXVWIzYJbFZI8ISaLq0v9JejXFZz1uio0K/1cAT6sq5OCl1mEJOhlVUAcRdhCsLi6FXEuwobgzNMJ3bywYZi42hC9ZZF5vlpc4xCjNWG0z9ao1Op0w3WFxLk0kkXZEC2tuZSSJWVD4EdKRUYaCv858aLQrKsT4MQ1DhmpEYUCkm81OqPDqBPcvN9FoVio5wp9uuQi32WydourBSVYEi2jz7S5yCPwQn4YsFpccKQKgp//vvSwOLvsWV5Q1NCWvfJp5oJuzpqoz1E9a4/BoFBhRkG71UutyvrEHChrbjc4WrUMxHmNW/dWRBxQvjTaepSJlJzF1Us9mxetG7XS6ASdqphW1MVwgmoZZRvnPclcQubkyl5qwgZkDim0Jt1aOxd0w0gXCkg1Su/mZ6s9U6CKrvVdhTVwo4BEPbQNlVRvTgRuKFDTQOxFPQwFwjFlOvpMIa/jpyQ5HKBATaBooIHApfUENErViWszR72+TquuKxSuuJwtqhPinE6H4aDgGJxIFZcBx4SX0NvDGmkUbRYKMDGu9QAImESJAlGG1UuYuVl1jcIDJaE9ixPQlwizQsGL5EPno3oAblBQBuCLbUiyCXRuS5CvKtCMD4e8qOhidbt/UlGz6lneizzKPK2SBiVpTvyDvKQZk7QckJ7KiTy9fZCXaT3vdpH30wMn/m+O5ZPEVFTIQ17hha3dQSErkITZXTYLhIeAVAl4pqAJQJwePChILLyhKgRZQtvAzQgKqgoG2t7SVLFneInzNFkW3LBbrSxf1ZiayPcoL+5frxig8hrkfatjhc0zY394VGFt1GVieTU0Ib/lhIpYZq6QLvPkxN5A9vrJyE78ycMGZSPjRfNy1KXCXh+UhwGdHOrmldNlhOcT1GxKG/MfjyRclPrWe1FGaiVUeKGCpFA7JGAEWqggS2X3veyMDgNZlWVNWy+qM7POoFenwu9zpl8PdOB+mjU7Amin/QigV1d4s86NzoGXK8I2+Bwx/25ONIu+Q2AvuxEU+mrDO5i5O07vd1D5UPgQ7h8KtI/07xndd/Kv1hdQWJNvsCP9SJW4vJeIdo9D00thRJpSA9ml8OagmKsNuKJquhVuZHhISQnTxrSDbDOgU7SP6BoCg+y4jfyrEq2OK65XSc2RzISCe5dMO299CQqKWYC7EPn3zsleOchL4SNUQaRt/wcFL54pbmvVjtxQI8hPqH8IRNPrbbfteaKainE+wGGTpDbuvjOueusLpws6qqAmi3pASVqfZclIOjupXTa5/w/J1CqRZGQkNri9sDjwbqF0yWAct5iS51uNE/lA25EgV+eOGRuKSQGfrUfmLJPOMwLI75AL3thmtHGV1LzcGXsOUchx9tvD1kJRkXiF66g3PImffyBbyRSI0cYqkWplwom+oVav++sgDQr9tl6LTs4DVCRxHZypUKRPTC4G3VAKlXMoBIlegmMFNCZVxIhy3l4tKlCIMFCZwSq1KBgv4UjByzyKxSLNZb1d8xsAk3mU9iWnhPI5TYJ2SWw5nQBh6aVCkB4FvgyZ5J1iCtvqS7+PA5Qjf7rJHK7PjTwXRW/yqm4GCCosr+ZSZczi9BxrnHEaCA7IxPeXiL8zwHEyP/uGfb3sQweA9aYgA9AnlD4khBhkvfNk0sAXDiU+ETTpAhpbE0I3UgQ4UKeeNzhLoA99wfK+PH68fS7z7f7h4fVrm+P/+fMaXHr9NCd+/gc=);lineShape=1;" parent="1" vertex="1">
                    <mxGeometry x="29.359885895611114" y="-759.3917940473414" width="2.8356126934448906" height="7.10272858372927" as="geometry"/>
                </mxCell>
                <mxCell id="94" value="" style="shape=stencil(lVnbUhsxDP2avGpsyzc90/Y/mAFKphQYoLe/r9yMl5U2e1LeEkXH1t2ScuCr1/vr59tDCq9vL0/fbn8db97uD/zpkNLx8f725fimnw78+cBXd08vt19fnn483py+P18PzvHp+9PPccLvEy5QTgOUwp9JCOUf4cuJ/eH4uGKPVLthV0LbZ2fiaNiZct9nz1SrYc8kcZ+9Ug6GvUL2TlkMu1BMQNVAvVldVdkMAEzFGSdDdWOlYs0TG2VkfaFaDGD4D9yg9g7WokopDAAqklV6UAR4OFBkC5DpxfMApmoBnKgBkbhRsCHKhWoAURSmXxdApwh0yInEiqRHoLDOxUfeOAKJ1KbVF0ChAJTOQjlbQIPRWuJUcQF0EhAaZaN0CdRA8JVMzUarHlHRDZWq9YMeAQF9Wn0BVGrArHWTonqEgBStTNECaqQEorUWXx/1iAz8UBs16zg9ooCq1DRaXRVrs46cByQqDiAzpc4Dik+gFqmjG5ovZE0LGaqsgZJVWo9Az0jnjUgy7XYeUKZfJ6CnWQvPAzo1W/n0iAw8LdHntB6RgKeFqdt8EE0gUDWkUrLVW49goIPIPG8BNEogHxTQqwcw8LQCXBFQQAWlcgBsaEinAAAxaEMRPKIAV48rxAPkgkw2NpSCwnWYqXsAeoLGz+IBqM7oz9UCVnbYRYTNFVgJ1zy8X7oHyMUDLoRfjhtHYDPljaszygjx1XVEE8o5me3OOl6xSKV4AF/wXPaAiFOobQFY6b7JOcahIdEDCr5BNnVDUF95NkkvFY5NkvYLWe1Kk1C6cMMmIVD7PeyaPAA9c+9J/5EkZX+FoEflw4Dqe9dBQQHOfiJTCiyv2vC44AiwvOoz6HQYDyN+q50jxtMLdOjJu1opBZQB7TeizYi2JNVeR5Nt9CkFjQTa8DiRlIJGAu3K2CaEUpDSdZNB2gkyuKE274faYd3QxpNdo1hh+6CtbXC9a56Uvf7bN7txDgl7Hb4rx0XgAKsDgBvaCx6RdcRwA2wpGJCoWysVPCLrpOVmaqWgwUlnOecHpXQ0jzb/8CqlA7PqMJnc8Ffg4KTjqkvRzPCl1oE4OJEiLJVcSewNOoRnBGA/IuuYj/zAYU7Qq0UC6vDHvsgtQwSKlNJ8NVfLENQ8RPE6JIaPXKzzlV0tdNA8Gtk3cbFN3+9tsVyKjqUU8LTWFGukGGc3sbOE80MNHILyLOxL1YOFW+d1K03FCzLfE+OFQ/CyL9ftsMfu2FGzunmklkqzw+5XdXPO32NPjh3L7ho8rVnQMht2BlG2ESbOcvF/quJ122afFy4I49wUYD++JNxqAw5yPMwKsGKHbvrQfv0iu354X+XfHR8eTv8ErH/3q38lnf424M9/AQ==);lineShape=1;" parent="1" vertex="1">
                    <mxGeometry x="123.10382923449788" y="-794.1471645605584" width="52.12190991579263" height="10.995235977383615" as="geometry"/>
                </mxCell>
                <mxCell id="95" value="" style="shape=stencil(lZbdUttADIWfxrdnpNX+XlN4D2YIjYc0YUKg5e3R1mOIlkSd3vnv88pHR8c7yc3L9v55MwV6OR0PT5vf88NpO8mPKYR5v90c55MeTXI7yc3j4bj5eTy87h+W8+f7/mQ/+nV462/4s3CNUEKnAr0vV2JCan+v3C3Abt6fAxmlGCAJWnWAhsoGyIKaXSCJAUoEeyUltGyAqis4QG2IFmiMFh1AVbIltYLE14FCyFYlJgLRdSITJNolGtiRKRGq7ZzqQE4jooBtI2oFO4BUkAVK84EMsrrmBhIHKGMjUkV1VIphXCGqW5zO6W1pFggITklaQK4G0CKzs0KuaMkCGSE53lARrZlU6OB8dG+TXUFbGfyBoGFG6V8zykPjCLFcB87c/OkNWoPh8hI6MBbQofJa3UdysGtbX3FZJh36YUg1GJySeqzYkr6i53KrBeXbjFYnBjQa6wBofHozmhCHoVZZHTN1QP4HkDima09Dx0whrm7+BBKyE0yc1rQ+i43ofHRBtW4tDHHaEMYwzrym7cXn1ar2AxKvKXLteWuLSODg1ZNsYgRfUc0TWz831xQcR4GYkZweBxmBBHEmRz0x/Bm0AY6garpBofHfpgdfO47HebdbNizn98cdil5adjdy+wE=);lineShape=1;" parent="1" vertex="1">
                    <mxGeometry x="175.42447435132203" y="-783.5279700097336" width="0.7858196063241962" height="0.7882302380013329" as="geometry"/>
                </mxCell>
                <mxCell id="96" value="" style="shape=stencil(nVlJctxIDHxNXxG1oZazl384wvKoYzSSQ5Y94987Ge2iCJCdPfKtF6CIwpJIgKf87tv9p693pxS+vTw//X337/nzy/0pvz+ldH68v3s+v+DTKX845Xdfnp7v/np++v74+fL966dFcvn0z9OP5YT/LnpjyAiLVgo/L78kiZcfPl7kH86PVj6qkS/SCpHvkoeRr9ISkW9SrD1daiXyVWI08jFIYwpFqn1ATNIjUcDf2SoUGY0ohHneqtAkjusKvYtWqzCkECd1XNqalKJoJgrZPyHhF3KHjjvYMCedfjtUaF1CsQpNKnFrU4nJKgwauIbEtE/IcUbmUKEiVbtVyNLJE2qVbC+dVXonCnnm8qrQpJNI1yjJKQyqoH3+vZZbpF7SKtWmRlljf6xQpFi3FpVM3KpJsk3v0ihkaPCBK53GAecNq4AjKqkHWNxsTS9GkvSGT9yl4YZILg2vJ3tpVRo4xDXYOCjqgQBlrjJspHVM6DxWUA8CyK7f2HysgESwXqqJ3yFJaFahzCOOFcLsBatClUBMQsmrrbgK/CdxQDfIFshqpyUKFIpWoYV5xLGCerhvkWYrGmC2MNMyTT502G7d2ngPBbgnZ1Kd0HaogPahNg6t0S6KBuUC15B8JNIRcbVA1qMEprCDmZ5ESfLF7AsITWwwBQCjLaCu/A7BMwH0VSVuHb6JdriNtLjuoRiNvhMYw2k2LzrIGTm/epgca9e+Ih/tfQcym+SdSnLnJ3p+maRllc8z04/hYoL6Kq8SyH3T9N4qX2dhHMoHDy4gr8yeMKHnlUoGmtRh5tfmAYMkUJg0cGsQPT/s5Bn+Bl8yC1vn8s7+TntUmOHZyDMcCr5/gN03kkDBzxbLNEASIkiqXp4R7eCRepGn52t82/k+oW/Z72jLTf+0uvM/TWgHKDfj67oA8ifw+3Yvz/NT35j/pXl5Nnkhvtb+2wXs6PhiEC/gnTwbcoIfiiCfeIHtCvIGQOzkGXff28Pnlf192yyJ/+nPJokm9Nvkk+c16DCMRGTPFtHBGKcuO4CO1B7dAS5uxMY5v2xBh2fxqr7gwSAYPW6Tv2wYCit4nObOr7OkrzCgYgERFKuSggTFKhbRe6F7B5C46mhiph6NyQ/IIKIMI0BEk1MI3KR1B7By4067fFwXHxv2ndgTdm5tOqnjtYHAMTlMEGz0Q+F4fp8odUUl+JEj3hqbqpsVBx+b6nTiZpKjY1P3xYnhkoFXGrvVo9LqyWsibOZdNr7mOPn5ZqKmA3L2HaoG2nByOdgK/Mbka2sEN1xqo4HL3d9B+aavRM9KNdMxouSJcZvtTCCXLup5ggYKk6X5mb10WtM4z42vpdIlMCx2yQcjA1+rZfcEDmRaPdmEo1mv1e7ZXR60ppf1kH3Csq1k82L2QLbsQ0mkUZBuYlw2riRbgRHBrWgjJTyALb9mvrE1Vj+zLHtpEoe2Wz4C2pT10B1rXnbr5NJ9t3wEnhf2fqB6mrd0DGZS9w0FPYkVEGiLa7voeqxEwaOqbeyR7wZG8WC8rF/YWxSd7WPt03QHDOboYKlSp4IpewigVBLyzSUSfws0PPXhGLaMTsnJR/Yea3iQXMn9NXnXoPloBHmX1ut24Zp839nP4jU8rQJ1Zhk3fF0G2mpfVzGv8my23oyKa4bSCx8q3IiwsyjS4XGRdzVGucIfvMq9IY8Pr++Nv5wfHi6vnbf/+/fM+Onyjjp/+AU=);lineShape=1;" parent="1" vertex="1">
                    <mxGeometry x="119.93568737466421" y="-783.3522089825431" width="56.02529167753488" height="14.946968371533877" as="geometry"/>
                </mxCell>
                <mxCell id="98" value="" style="shape=stencil(lVfLctswDPwaXTEEwec5Tf8jM3FqT1074zh9/H3BqnRMSN7WN1nGCgSwWICTPLxtn143k3dv59Px6+bH7vm8neTT5P3usN2cdmd9muRxkoeX42nz5XR8PzzPv1+fmmV7+nb83r7wc8ZFR54byrtf85tE2f958Xm23+8OV/ZBqIz2nMjH2wCpJH4A+EgOATKxDABxVCsABEoGkKkGAPCUxhhCoJwBgEnCAIhMAcTgK+XRQywUQQw+k5SxDJE8OJIPVNwAyEwOeOBCKQ6AwpRAljhQyCOgUBAYQ2UL8IBLrUxiAShLoVqyKqACD8n1Ml0AlRgEXYVcsgAUQ9UyFQsIIIaae107oLr+iXVAsR1XmSIDgJJvjKFFBdjKzpEbyVQDVAF1EcemrokE0FWDEHOmTAV5SJ2cFwAutZ44jqVuh0Sl9iRsAQnwW+vEwQIYVK7Rv9gYPPBQUg/xKq0FeVDtNYWLkEwrAIEtt3Ikhmq8ErTrynMzrYseze6ewrUeRR6UGoumFkSNtNDKSvU+enMXkv9tIA+ber1HGbuwMhCpoKiXQpNxU6uUGQ86ZFDlFmKphxQklgs5bj2Kgr4XoBPi7wGuAXgGuWwBKK065eIoG1e1XB+klxXsykUFXc2ZwiKvAYnlgku5Lyyr9gvutY4DEQjxGEDRQYxGFolZZjwkku4meQQkbR9AVc2QG1eNqMqKZmKx+5UWvgIiaY7CSKRwWTPXAZ7q6EEiTJLuzXlkni99t14HFDtD1acDPBKt2xgDa1rBwJJFljzcG/QyYDZvpgyqEFzvxW6vVwFk7y1RXd+rb91mQjL2aFPSe0LN1h7wNKTl99E2GXKXkg97NAqbGHmTT9T3jcOGESSgvno7NNolcCKofTZNQBGcX+3TKFwRrmD33lb/ba8PH1fjl91+P9+sr/+3V2l9NV/D5fE3);lineShape=1;" parent="1" vertex="1">
                    <mxGeometry x="119.3908256933305" y="-772.6225777637267" width="4.01950545683178" height="5.3496013592079805" as="geometry"/>
                </mxCell>
                <mxCell id="99" value="" style="shape=stencil(rVjZbhsxDPwavxISqfM5Tf8jQJzaqBsHjnv9fakaWluUd4ICfds4nCXFY4bajTy8757etht27+fT8ev25/75vNvIpw3z/nW3Pe3P+rSRx408vBxP2y+n4/fX58vfb0/Nsj19O/5ob/h1wdVEoTYUu9+XXxJx+PvD54v9Yf96Y18CFRnsCzlZt8+F/GhfSTyw91TSYO8dpbQOSJHieADP5PI6IFaKxoNQdgAglOIIiMQgpJApjWf2iSIIKeihwwjQV9R1gHhyfgCwgyFxJD96YE8BADQANx6aA2VQaO+pugEgDnaS1jXkEaC9FSFAxkMHRxn0koYkZQTkHuR9QCDHAyDqNCAP2U6DtqMDh2amOHrIAj3oeMlYh8LEqJc0S2MddMQL8KCANGapZgqgDi3r4xlq6d21BghiAQXUQaqdh6qsAbpVAc5ZQAZZkmIHSAG1AECimiYA8hD7+25DAmlVgJ88CJg4HZdYbFqhh0AyFc4hmgl2gFprgF5SQDaAhOsQOwvdABCRaR3EADTRKKQ8nSF+1BqBLQDxktQppEQeD5D3FpAYAozGaR0YtEYb0WABKEvNgzlD6T7XAG7qVo96qU68VLuurtXBMF+bODQP2eqDd67zwmozTTEVwGStXSfaCIg2wlSI0onk/wBUUdgsZIuK3desZEUuB6yKrgv/InKpS/f9lazr/qKiWFDYrkuhwFXDTbKuEYLWc1YcRCiiVcaqD+u0gYxGux/qiTzIz7z5eNVDcAAtmdne/NK59zOaLYfpjou2aM2IH3OqW/QHiuvHpOq25UFS40x63eV9+9TvFUubQtpO3Dfm60UGxZNqr9HSRZDlc7RdIZCzdU2LY4IY3gGqUBkroAkD76/Lonm1R1zXdNVZexRPttzo+vZw374Q2/jRECtxOtNxxGAGrmpxtUe82MQimfyjK9WNVlwLjG5IbZ0bHQS4yas9R2OPaLcJ8BhP7Ff1tYLFbOwr0LJ/vfl/bK8P188ML/vD4fKV4vb/9rOE/nT5pCGPfwA=);lineShape=1;" parent="1" vertex="1">
                    <mxGeometry x="123.5895478545633" y="-796.0286138533045" width="5.347601300593681" height="8.131851669957513" as="geometry"/>
                </mxCell>
                <mxCell id="100" value="" style="shape=stencil(rZfLbhsxDEW/ZraERD25TtP/CBCnHtS1A8dpm78PpwPZpmzdokB3E1lHEl+XzBQe3rZPr5uJ3dvpePi++TU/n7ZT+DIxz/vt5jif9GsKj1N4eDkcN9+Oh/f98/r369Oyc/n6cfi5nPB75TLlskDsPtYFJlf/LHxdt+/m/dV2X8hFuz+Sy2NAf472gqArcQwEplQNEANJGgORyQcDpECRx0BiKmyA7Kn4MZADOXtDLlTdGChMIRmgeAphDEiiki2gdxYAlN5oBSq6od48KZEgQCg4C0i7cwRUa0MN5IFbFRCxQKEIIq1AtqkhnrJAo8Vmqzo6IEDjarNVj/AoDplSBwgVHGlfe0BALonGNfZPyqBERdPbBk4f6RHgb4zmpgojINpcqpUSMtr3IlAjdqtvuXkGHJSZxWibS0WVDT3pLCpnIBLjwPX1oOkNZEa9nqUHkC5p8on1kpaoQ9kq5KyQFT0CeUl65aseZqt36nZrdU2taocqYCMnjgKyWprbz4AGAqlAJbY6o44LWCs7Ny3ahtyUKNuSu/LDfyKWhnBTpagvao/KHcDEQF6To2qVpmZiEImg8tqVRKWIertQsk/KlQoIHTsSb4BU2sr9/OO+L8YEm5BOL/YCTi349y8gthboCQKi4Hq515UADHDk7ft1gGJQPjfl5vF45ZpAXPKuCeFgf+wUAzZQjVc3i5FAb5ZuOKSM8qfPN9/mrPv52Q5r2x3U39i3QVyQqQnhZTvqgf84N/91u35cRvSXebdbJ/zr3/uRXpfWfwfC4yc=);lineShape=1;" parent="1" vertex="1">
                    <mxGeometry x="91.82946652399846" y="-793.1767326117252" width="2.6494294205000304" height="0.8460743111621403" as="geometry"/>
                </mxCell>
                <mxCell id="101" value="maxi will hold the maximum which is 9 and it is the ans" style="text;html=1;align=center;verticalAlign=middle;resizable=0;points=[];autosize=1;strokeColor=none;fillColor=none;" parent="1" vertex="1">
                    <mxGeometry x="170" y="-799.86" width="310" height="30" as="geometry"/>
                </mxCell>
            </root>
        </mxGraphModel>
    </diagram>
</mxfile>